<?xml version="1.0" encoding="UTF-8"?>
<svg xmlns="http://www.w3.org/2000/svg" xmlns:xlink="http://www.w3.org/1999/xlink" viewBox="0 0 100 100" width="100px" height="100px">
<g id="surface407228">
<path style=" stroke:none;fill-rule:nonzero;fill:rgb(94.509804%,73.725492%,9.803922%);fill-opacity:1;" d="M 78 13 C 78 13.550781 77.550781 14 77 14 C 76.449219 14 76 13.550781 76 13 C 76 12.449219 76.449219 12 77 12 C 77.550781 12 78 12.449219 78 13 Z M 78 13 "/>
<path style=" stroke:none;fill-rule:nonzero;fill:rgb(90.196079%,92.941177%,71.764708%);fill-opacity:1;" d="M 87 50 C 87 70.433594 70.433594 87 50 87 C 29.566406 87 13 70.433594 13 50 C 13 29.566406 29.566406 13 50 13 C 70.433594 13 87 29.566406 87 50 Z M 87 50 "/>
<path style=" stroke:none;fill-rule:nonzero;fill:rgb(94.509804%,73.725492%,9.803922%);fill-opacity:1;" d="M 87 15 C 87 17.210938 85.210938 19 83 19 C 80.789062 19 79 17.210938 79 15 C 79 12.789062 80.789062 11 83 11 C 85.210938 11 87 12.789062 87 15 Z M 87 15 "/>
<path style=" stroke:none;fill-rule:nonzero;fill:rgb(53.333336%,68.235296%,27.058825%);fill-opacity:1;" d="M 89 24 C 89 25.105469 88.105469 26 87 26 C 85.894531 26 85 25.105469 85 24 C 85 22.894531 85.894531 22 87 22 C 88.105469 22 89 22.894531 89 24 Z M 89 24 "/>
<path style=" stroke:none;fill-rule:nonzero;fill:rgb(98.431373%,80.392158%,34.901962%);fill-opacity:1;" d="M 83 76 C 83 77.105469 82.105469 78 81 78 C 79.894531 78 79 77.105469 79 76 C 79 74.894531 79.894531 74 81 74 C 82.105469 74 83 74.894531 83 76 Z M 83 76 "/>
<path style=" stroke:none;fill-rule:nonzero;fill:rgb(98.431373%,80.392158%,34.901962%);fill-opacity:1;" d="M 19 63 C 19 65.210938 17.210938 67 15 67 C 12.789062 67 11 65.210938 11 63 C 11 60.789062 12.789062 59 15 59 C 17.210938 59 19 60.789062 19 63 Z M 19 63 "/>
<path style=" stroke:none;fill-rule:nonzero;fill:rgb(53.333336%,68.235296%,27.058825%);fill-opacity:1;" d="M 27 87 C 27 88.105469 26.105469 89 25 89 C 23.894531 89 23 88.105469 23 87 C 23 85.894531 23.894531 85 25 85 C 26.105469 85 27 85.894531 27 87 Z M 27 87 "/>
<path style=" stroke:none;fill-rule:nonzero;fill:rgb(100%,100%,100%);fill-opacity:1;" d="M 22 43.5 C 22 44.878906 20.878906 46 19.5 46 C 18.121094 46 17 44.878906 17 43.5 C 17 42.121094 18.121094 41 19.5 41 C 20.878906 41 22 42.121094 22 43.5 Z M 22 43.5 "/>
<path style=" stroke:none;fill-rule:nonzero;fill:rgb(100%,100%,100%);fill-opacity:1;" d="M 81 33.5 C 81 34.328125 80.328125 35 79.5 35 C 78.671875 35 78 34.328125 78 33.5 C 78 32.671875 78.671875 32 79.5 32 C 80.328125 32 81 32.671875 81 33.5 Z M 81 33.5 "/>
<path style=" stroke:none;fill-rule:nonzero;fill:rgb(93.333334%,24.313726%,32.941177%);fill-opacity:1;" d="M 35.898438 50.410156 L 26.792969 62.765625 L 35.921875 62.890625 L 38.742188 71.570312 L 47.769531 59.320312 "/>
<path style=" stroke:none;fill-rule:nonzero;fill:rgb(27.843139%,16.862746%,16.078432%);fill-opacity:1;" d="M 38.742188 72.269531 C 38.707031 72.269531 38.667969 72.269531 38.632812 72.261719 C 38.371094 72.21875 38.15625 72.035156 38.078125 71.785156 L 35.410156 63.582031 L 26.785156 63.464844 C 26.523438 63.460938 26.285156 63.3125 26.167969 63.078125 C 26.050781 62.84375 26.074219 62.5625 26.230469 62.351562 L 35.335938 49.992188 C 35.5625 49.679688 36.003906 49.613281 36.3125 49.84375 C 36.625 50.074219 36.691406 50.511719 36.460938 50.824219 L 28.164062 62.085938 L 35.929688 62.1875 C 36.230469 62.191406 36.492188 62.386719 36.585938 62.671875 L 38.988281 70.058594 L 47.207031 58.902344 C 47.433594 58.589844 47.875 58.523438 48.1875 58.753906 C 48.496094 58.984375 48.5625 59.421875 48.335938 59.734375 L 39.304688 71.984375 C 39.171875 72.167969 38.964844 72.269531 38.742188 72.269531 Z M 38.742188 72.269531 "/>
<path style=" stroke:none;fill-rule:nonzero;fill:rgb(93.333334%,24.313726%,32.941177%);fill-opacity:1;" d="M 35.921875 62.816406 L 40.878906 56.089844 "/>
<path style=" stroke:none;fill-rule:nonzero;fill:rgb(27.843139%,16.862746%,16.078432%);fill-opacity:1;" d="M 35.921875 63.164062 C 35.851562 63.164062 35.777344 63.144531 35.714844 63.097656 C 35.558594 62.984375 35.527344 62.765625 35.640625 62.609375 L 40.597656 55.882812 C 40.714844 55.726562 40.933594 55.691406 41.085938 55.808594 C 41.242188 55.921875 41.273438 56.140625 41.160156 56.296875 L 36.203125 63.023438 C 36.132812 63.117188 36.027344 63.164062 35.921875 63.164062 Z M 35.921875 63.164062 "/>
<path style=" stroke:none;fill-rule:nonzero;fill:rgb(93.333334%,24.313726%,32.941177%);fill-opacity:1;" d="M 37.902344 60.363281 L 39.636719 65.25 "/>
<path style=" stroke:none;fill-rule:nonzero;fill:rgb(27.843139%,16.862746%,16.078432%);fill-opacity:1;" d="M 39.632812 65.5 C 39.53125 65.5 39.433594 65.4375 39.398438 65.332031 L 37.667969 60.445312 C 37.621094 60.3125 37.691406 60.171875 37.820312 60.125 C 37.949219 60.078125 38.09375 60.148438 38.140625 60.277344 L 39.867188 65.164062 C 39.914062 65.296875 39.847656 65.4375 39.71875 65.484375 C 39.691406 65.496094 39.660156 65.5 39.632812 65.5 Z M 39.632812 65.5 "/>
<path style=" stroke:none;fill-rule:nonzero;fill:rgb(93.333334%,24.313726%,32.941177%);fill-opacity:1;" d="M 39.46875 58 L 42.394531 66.257812 "/>
<path style=" stroke:none;fill-rule:nonzero;fill:rgb(27.843139%,16.862746%,16.078432%);fill-opacity:1;" d="M 42.394531 66.507812 C 42.289062 66.507812 42.195312 66.441406 42.15625 66.339844 L 39.234375 58.082031 C 39.1875 57.953125 39.257812 57.808594 39.386719 57.765625 C 39.515625 57.714844 39.660156 57.785156 39.703125 57.914062 L 42.628906 66.171875 C 42.675781 66.300781 42.605469 66.445312 42.476562 66.492188 C 42.449219 66.5 42.421875 66.507812 42.394531 66.507812 Z M 42.394531 66.507812 "/>
<path style=" stroke:none;fill-rule:nonzero;fill:rgb(93.333334%,24.313726%,32.941177%);fill-opacity:1;" d="M 41.800781 56.730469 L 44.265625 63.695312 "/>
<path style=" stroke:none;fill-rule:nonzero;fill:rgb(27.843139%,16.862746%,16.078432%);fill-opacity:1;" d="M 44.265625 63.945312 C 44.160156 63.945312 44.066406 63.882812 44.027344 63.777344 L 41.5625 56.8125 C 41.515625 56.683594 41.585938 56.539062 41.714844 56.492188 C 41.84375 56.445312 41.988281 56.515625 42.03125 56.644531 L 44.5 63.613281 C 44.546875 63.742188 44.476562 63.886719 44.347656 63.929688 C 44.320312 63.941406 44.292969 63.945312 44.265625 63.945312 Z M 44.265625 63.945312 "/>
<path style=" stroke:none;fill-rule:nonzero;fill:rgb(93.333334%,24.313726%,32.941177%);fill-opacity:1;" d="M 40.015625 66.257812 L 40.148438 66.632812 "/>
<path style=" stroke:none;fill-rule:nonzero;fill:rgb(27.843139%,16.862746%,16.078432%);fill-opacity:1;" d="M 40.148438 66.882812 C 40.046875 66.882812 39.949219 66.820312 39.914062 66.71875 L 39.78125 66.339844 C 39.734375 66.210938 39.804688 66.066406 39.933594 66.023438 C 40.066406 65.976562 40.207031 66.042969 40.253906 66.175781 L 40.386719 66.550781 C 40.429688 66.679688 40.363281 66.824219 40.234375 66.871094 C 40.207031 66.878906 40.175781 66.882812 40.148438 66.882812 Z M 40.148438 66.882812 "/>
<path style=" stroke:none;fill-rule:nonzero;fill:rgb(93.333334%,24.313726%,32.941177%);fill-opacity:1;" d="M 65.042969 50.410156 L 74.148438 62.765625 L 65.019531 62.890625 L 62.199219 71.570312 L 53.171875 59.320312 "/>
<path style=" stroke:none;fill-rule:nonzero;fill:rgb(27.843139%,16.862746%,16.078432%);fill-opacity:1;" d="M 62.199219 72.269531 C 61.976562 72.269531 61.765625 72.167969 61.636719 71.984375 L 52.609375 59.734375 C 52.378906 59.421875 52.445312 58.984375 52.757812 58.753906 C 53.066406 58.523438 53.507812 58.59375 53.734375 58.902344 L 61.953125 70.058594 L 64.355469 62.671875 C 64.449219 62.386719 64.710938 62.191406 65.011719 62.1875 L 72.777344 62.085938 L 64.480469 50.824219 C 64.25 50.511719 64.316406 50.074219 64.628906 49.84375 C 64.941406 49.613281 65.378906 49.679688 65.605469 49.992188 L 74.710938 62.351562 C 74.867188 62.5625 74.890625 62.84375 74.773438 63.078125 C 74.65625 63.3125 74.421875 63.460938 74.15625 63.464844 L 65.53125 63.582031 L 62.863281 71.785156 C 62.78125 72.035156 62.570312 72.21875 62.308594 72.261719 C 62.273438 72.269531 62.234375 72.269531 62.199219 72.269531 Z M 62.199219 72.269531 "/>
<path style=" stroke:none;fill-rule:nonzero;fill:rgb(93.333334%,24.313726%,32.941177%);fill-opacity:1;" d="M 65.019531 62.816406 L 60.183594 56.253906 "/>
<path style=" stroke:none;fill-rule:nonzero;fill:rgb(27.843139%,16.862746%,16.078432%);fill-opacity:1;" d="M 65.019531 63.164062 C 64.914062 63.164062 64.808594 63.117188 64.738281 63.023438 L 59.902344 56.460938 C 59.789062 56.304688 59.820312 56.085938 59.976562 55.972656 C 60.132812 55.859375 60.351562 55.890625 60.46875 56.046875 L 65.300781 62.609375 C 65.414062 62.765625 65.382812 62.984375 65.226562 63.097656 C 65.164062 63.144531 65.09375 63.164062 65.019531 63.164062 Z M 65.019531 63.164062 "/>
<path style=" stroke:none;fill-rule:nonzero;fill:rgb(93.333334%,24.313726%,32.941177%);fill-opacity:1;" d="M 63.035156 60.363281 L 61.308594 65.25 "/>
<path style=" stroke:none;fill-rule:nonzero;fill:rgb(27.843139%,16.862746%,16.078432%);fill-opacity:1;" d="M 61.308594 65.5 C 61.28125 65.5 61.25 65.496094 61.222656 65.484375 C 61.09375 65.441406 61.027344 65.296875 61.070312 65.167969 L 62.800781 60.277344 C 62.847656 60.148438 62.988281 60.078125 63.117188 60.125 C 63.25 60.171875 63.316406 60.316406 63.269531 60.445312 L 61.542969 65.335938 C 61.507812 65.4375 61.410156 65.5 61.308594 65.5 Z M 61.308594 65.5 "/>
<path style=" stroke:none;fill-rule:nonzero;fill:rgb(93.333334%,24.313726%,32.941177%);fill-opacity:1;" d="M 61.472656 58 L 58.546875 66.257812 "/>
<path style=" stroke:none;fill-rule:nonzero;fill:rgb(27.843139%,16.862746%,16.078432%);fill-opacity:1;" d="M 58.546875 66.507812 C 58.519531 66.507812 58.492188 66.503906 58.464844 66.492188 C 58.335938 66.445312 58.265625 66.304688 58.3125 66.171875 L 61.234375 57.917969 C 61.28125 57.785156 61.425781 57.71875 61.554688 57.765625 C 61.683594 57.8125 61.753906 57.953125 61.707031 58.085938 L 58.78125 66.339844 C 58.746094 66.441406 58.652344 66.507812 58.546875 66.507812 Z M 58.546875 66.507812 "/>
<path style=" stroke:none;fill-rule:nonzero;fill:rgb(93.333334%,24.313726%,32.941177%);fill-opacity:1;" d="M 59.144531 56.730469 L 56.675781 63.695312 "/>
<path style=" stroke:none;fill-rule:nonzero;fill:rgb(27.843139%,16.862746%,16.078432%);fill-opacity:1;" d="M 56.675781 63.945312 C 56.648438 63.945312 56.621094 63.941406 56.59375 63.933594 C 56.460938 63.886719 56.394531 63.742188 56.441406 63.613281 L 58.90625 56.648438 C 58.953125 56.515625 59.09375 56.449219 59.226562 56.496094 C 59.355469 56.539062 59.425781 56.683594 59.378906 56.8125 L 56.910156 63.78125 C 56.875 63.882812 56.777344 63.945312 56.675781 63.945312 Z M 56.675781 63.945312 "/>
<path style=" stroke:none;fill-rule:nonzero;fill:rgb(93.333334%,24.313726%,32.941177%);fill-opacity:1;" d="M 60.925781 66.257812 L 60.789062 66.632812 "/>
<path style=" stroke:none;fill-rule:nonzero;fill:rgb(27.843139%,16.862746%,16.078432%);fill-opacity:1;" d="M 60.792969 66.882812 C 60.765625 66.882812 60.734375 66.878906 60.710938 66.871094 C 60.578125 66.824219 60.511719 66.679688 60.558594 66.550781 L 60.691406 66.175781 C 60.734375 66.046875 60.878906 65.976562 61.007812 66.023438 C 61.140625 66.066406 61.207031 66.210938 61.160156 66.339844 L 61.027344 66.71875 C 60.992188 66.820312 60.894531 66.882812 60.792969 66.882812 Z M 60.792969 66.882812 "/>
<path style=" stroke:none;fill-rule:nonzero;fill:rgb(98.431373%,80.392158%,34.901962%);fill-opacity:1;" d="M 50.5 25.742188 C 41.246094 25.742188 33.738281 33.238281 33.738281 42.492188 C 33.734375 51.746094 41.234375 59.253906 50.488281 59.257812 C 50.492188 59.257812 50.496094 59.257812 50.5 59.257812 C 59.753906 59.257812 67.257812 51.761719 67.261719 42.507812 C 67.265625 33.253906 59.765625 25.746094 50.511719 25.742188 C 50.507812 25.742188 50.503906 25.742188 50.5 25.742188 Z M 50.5 25.742188 "/>
<path style=" stroke:none;fill-rule:nonzero;fill:rgb(27.843139%,16.862746%,16.078432%);fill-opacity:1;" d="M 50.5 60 C 40.851562 60 33 52.148438 33 42.5 C 33 32.851562 40.851562 25 50.5 25 C 60.148438 25 68 32.851562 68 42.5 C 68 52.148438 60.148438 60 50.5 60 Z M 50.5 26.488281 C 41.671875 26.488281 34.488281 33.671875 34.488281 42.5 C 34.488281 51.328125 41.671875 58.511719 50.5 58.511719 C 59.328125 58.511719 66.511719 51.328125 66.511719 42.5 C 66.511719 33.671875 59.328125 26.488281 50.5 26.488281 Z M 50.5 26.488281 "/>
<path style=" stroke:none;fill-rule:nonzero;fill:rgb(27.843139%,16.862746%,16.078432%);fill-opacity:1;" d="M 63.980469 47.546875 C 63.949219 47.546875 63.921875 47.542969 63.890625 47.53125 C 63.753906 47.484375 63.679688 47.332031 63.730469 47.191406 C 64.273438 45.683594 64.546875 44.097656 64.546875 42.484375 C 64.546875 34.785156 58.28125 28.523438 50.585938 28.523438 C 50.4375 28.523438 50.320312 28.402344 50.320312 28.257812 C 50.320312 28.109375 50.4375 27.992188 50.585938 27.992188 C 58.574219 27.992188 65.074219 34.492188 65.074219 42.484375 C 65.074219 44.160156 64.789062 45.804688 64.230469 47.371094 C 64.191406 47.480469 64.089844 47.546875 63.980469 47.546875 Z M 41.878906 54.003906 C 41.820312 54.003906 41.765625 53.984375 41.714844 53.945312 C 38.140625 51.179688 36.09375 47 36.09375 42.484375 C 36.09375 37.691406 38.457031 33.21875 42.421875 30.511719 C 42.539062 30.429688 42.707031 30.460938 42.789062 30.578125 C 42.871094 30.699219 42.839844 30.867188 42.71875 30.949219 C 38.902344 33.554688 36.625 37.867188 36.625 42.484375 C 36.625 46.835938 38.597656 50.859375 42.042969 53.527344 C 42.15625 53.617188 42.179688 53.785156 42.089844 53.898438 C 42.035156 53.96875 41.957031 54.003906 41.878906 54.003906 Z M 44.265625 55.5 C 44.226562 55.5 44.183594 55.492188 44.148438 55.472656 C 43.773438 55.285156 43.40625 55.085938 43.058594 54.871094 C 42.933594 54.796875 42.894531 54.632812 42.96875 54.507812 C 43.046875 54.378906 43.210938 54.34375 43.332031 54.417969 C 43.671875 54.625 44.023438 54.820312 44.382812 54.996094 C 44.515625 55.0625 44.570312 55.222656 44.503906 55.351562 C 44.453125 55.445312 44.363281 55.5 44.265625 55.5 Z M 50.582031 56.976562 C 49.117188 56.976562 47.671875 56.757812 46.277344 56.324219 C 46.140625 56.28125 46.0625 56.132812 46.105469 55.992188 C 46.148438 55.855469 46.296875 55.777344 46.4375 55.820312 C 47.773438 56.234375 49.167969 56.445312 50.582031 56.445312 C 50.726562 56.445312 50.847656 56.5625 50.847656 56.710938 C 50.847656 56.855469 50.726562 56.976562 50.582031 56.976562 Z M 50.582031 56.976562 "/>
<path style=" stroke:none;fill-rule:nonzero;fill:rgb(87.843138%,65.882355%,14.509805%);fill-opacity:1;" d="M 50.578125 36.789062 L 52.429688 40.535156 L 56.566406 41.136719 L 53.574219 44.058594 L 54.28125 48.179688 L 50.578125 46.230469 L 46.878906 48.179688 L 47.585938 44.058594 L 44.589844 41.136719 L 48.726562 40.535156 Z M 50.578125 36.789062 "/>
<path style=" stroke:none;fill-rule:nonzero;fill:rgb(27.843139%,16.862746%,16.078432%);fill-opacity:1;" d="M 46.875 48.613281 C 46.785156 48.613281 46.695312 48.589844 46.621094 48.53125 C 46.488281 48.433594 46.421875 48.269531 46.445312 48.105469 L 47.113281 44.210938 L 44.285156 41.449219 C 44.164062 41.335938 44.121094 41.164062 44.175781 41.003906 C 44.226562 40.847656 44.359375 40.734375 44.523438 40.710938 L 48.4375 40.140625 L 50.183594 36.59375 C 50.328125 36.296875 50.820312 36.296875 50.964844 36.59375 L 52.714844 40.140625 L 56.625 40.710938 C 56.789062 40.734375 56.925781 40.847656 56.976562 41.003906 C 57.027344 41.164062 56.984375 41.335938 56.863281 41.449219 L 54.035156 44.210938 L 54.703125 48.105469 C 54.730469 48.269531 54.664062 48.433594 54.53125 48.53125 C 54.394531 48.628906 54.21875 48.640625 54.070312 48.566406 L 50.574219 46.726562 L 47.078125 48.566406 C 47.015625 48.597656 46.945312 48.613281 46.875 48.613281 Z M 50.578125 45.800781 C 50.648438 45.800781 50.71875 45.816406 50.78125 45.847656 L 53.703125 47.386719 L 53.144531 44.132812 C 53.121094 43.992188 53.167969 43.847656 53.269531 43.746094 L 55.632812 41.441406 L 52.367188 40.96875 C 52.226562 40.945312 52.101562 40.859375 52.039062 40.730469 L 50.578125 37.769531 L 49.117188 40.730469 C 49.054688 40.859375 48.929688 40.945312 48.789062 40.96875 L 45.523438 41.441406 L 47.886719 43.746094 C 47.988281 43.847656 48.035156 43.988281 48.011719 44.132812 L 47.453125 47.386719 L 50.375 45.851562 C 50.4375 45.816406 50.507812 45.800781 50.578125 45.800781 Z M 50.578125 45.800781 "/>
<path style=" stroke:none;fill-rule:nonzero;fill:rgb(94.509804%,73.725492%,9.803922%);fill-opacity:1;" d="M 74.589844 42.878906 L 75.480469 44.679688 L 77.46875 44.96875 L 76.03125 46.371094 L 76.371094 48.351562 L 74.589844 47.417969 L 72.8125 48.351562 L 73.152344 46.371094 L 71.714844 44.96875 L 73.703125 44.679688 Z M 74.589844 42.878906 "/>
<path style=" stroke:none;fill-rule:nonzero;fill:rgb(27.843139%,16.862746%,16.078432%);fill-opacity:1;" d="M 76.371094 48.703125 C 76.316406 48.703125 76.261719 48.691406 76.207031 48.664062 L 74.59375 47.8125 L 72.976562 48.664062 C 72.859375 48.726562 72.714844 48.714844 72.605469 48.636719 C 72.5 48.558594 72.445312 48.425781 72.46875 48.292969 L 72.777344 46.492188 L 71.46875 45.21875 C 71.371094 45.128906 71.339844 44.988281 71.378906 44.863281 C 71.421875 44.734375 71.53125 44.644531 71.660156 44.625 L 73.46875 44.359375 L 74.277344 42.722656 C 74.394531 42.484375 74.789062 42.484375 74.90625 42.722656 L 75.714844 44.359375 L 77.523438 44.625 C 77.65625 44.644531 77.765625 44.734375 77.804688 44.863281 C 77.847656 44.988281 77.8125 45.128906 77.714844 45.21875 L 76.40625 46.492188 L 76.71875 48.292969 C 76.738281 48.425781 76.6875 48.558594 76.578125 48.636719 C 76.515625 48.679688 76.441406 48.703125 76.371094 48.703125 Z M 74.589844 47.066406 C 74.648438 47.066406 74.703125 47.082031 74.753906 47.109375 L 75.90625 47.714844 L 75.683594 46.429688 C 75.664062 46.316406 75.703125 46.203125 75.785156 46.121094 L 76.71875 45.214844 L 75.429688 45.027344 C 75.316406 45.007812 75.21875 44.9375 75.167969 44.835938 L 74.589844 43.667969 L 74.015625 44.835938 C 73.964844 44.9375 73.867188 45.011719 73.753906 45.027344 L 72.464844 45.214844 L 73.394531 46.121094 C 73.480469 46.199219 73.515625 46.316406 73.496094 46.429688 L 73.277344 47.714844 L 74.429688 47.109375 C 74.480469 47.082031 74.535156 47.066406 74.589844 47.066406 Z M 74.589844 47.066406 "/>
<path style=" stroke:none;fill-rule:nonzero;fill:rgb(94.509804%,73.725492%,9.803922%);fill-opacity:1;" d="M 27.121094 29.996094 L 28.480469 32.75 L 31.519531 33.191406 L 29.320312 35.335938 L 29.839844 38.359375 L 27.121094 36.933594 L 24.402344 38.359375 L 24.921875 35.335938 L 22.722656 33.191406 L 25.761719 32.75 Z M 27.121094 29.996094 "/>
<path style=" stroke:none;fill-rule:nonzero;fill:rgb(27.843139%,16.862746%,16.078432%);fill-opacity:1;" d="M 29.839844 38.710938 C 29.785156 38.710938 29.730469 38.699219 29.675781 38.671875 L 27.121094 37.328125 L 24.566406 38.671875 C 24.445312 38.730469 24.304688 38.722656 24.195312 38.644531 C 24.089844 38.566406 24.035156 38.433594 24.058594 38.300781 L 24.546875 35.457031 L 22.480469 33.441406 C 22.382812 33.347656 22.347656 33.210938 22.390625 33.082031 C 22.429688 32.957031 22.539062 32.863281 22.671875 32.84375 L 25.527344 32.429688 L 26.804688 29.839844 C 26.921875 29.601562 27.316406 29.601562 27.433594 29.839844 L 28.710938 32.429688 L 31.566406 32.84375 C 31.699219 32.863281 31.808594 32.953125 31.851562 33.082031 C 31.890625 33.210938 31.855469 33.347656 31.761719 33.441406 L 29.695312 35.457031 L 30.183594 38.300781 C 30.203125 38.433594 30.152344 38.566406 30.042969 38.644531 C 29.984375 38.6875 29.910156 38.710938 29.839844 38.710938 Z M 23.476562 33.433594 L 25.164062 35.082031 C 25.246094 35.164062 25.285156 35.277344 25.265625 35.394531 L 24.867188 37.722656 L 26.957031 36.621094 C 27.058594 36.566406 27.183594 36.566406 27.285156 36.621094 L 29.375 37.722656 L 28.976562 35.394531 C 28.957031 35.28125 28.992188 35.164062 29.078125 35.082031 L 30.769531 33.433594 L 28.429688 33.09375 C 28.316406 33.078125 28.21875 33.007812 28.167969 32.902344 L 27.121094 30.785156 L 26.074219 32.902344 C 26.023438 33.007812 25.925781 33.078125 25.8125 33.09375 Z M 23.476562 33.433594 "/>
<path style=" stroke:none;fill-rule:nonzero;fill:rgb(94.509804%,73.725492%,9.803922%);fill-opacity:1;" d="M 46.285156 70.976562 L 47.386719 73.203125 L 49.84375 73.5625 L 48.066406 75.296875 L 48.484375 77.742188 L 46.285156 76.585938 L 44.089844 77.742188 L 44.507812 75.296875 L 42.730469 73.5625 L 45.1875 73.203125 Z M 46.285156 70.976562 "/>
<path style=" stroke:none;fill-rule:nonzero;fill:rgb(27.843139%,16.862746%,16.078432%);fill-opacity:1;" d="M 48.484375 78.09375 C 48.429688 78.09375 48.375 78.082031 48.324219 78.054688 L 46.285156 76.984375 L 44.25 78.054688 C 44.132812 78.113281 43.988281 78.105469 43.882812 78.027344 C 43.773438 77.949219 43.722656 77.816406 43.742188 77.683594 L 44.132812 75.417969 L 42.484375 73.8125 C 42.390625 73.71875 42.355469 73.578125 42.394531 73.453125 C 42.4375 73.328125 42.546875 73.234375 42.679688 73.214844 L 44.953125 72.886719 L 45.972656 70.820312 C 46.089844 70.582031 46.484375 70.582031 46.601562 70.820312 L 47.621094 72.886719 L 49.898438 73.214844 C 50.027344 73.234375 50.136719 73.328125 50.179688 73.453125 C 50.21875 73.578125 50.1875 73.71875 50.089844 73.8125 L 48.441406 75.417969 L 48.832031 77.683594 C 48.855469 77.816406 48.800781 77.949219 48.691406 78.027344 C 48.632812 78.070312 48.558594 78.09375 48.484375 78.09375 Z M 46.285156 76.238281 C 46.34375 76.238281 46.398438 76.25 46.449219 76.277344 L 48.019531 77.105469 L 47.722656 75.355469 C 47.699219 75.242188 47.738281 75.125 47.820312 75.042969 L 49.09375 73.804688 L 47.335938 73.550781 C 47.222656 73.53125 47.121094 73.460938 47.070312 73.359375 L 46.285156 71.765625 L 45.5 73.359375 C 45.449219 73.464844 45.351562 73.535156 45.238281 73.550781 L 43.480469 73.804688 L 44.75 75.042969 C 44.832031 75.125 44.871094 75.238281 44.851562 75.355469 L 44.550781 77.105469 L 46.121094 76.277344 C 46.175781 76.25 46.230469 76.238281 46.285156 76.238281 Z M 46.285156 76.238281 "/>
</g>
</svg>
