<?xml version="1.0" encoding="UTF-8"?>
<svg xmlns="http://www.w3.org/2000/svg" xmlns:xlink="http://www.w3.org/1999/xlink" viewBox="0 0 100 100" width="100px" height="100px">
<g id="surface270559">
<path style=" stroke:none;fill-rule:nonzero;fill:rgb(53.333336%,68.235296%,27.058825%);fill-opacity:1;" d="M 13 27 C 11.894531 27 11 27.894531 11 29 C 11 30.105469 11.894531 31 13 31 C 14.105469 31 15 30.105469 15 29 C 15 27.894531 14.105469 27 13 27 Z M 13 27 "/>
<path style=" stroke:none;fill-rule:nonzero;fill:rgb(94.509804%,73.725492%,9.803922%);fill-opacity:1;" d="M 77 12 C 76.449219 12 76 12.449219 76 13 C 76 13.550781 76.449219 14 77 14 C 77.550781 14 78 13.550781 78 13 C 78 12.449219 77.550781 12 77 12 Z M 77 12 "/>
<path style=" stroke:none;fill-rule:nonzero;fill:rgb(90.196079%,92.941177%,71.764708%);fill-opacity:1;" d="M 50 13 C 29.566406 13 13 29.566406 13 50 C 13 70.433594 29.566406 87 50 87 C 70.433594 87 87 70.433594 87 50 C 87 29.566406 70.433594 13 50 13 Z M 50 13 "/>
<path style=" stroke:none;fill-rule:nonzero;fill:rgb(94.509804%,73.725492%,9.803922%);fill-opacity:1;" d="M 83 11 C 80.789062 11 79 12.789062 79 15 C 79 17.210938 80.789062 19 83 19 C 85.210938 19 87 17.210938 87 15 C 87 12.789062 85.210938 11 83 11 Z M 83 11 "/>
<path style=" stroke:none;fill-rule:nonzero;fill:rgb(53.333336%,68.235296%,27.058825%);fill-opacity:1;" d="M 87 22 C 85.894531 22 85 22.894531 85 24 C 85 25.105469 85.894531 26 87 26 C 88.105469 26 89 25.105469 89 24 C 89 22.894531 88.105469 22 87 22 Z M 87 22 "/>
<path style=" stroke:none;fill-rule:nonzero;fill:rgb(98.431373%,80.392158%,34.901962%);fill-opacity:1;" d="M 81 74 C 79.894531 74 79 74.894531 79 76 C 79 77.105469 79.894531 78 81 78 C 82.105469 78 83 77.105469 83 76 C 83 74.894531 82.105469 74 81 74 Z M 15 59 C 12.789062 59 11 60.789062 11 63 C 11 65.210938 12.789062 67 15 67 C 17.210938 67 19 65.210938 19 63 C 19 60.789062 17.210938 59 15 59 Z M 15 59 "/>
<path style=" stroke:none;fill-rule:nonzero;fill:rgb(53.333336%,68.235296%,27.058825%);fill-opacity:1;" d="M 25 85 C 23.894531 85 23 85.894531 23 87 C 23 88.105469 23.894531 89 25 89 C 26.105469 89 27 88.105469 27 87 C 27 85.894531 26.105469 85 25 85 Z M 25 85 "/>
<path style=" stroke:none;fill-rule:nonzero;fill:rgb(100%,100%,100%);fill-opacity:1;" d="M 18.5 51 C 17.121094 51 16 52.121094 16 53.5 C 16 54.878906 17.121094 56 18.5 56 C 19.878906 56 21 54.878906 21 53.5 C 21 52.121094 19.878906 51 18.5 51 Z M 18.5 51 "/>
<path style=" stroke:none;fill-rule:nonzero;fill:rgb(94.509804%,73.725492%,9.803922%);fill-opacity:1;" d="M 21 66 C 20.449219 66 20 66.449219 20 67 C 20 67.550781 20.449219 68 21 68 C 21.550781 68 22 67.550781 22 67 C 22 66.449219 21.550781 66 21 66 Z M 21 66 "/>
<path style=" stroke:none;fill-rule:nonzero;fill:rgb(100%,100%,100%);fill-opacity:1;" d="M 80 33 C 79.449219 33 79 33.449219 79 34 C 79 34.550781 79.449219 35 80 35 C 80.550781 35 81 34.550781 81 34 C 81 33.449219 80.550781 33 80 33 Z M 80 33 "/>
<path style=" stroke:none;fill-rule:nonzero;fill:rgb(97.647059%,90.196079%,36.078432%);fill-opacity:1;" d="M 35 72.300781 C 30.976562 72.300781 27.699219 69.027344 27.699219 65 L 27.699219 35 C 27.699219 30.976562 30.972656 27.699219 35 27.699219 L 65 27.699219 C 69.023438 27.699219 72.300781 30.972656 72.300781 35 L 72.300781 65 C 72.300781 69.023438 69.027344 72.300781 65 72.300781 Z M 35 72.300781 "/>
<path style=" stroke:none;fill-rule:nonzero;fill:rgb(27.843139%,16.862746%,16.078432%);fill-opacity:1;" d="M 65 28.398438 C 68.640625 28.398438 71.601562 31.359375 71.601562 35 L 71.601562 65 C 71.601562 68.640625 68.640625 71.601562 65 71.601562 L 35 71.601562 C 31.359375 71.601562 28.398438 68.640625 28.398438 65 L 28.398438 35 C 28.398438 31.359375 31.359375 28.398438 35 28.398438 L 65 28.398438 M 65 27 L 35 27 C 30.601562 27 27 30.601562 27 35 L 27 65 C 27 69.398438 30.601562 73 35 73 L 65 73 C 69.398438 73 73 69.398438 73 65 L 73 35 C 73 30.601562 69.398438 27 65 27 Z M 65 27 "/>
<path style=" stroke:none;fill-rule:nonzero;fill:rgb(27.843139%,16.862746%,16.078432%);fill-opacity:1;" d="M 68.5 47.375 C 68.222656 47.375 68 47.152344 68 46.875 L 68 43 C 68 42.722656 68.222656 42.5 68.5 42.5 C 68.777344 42.5 69 42.722656 69 43 L 69 46.875 C 69 47.152344 68.777344 47.375 68.5 47.375 Z M 68.5 47.375 "/>
<path style=" stroke:none;fill-rule:nonzero;fill:rgb(27.843139%,16.862746%,16.078432%);fill-opacity:1;" d="M 68.5 40.5 C 68.222656 40.5 68 40.277344 68 40 L 68 38 C 68 37.722656 68.222656 37.5 68.5 37.5 C 68.777344 37.5 69 37.722656 69 38 L 69 40 C 69 40.277344 68.777344 40.5 68.5 40.5 Z M 68.5 40.5 "/>
<path style=" stroke:none;fill-rule:nonzero;fill:rgb(27.843139%,16.862746%,16.078432%);fill-opacity:1;" d="M 64 69 L 36 69 C 33.242188 69 31 66.757812 31 64 L 31 36 C 31 33.242188 33.242188 31 36 31 L 61.375 31 C 61.652344 31 61.875 31.222656 61.875 31.5 C 61.875 31.777344 61.652344 32 61.375 32 L 36 32 C 33.792969 32 32 33.792969 32 36 L 32 64 C 32 66.207031 33.792969 68 36 68 L 64 68 C 66.207031 68 68 66.207031 68 64 L 68 49.625 C 68 49.347656 68.222656 49.125 68.5 49.125 C 68.777344 49.125 69 49.347656 69 49.625 L 69 64 C 69 66.757812 66.757812 69 64 69 Z M 64 69 "/>
<path style=" stroke:none;fill-rule:nonzero;fill:rgb(99.607843%,99.215686%,93.725491%);fill-opacity:1;" d="M 47.398438 59.542969 C 47.042969 59.542969 46.683594 59.414062 46.398438 59.15625 L 37.484375 50.242188 C 36.878906 49.691406 36.835938 48.75 37.386719 48.144531 C 37.9375 47.539062 38.878906 47.492188 39.484375 48.042969 L 47.378906 56.03125 L 60.492188 42.863281 C 61.089844 42.300781 62.027344 42.324219 62.59375 42.921875 C 63.15625 43.519531 63.132812 44.457031 62.535156 45.023438 L 48.417969 59.136719 C 48.132812 59.40625 47.765625 59.542969 47.398438 59.542969 Z M 47.398438 59.542969 "/>
<path style=" stroke:none;fill-rule:nonzero;fill:rgb(27.843139%,16.862746%,16.078432%);fill-opacity:1;" d="M 47.398438 59.792969 C 46.96875 59.792969 46.550781 59.632812 46.230469 59.339844 L 37.308594 50.417969 C 36.976562 50.113281 36.773438 49.6875 36.753906 49.226562 C 36.730469 48.761719 36.890625 48.316406 37.203125 47.976562 C 37.847656 47.269531 38.945312 47.214844 39.652344 47.859375 L 47.382812 55.675781 L 60.316406 42.6875 C 60.660156 42.363281 61.09375 42.164062 61.5625 42.207031 C 62.027344 42.21875 62.457031 42.414062 62.777344 42.75 C 63.09375 43.085938 63.261719 43.527344 63.25 43.992188 C 63.238281 44.453125 63.042969 44.886719 62.707031 45.203125 L 48.597656 59.3125 C 48.269531 59.625 47.847656 59.792969 47.398438 59.792969 Z M 38.488281 47.90625 C 38.152344 47.90625 37.816406 48.042969 37.570312 48.308594 C 37.347656 48.554688 37.234375 48.871094 37.25 49.199219 C 37.265625 49.53125 37.410156 49.835938 37.652344 50.054688 L 46.574219 58.980469 C 47.019531 59.382812 47.792969 59.382812 48.246094 58.953125 L 62.355469 44.847656 C 62.855469 44.371094 62.878906 43.589844 62.410156 43.09375 C 62.183594 42.855469 61.878906 42.714844 61.546875 42.707031 C 61.222656 42.671875 60.90625 42.816406 60.664062 43.042969 L 47.378906 56.386719 L 39.308594 48.21875 C 39.078125 48.011719 38.785156 47.90625 38.488281 47.90625 Z M 38.488281 47.90625 "/>
<path style=" stroke:none;fill-rule:nonzero;fill:rgb(99.215686%,98.823529%,93.725491%);fill-opacity:1;" d="M 95.054688 80.054688 C 95.054688 88.339844 88.339844 95.054688 80.054688 95.054688 C 71.769531 95.054688 65.054688 88.339844 65.054688 80.054688 C 65.054688 71.769531 71.769531 65.054688 80.054688 65.054688 C 88.339844 65.054688 95.054688 71.769531 95.054688 80.054688 Z M 95.054688 80.054688 "/>
<path style=" stroke:none;fill-rule:nonzero;fill:rgb(27.843139%,16.862746%,16.078432%);fill-opacity:1;" d="M 80.054688 65.957031 C 87.832031 65.957031 94.15625 72.28125 94.15625 80.054688 C 94.15625 87.832031 87.832031 94.15625 80.054688 94.15625 C 72.28125 94.15625 65.957031 87.832031 65.957031 80.054688 C 65.957031 72.28125 72.28125 65.957031 80.054688 65.957031 M 80.054688 64.554688 C 71.496094 64.554688 64.554688 71.496094 64.554688 80.054688 C 64.554688 88.617188 71.496094 95.554688 80.054688 95.554688 C 88.617188 95.554688 95.554688 88.617188 95.554688 80.054688 C 95.554688 71.496094 88.617188 64.554688 80.054688 64.554688 Z M 80.054688 64.554688 "/>
<path style=" stroke:none;fill-rule:nonzero;fill:rgb(96.862745%,42.745098%,30.19608%);fill-opacity:1;" d="M 92.304688 80.054688 C 92.304688 86.820312 86.820312 92.304688 80.054688 92.304688 C 73.289062 92.304688 67.804688 86.820312 67.804688 80.054688 C 67.804688 73.289062 73.289062 67.804688 80.054688 67.804688 C 86.820312 67.804688 92.304688 73.289062 92.304688 80.054688 Z M 92.304688 80.054688 "/>
<path style=" stroke:none;fill-rule:nonzero;fill:rgb(94.509804%,53.333336%,40.784314%);fill-opacity:1;" d="M 80.054688 67.804688 C 73.300781 67.804688 67.804688 73.300781 67.804688 80.054688 C 67.804688 80.207031 67.824219 80.355469 67.828125 80.507812 C 69.003906 74.828125 74.027344 70.554688 80.054688 70.554688 C 86.085938 70.554688 91.109375 74.832031 92.28125 80.511719 C 92.289062 80.359375 92.304688 80.210938 92.304688 80.054688 C 92.304688 73.300781 86.808594 67.804688 80.054688 67.804688 Z M 80.054688 67.804688 "/>
<path style=" stroke:none;fill-rule:nonzero;fill:rgb(27.843139%,16.862746%,16.078432%);fill-opacity:1;" d="M 80.054688 68.054688 C 86.671875 68.054688 92.054688 73.4375 92.054688 80.054688 C 92.054688 86.671875 86.671875 92.054688 80.054688 92.054688 C 73.4375 92.054688 68.054688 86.671875 68.054688 80.054688 C 68.054688 73.4375 73.4375 68.054688 80.054688 68.054688 M 80.054688 67.554688 C 73.164062 67.554688 67.554688 73.164062 67.554688 80.054688 C 67.554688 86.949219 73.164062 92.554688 80.054688 92.554688 C 86.949219 92.554688 92.554688 86.949219 92.554688 80.054688 C 92.554688 73.164062 86.949219 67.554688 80.054688 67.554688 Z M 80.054688 67.554688 "/>
<path style=" stroke:none;fill-rule:nonzero;fill:rgb(27.843139%,16.862746%,16.078432%);fill-opacity:1;" d="M 76.554688 85.5625 L 76.554688 83.964844 C 76.554688 83.472656 76.742188 82.988281 77.113281 82.507812 C 77.488281 82.03125 77.9375 81.601562 78.46875 81.21875 L 80.089844 80.03125 C 80.632812 79.648438 81.097656 79.214844 81.484375 78.738281 C 81.867188 78.261719 82.058594 77.777344 82.058594 77.28125 C 82.058594 76.753906 81.882812 76.292969 81.53125 75.898438 C 81.179688 75.5 80.679688 75.304688 80.023438 75.304688 C 79.464844 75.304688 79.011719 75.460938 78.660156 75.769531 C 78.308594 76.082031 78.132812 76.53125 78.132812 77.117188 C 78.132812 77.261719 78.066406 77.390625 77.933594 77.503906 C 77.800781 77.613281 77.625 77.667969 77.402344 77.667969 C 76.980469 77.667969 76.769531 77.398438 76.769531 76.863281 C 76.769531 76.042969 77.085938 75.371094 77.710938 74.84375 C 78.339844 74.320312 79.109375 74.054688 80.023438 74.054688 C 81 74.054688 81.816406 74.359375 82.472656 74.960938 C 83.128906 75.5625 83.453125 76.320312 83.453125 77.230469 C 83.453125 77.78125 83.320312 78.304688 83.046875 78.8125 C 82.773438 79.316406 82.4375 79.746094 82.03125 80.097656 C 81.625 80.449219 81.183594 80.796875 80.707031 81.152344 L 79.371094 82.089844 C 78.96875 82.363281 78.632812 82.667969 78.359375 82.996094 C 78.089844 83.324219 77.953125 83.648438 77.953125 83.96875 L 77.953125 84.808594 L 83.074219 84.808594 C 83.207031 84.808594 83.320312 84.867188 83.414062 84.988281 C 83.507812 85.109375 83.554688 85.257812 83.554688 85.429688 C 83.554688 85.59375 83.507812 85.742188 83.414062 85.867188 C 83.320312 85.992188 83.207031 86.054688 83.074219 86.054688 L 77.183594 86.054688 C 77.039062 86.054688 76.898438 86.007812 76.761719 85.914062 C 76.625 85.824219 76.554688 85.703125 76.554688 85.5625 Z M 76.554688 85.5625 "/>
</g>
</svg>
