<?xml version="1.0" encoding="UTF-8"?>
<svg xmlns="http://www.w3.org/2000/svg" xmlns:xlink="http://www.w3.org/1999/xlink" viewBox="0 0 100 100" width="100px" height="100px">
<g id="surface308991">
<path style=" stroke:none;fill-rule:nonzero;fill:rgb(90.196079%,92.941177%,71.764708%);fill-opacity:1;" d="M 50 13 C 29.566406 13 13 29.566406 13 50 C 13 70.433594 29.566406 87 50 87 C 70.433594 87 87 70.433594 87 50 C 87 29.566406 70.433594 13 50 13 Z M 50 13 "/>
<path style=" stroke:none;fill-rule:nonzero;fill:rgb(53.333336%,68.235296%,27.058825%);fill-opacity:1;" d="M 13 27 C 11.894531 27 11 27.894531 11 29 C 11 30.105469 11.894531 31 13 31 C 14.105469 31 15 30.105469 15 29 C 15 27.894531 14.105469 27 13 27 Z M 13 27 "/>
<path style=" stroke:none;fill-rule:nonzero;fill:rgb(94.509804%,73.725492%,9.803922%);fill-opacity:1;" d="M 77 12 C 76.449219 12 76 12.449219 76 13 C 76 13.550781 76.449219 14 77 14 C 77.550781 14 78 13.550781 78 13 C 78 12.449219 77.550781 12 77 12 Z M 83 11 C 80.789062 11 79 12.789062 79 15 C 79 17.210938 80.789062 19 83 19 C 85.210938 19 87 17.210938 87 15 C 87 12.789062 85.210938 11 83 11 Z M 83 11 "/>
<path style=" stroke:none;fill-rule:nonzero;fill:rgb(53.333336%,68.235296%,27.058825%);fill-opacity:1;" d="M 87 22 C 85.894531 22 85 22.894531 85 24 C 85 25.105469 85.894531 26 87 26 C 88.105469 26 89 25.105469 89 24 C 89 22.894531 88.105469 22 87 22 Z M 87 22 "/>
<path style=" stroke:none;fill-rule:nonzero;fill:rgb(98.431373%,80.392158%,34.901962%);fill-opacity:1;" d="M 81 74 C 79.894531 74 79 74.894531 79 76 C 79 77.105469 79.894531 78 81 78 C 82.105469 78 83 77.105469 83 76 C 83 74.894531 82.105469 74 81 74 Z M 15 59 C 12.789062 59 11 60.789062 11 63 C 11 65.210938 12.789062 67 15 67 C 17.210938 67 19 65.210938 19 63 C 19 60.789062 17.210938 59 15 59 Z M 15 59 "/>
<path style=" stroke:none;fill-rule:nonzero;fill:rgb(53.333336%,68.235296%,27.058825%);fill-opacity:1;" d="M 25 85 C 23.894531 85 23 85.894531 23 87 C 23 88.105469 23.894531 89 25 89 C 26.105469 89 27 88.105469 27 87 C 27 85.894531 26.105469 85 25 85 Z M 25 85 "/>
<path style=" stroke:none;fill-rule:nonzero;fill:rgb(100%,100%,100%);fill-opacity:1;" d="M 18.5 51 C 17.121094 51 16 52.121094 16 53.5 C 16 54.878906 17.121094 56 18.5 56 C 19.878906 56 21 54.878906 21 53.5 C 21 52.121094 19.878906 51 18.5 51 Z M 18.5 51 "/>
<path style=" stroke:none;fill-rule:nonzero;fill:rgb(94.509804%,73.725492%,9.803922%);fill-opacity:1;" d="M 21 66 C 20.449219 66 20 66.449219 20 67 C 20 67.550781 20.449219 68 21 68 C 21.550781 68 22 67.550781 22 67 C 22 66.449219 21.550781 66 21 66 Z M 21 66 "/>
<path style=" stroke:none;fill-rule:nonzero;fill:rgb(100%,100%,100%);fill-opacity:1;" d="M 80 33 C 79.449219 33 79 33.449219 79 34 C 79 34.550781 79.449219 35 80 35 C 80.550781 35 81 34.550781 81 34 C 81 33.449219 80.550781 33 80 33 Z M 80 33 "/>
<path style=" stroke:none;fill-rule:nonzero;fill:rgb(53.333336%,68.235296%,27.058825%);fill-opacity:1;" d="M 50 26.042969 C 36.769531 26.042969 26.042969 36.769531 26.042969 50 C 26.042969 63.230469 36.769531 73.957031 50 73.957031 C 63.230469 73.957031 73.957031 63.230469 73.957031 50 C 73.957031 36.769531 63.230469 26.042969 50 26.042969 Z M 50 26.042969 "/>
<path style=" stroke:none;fill-rule:nonzero;fill:rgb(27.843139%,16.862746%,16.078432%);fill-opacity:1;" d="M 50 26.398438 C 63.011719 26.398438 73.601562 36.988281 73.601562 50 C 73.601562 63.011719 63.011719 73.601562 50 73.601562 C 36.988281 73.601562 26.398438 63.011719 26.398438 50 C 26.398438 36.988281 36.988281 26.398438 50 26.398438 M 50 25 C 36.191406 25 25 36.191406 25 50 C 25 63.808594 36.191406 75 50 75 C 63.808594 75 75 63.808594 75 50 C 75 36.191406 63.808594 25 50 25 Z M 50 25 "/>
<path style=" stroke:none;fill-rule:nonzero;fill:rgb(99.215686%,98.823529%,93.725491%);fill-opacity:1;" d="M 50 30.5 C 39.230469 30.5 30.5 39.230469 30.5 50 C 30.5 60.769531 39.230469 69.5 50 69.5 C 60.769531 69.5 69.5 60.769531 69.5 50 C 69.5 39.230469 60.769531 30.5 50 30.5 Z M 50 30.5 "/>
<path style=" stroke:none;fill-rule:nonzero;fill:rgb(27.843139%,16.862746%,16.078432%);fill-opacity:1;" d="M 69.761719 46.953125 C 69.71875 46.679688 69.464844 46.492188 69.191406 46.535156 C 68.917969 46.578125 68.730469 46.832031 68.773438 47.105469 C 69.703125 53.082031 67.71875 59.1875 63.464844 63.441406 C 56.046875 70.851562 43.980469 70.851562 36.5625 63.441406 C 29.144531 56.03125 29.144531 43.96875 36.5625 36.558594 C 43.980469 29.148438 56.046875 29.148438 63.464844 36.558594 C 64.242188 37.335938 64.957031 38.199219 65.652344 39.199219 C 65.808594 39.425781 66.121094 39.484375 66.347656 39.324219 C 66.574219 39.171875 66.632812 38.855469 66.472656 38.628906 C 65.746094 37.578125 64.992188 36.671875 64.171875 35.851562 C 56.363281 28.050781 43.660156 28.050781 35.855469 35.851562 C 28.046875 43.652344 28.046875 56.347656 35.855469 64.148438 C 43.660156 71.949219 56.363281 71.949219 64.171875 64.148438 C 68.652344 59.671875 70.742188 53.242188 69.761719 46.953125 Z M 69.761719 46.953125 "/>
<path style=" stroke:none;fill-rule:nonzero;fill:rgb(27.843139%,16.862746%,16.078432%);fill-opacity:1;" d="M 67.570312 42.796875 C 67.675781 43.050781 67.96875 43.175781 68.222656 43.070312 C 68.476562 42.964844 68.601562 42.671875 68.492188 42.417969 C 68.179688 41.652344 67.886719 41.023438 67.566406 40.441406 C 67.4375 40.195312 67.132812 40.109375 66.890625 40.238281 C 66.847656 40.261719 66.808594 40.292969 66.773438 40.324219 C 66.621094 40.480469 66.578125 40.71875 66.6875 40.917969 C 66.988281 41.46875 67.269531 42.066406 67.570312 42.796875 Z M 67.570312 42.796875 "/>
<path style=" stroke:none;fill-rule:nonzero;fill:rgb(53.333336%,68.235296%,27.058825%);fill-opacity:1;" d="M 41 48.375 C 40.566406 48.375 40.15625 48.542969 39.851562 48.851562 C 39.542969 49.15625 39.375 49.566406 39.375 50 C 39.375 50.433594 39.542969 50.84375 39.851562 51.148438 L 46.851562 58.148438 C 47.15625 58.457031 47.566406 58.625 48 58.625 L 48 59 L 48.03125 58.625 C 48.476562 58.617188 48.898438 58.425781 49.199219 58.097656 L 60.199219 46.097656 C 60.492188 45.777344 60.640625 45.363281 60.625 44.929688 C 60.605469 44.496094 60.417969 44.097656 60.097656 43.804688 C 59.777344 43.511719 59.371094 43.351562 58.929688 43.378906 C 58.496094 43.394531 58.097656 43.582031 57.804688 43.902344 L 47.949219 54.652344 L 42.148438 48.851562 C 41.84375 48.542969 41.433594 48.375 41 48.375 Z M 41 48.375 "/>
<path style=" stroke:none;fill-rule:nonzero;fill:rgb(27.843139%,16.862746%,16.078432%);fill-opacity:1;" d="M 59 43.75 C 59.3125 43.75 59.613281 43.867188 59.84375 44.078125 C 60.089844 44.304688 60.234375 44.613281 60.25 44.945312 C 60.261719 45.28125 60.148438 45.597656 59.921875 45.84375 L 48.921875 57.84375 C 48.691406 58.09375 48.367188 58.242188 48 58.25 C 47.664062 58.25 47.351562 58.121094 47.117188 57.882812 L 40.117188 50.882812 C 39.878906 50.648438 39.75 50.335938 39.75 50 C 39.75 49.664062 39.878906 49.351562 40.117188 49.117188 C 40.351562 48.878906 40.664062 48.75 41 48.75 C 41.335938 48.75 41.648438 48.878906 41.882812 49.117188 L 47.40625 54.640625 L 47.960938 55.191406 L 48.488281 54.617188 L 58.078125 44.15625 C 58.316406 43.894531 58.644531 43.75 59 43.75 M 59 43 C 58.460938 43 57.921875 43.21875 57.527344 43.648438 L 47.9375 54.109375 L 42.414062 48.585938 C 42.023438 48.195312 41.511719 48 41 48 C 40.488281 48 39.976562 48.195312 39.585938 48.585938 C 38.804688 49.367188 38.804688 50.632812 39.585938 51.414062 L 46.585938 58.414062 C 46.960938 58.789062 47.46875 59 48 59 C 48.015625 59 48.027344 59 48.042969 59 C 48.589844 58.988281 49.105469 58.753906 49.472656 58.351562 L 60.472656 46.351562 C 61.222656 45.539062 61.164062 44.273438 60.351562 43.527344 C 59.96875 43.175781 59.484375 43 59 43 Z M 59 43 "/>
<path style=" stroke:none;fill-rule:nonzero;fill:rgb(99.215686%,98.823529%,93.725491%);fill-opacity:1;" d="M 93.652344 78.652344 C 93.652344 86.9375 86.9375 93.652344 78.652344 93.652344 C 70.367188 93.652344 63.652344 86.9375 63.652344 78.652344 C 63.652344 70.367188 70.367188 63.652344 78.652344 63.652344 C 86.9375 63.652344 93.652344 70.367188 93.652344 78.652344 Z M 93.652344 78.652344 "/>
<path style=" stroke:none;fill-rule:nonzero;fill:rgb(27.843139%,16.862746%,16.078432%);fill-opacity:1;" d="M 78.652344 64.550781 C 86.425781 64.550781 92.753906 70.878906 92.753906 78.652344 C 92.753906 86.425781 86.425781 92.753906 78.652344 92.753906 C 70.878906 92.753906 64.550781 86.425781 64.550781 78.652344 C 64.550781 70.878906 70.878906 64.550781 78.652344 64.550781 M 78.652344 63.152344 C 70.09375 63.152344 63.152344 70.09375 63.152344 78.652344 C 63.152344 87.210938 70.09375 94.152344 78.652344 94.152344 C 87.210938 94.152344 94.152344 87.210938 94.152344 78.652344 C 94.152344 70.09375 87.210938 63.152344 78.652344 63.152344 Z M 78.652344 63.152344 "/>
<path style=" stroke:none;fill-rule:nonzero;fill:rgb(96.862745%,42.745098%,30.19608%);fill-opacity:1;" d="M 90.902344 78.652344 C 90.902344 85.417969 85.417969 90.902344 78.652344 90.902344 C 71.886719 90.902344 66.402344 85.417969 66.402344 78.652344 C 66.402344 71.886719 71.886719 66.402344 78.652344 66.402344 C 85.417969 66.402344 90.902344 71.886719 90.902344 78.652344 Z M 90.902344 78.652344 "/>
<path style=" stroke:none;fill-rule:nonzero;fill:rgb(94.509804%,53.333336%,40.784314%);fill-opacity:1;" d="M 78.652344 66.402344 C 71.898438 66.402344 66.402344 71.898438 66.402344 78.652344 C 66.402344 78.804688 66.417969 78.953125 66.425781 79.105469 C 67.601562 73.425781 72.621094 69.152344 78.652344 69.152344 C 84.683594 69.152344 89.703125 73.425781 90.878906 79.109375 C 90.886719 78.957031 90.902344 78.808594 90.902344 78.652344 C 90.902344 71.898438 85.40625 66.402344 78.652344 66.402344 Z M 78.652344 66.402344 "/>
<path style=" stroke:none;fill-rule:nonzero;fill:rgb(27.843139%,16.862746%,16.078432%);fill-opacity:1;" d="M 78.652344 66.652344 C 85.269531 66.652344 90.652344 72.035156 90.652344 78.652344 C 90.652344 85.269531 85.269531 90.652344 78.652344 90.652344 C 72.035156 90.652344 66.652344 85.269531 66.652344 78.652344 C 66.652344 72.035156 72.035156 66.652344 78.652344 66.652344 M 78.652344 66.152344 C 71.757812 66.152344 66.152344 71.761719 66.152344 78.652344 C 66.152344 85.542969 71.757812 91.152344 78.652344 91.152344 C 85.546875 91.152344 91.152344 85.542969 91.152344 78.652344 C 91.152344 71.761719 85.546875 66.152344 78.652344 66.152344 Z M 78.652344 66.152344 "/>
<path style=" stroke:none;fill-rule:nonzero;fill:rgb(27.843139%,16.862746%,16.078432%);fill-opacity:1;" d="M 75.152344 84.15625 L 75.152344 82.5625 C 75.152344 82.066406 75.339844 81.582031 75.710938 81.105469 C 76.085938 80.628906 76.535156 80.195312 77.066406 79.8125 L 78.683594 78.628906 C 79.230469 78.242188 79.695312 77.8125 80.078125 77.335938 C 80.464844 76.859375 80.65625 76.371094 80.65625 75.878906 C 80.65625 75.351562 80.480469 74.890625 80.128906 74.492188 C 79.777344 74.097656 79.273438 73.898438 78.617188 73.898438 C 78.0625 73.898438 77.609375 74.054688 77.257812 74.367188 C 76.90625 74.679688 76.730469 75.125 76.730469 75.714844 C 76.730469 75.859375 76.664062 75.988281 76.53125 76.097656 C 76.398438 76.210938 76.21875 76.265625 76 76.265625 C 75.578125 76.265625 75.367188 75.996094 75.367188 75.460938 C 75.367188 74.640625 75.679688 73.964844 76.308594 73.441406 C 76.9375 72.914062 77.707031 72.652344 78.617188 72.652344 C 79.597656 72.652344 80.414062 72.953125 81.066406 73.554688 C 81.722656 74.160156 82.050781 74.917969 82.050781 75.828125 C 82.050781 76.375 81.914062 76.902344 81.644531 77.40625 C 81.371094 77.914062 81.03125 78.34375 80.628906 78.691406 C 80.222656 79.046875 79.78125 79.394531 79.304688 79.746094 L 77.96875 80.6875 C 77.566406 80.960938 77.230469 81.261719 76.957031 81.59375 C 76.683594 81.921875 76.550781 82.246094 76.550781 82.5625 L 76.550781 83.40625 L 81.667969 83.40625 C 81.800781 83.40625 81.917969 83.464844 82.011719 83.585938 C 82.105469 83.703125 82.152344 83.851562 82.152344 84.027344 C 82.152344 84.191406 82.105469 84.339844 82.011719 84.464844 C 81.917969 84.589844 81.804688 84.652344 81.671875 84.652344 L 75.78125 84.652344 C 75.636719 84.652344 75.496094 84.605469 75.359375 84.511719 C 75.222656 84.417969 75.152344 84.300781 75.152344 84.15625 Z M 75.152344 84.15625 "/>
</g>
</svg>
