<?xml version="1.0" encoding="UTF-8"?>
<svg xmlns="http://www.w3.org/2000/svg" xmlns:xlink="http://www.w3.org/1999/xlink" viewBox="0 0 100 100" width="100px" height="100px">
<g id="surface299708">
<path style=" stroke:none;fill-rule:nonzero;fill:rgb(94.509804%,73.725492%,9.803922%);fill-opacity:1;" d="M 79 14 C 79 14.550781 78.550781 15 78 15 C 77.449219 15 77 14.550781 77 14 C 77 13.449219 77.449219 13 78 13 C 78.550781 13 79 13.449219 79 14 Z M 79 14 "/>
<path style=" stroke:none;fill-rule:nonzero;fill:rgb(90.196079%,92.941177%,71.764708%);fill-opacity:1;" d="M 88 50 C 88 70.988281 70.988281 88 50 88 C 29.011719 88 12 70.988281 12 50 C 12 29.011719 29.011719 12 50 12 C 70.988281 12 88 29.011719 88 50 Z M 88 50 "/>
<path style=" stroke:none;fill-rule:nonzero;fill:rgb(94.509804%,73.725492%,9.803922%);fill-opacity:1;" d="M 88 16 C 88 18.210938 86.210938 20 84 20 C 81.789062 20 80 18.210938 80 16 C 80 13.789062 81.789062 12 84 12 C 86.210938 12 88 13.789062 88 16 Z M 88 16 "/>
<path style=" stroke:none;fill-rule:nonzero;fill:rgb(53.333336%,68.235296%,27.058825%);fill-opacity:1;" d="M 16 26 C 16 27.105469 15.105469 28 14 28 C 12.894531 28 12 27.105469 12 26 C 12 24.894531 12.894531 24 14 24 C 15.105469 24 16 24.894531 16 26 Z M 16 26 "/>
<path style=" stroke:none;fill-rule:nonzero;fill:rgb(98.431373%,80.392158%,34.901962%);fill-opacity:1;" d="M 80 77 C 80 78.105469 79.105469 79 78 79 C 76.894531 79 76 78.105469 76 77 C 76 75.894531 76.894531 75 78 75 C 79.105469 75 80 75.894531 80 77 Z M 80 77 "/>
<path style=" stroke:none;fill-rule:nonzero;fill:rgb(98.431373%,80.392158%,34.901962%);fill-opacity:1;" d="M 21 78 C 21 80.210938 19.210938 82 17 82 C 14.789062 82 13 80.210938 13 78 C 13 75.789062 14.789062 74 17 74 C 19.210938 74 21 75.789062 21 78 Z M 21 78 "/>
<path style=" stroke:none;fill-rule:nonzero;fill:rgb(53.333336%,68.235296%,27.058825%);fill-opacity:1;" d="M 26 83 C 26 84.105469 25.105469 85 24 85 C 22.894531 85 22 84.105469 22 83 C 22 81.894531 22.894531 81 24 81 C 25.105469 81 26 81.894531 26 83 Z M 26 83 "/>
<path style=" stroke:none;fill-rule:nonzero;fill:rgb(100%,100%,100%);fill-opacity:1;" d="M 66.964844 78.515625 C 66.964844 79.886719 65.855469 81 64.484375 81 C 63.113281 81 62 79.886719 62 78.515625 C 62 77.144531 63.113281 76.035156 64.484375 76.035156 C 65.855469 76.035156 66.964844 77.144531 66.964844 78.515625 Z M 66.964844 78.515625 "/>
<path style=" stroke:none;fill-rule:nonzero;fill:rgb(100%,100%,100%);fill-opacity:1;" d="M 17 48 C 17 48.550781 16.550781 49 16 49 C 15.449219 49 15 48.550781 15 48 C 15 47.449219 15.449219 47 16 47 C 16.550781 47 17 47.449219 17 48 Z M 17 48 "/>
<path style=" stroke:none;fill-rule:nonzero;fill:rgb(94.509804%,73.725492%,9.803922%);fill-opacity:1;" d="M 87 31 C 87 31.550781 86.550781 32 86 32 C 85.449219 32 85 31.550781 85 31 C 85 30.449219 85.449219 30 86 30 C 86.550781 30 87 30.449219 87 31 Z M 87 31 "/>
<path style=" stroke:none;fill-rule:nonzero;fill:rgb(100%,100%,100%);fill-opacity:1;" d="M 86 45 C 86 46.105469 85.105469 47 84 47 C 82.894531 47 82 46.105469 82 45 C 82 43.894531 82.894531 43 84 43 C 85.105469 43 86 43.894531 86 45 Z M 86 45 "/>
<path style=" stroke:none;fill-rule:nonzero;fill:rgb(93.725491%,60.000002%,13.333334%);fill-opacity:1;" d="M 28.664062 70.121094 L 58.109375 57.382812 L 40.03125 39.304688 L 27.292969 68.75 C 26.917969 69.617188 27.796875 70.496094 28.664062 70.121094 Z M 28.664062 70.121094 "/>
<path style=" stroke:none;fill-rule:nonzero;fill:rgb(98.431373%,80.392158%,34.901962%);fill-opacity:1;" d="M 28.074219 69.339844 L 48.789062 49.925781 L 43.882812 45.019531 Z M 28.074219 69.339844 "/>
<path style=" stroke:none;fill-rule:nonzero;fill:rgb(27.843139%,16.862746%,16.078432%);fill-opacity:1;" d="M 52.597656 44.800781 C 57.59375 49.796875 60.21875 55.273438 58.460938 57.03125 C 56.703125 58.785156 51.230469 56.160156 46.234375 51.167969 C 41.238281 46.171875 38.613281 40.695312 40.371094 38.9375 C 42.128906 37.183594 47.601562 39.808594 52.597656 44.800781 Z M 52.597656 44.800781 "/>
<path style=" stroke:none;fill-rule:nonzero;fill:rgb(98.431373%,80.392158%,34.901962%);fill-opacity:1;" d="M 50.566406 46.070312 C 50.371094 45.878906 50.261719 45.609375 50.273438 45.316406 C 50.300781 44.761719 50.765625 44.335938 51.320312 44.363281 C 56.46875 44.605469 58.261719 43.695312 58.855469 42.886719 C 59.277344 42.3125 59.285156 41.480469 58.875 40.339844 C 58.21875 38.519531 58.605469 37.300781 59.046875 36.601562 C 59.746094 35.480469 61.007812 34.976562 61.953125 34.878906 C 62.207031 34.851562 62.492188 34.84375 62.792969 34.835938 C 63.628906 34.808594 64.488281 34.78125 64.898438 34.308594 C 65.242188 33.914062 65.359375 33.128906 65.246094 32.03125 C 65.054688 30.238281 65.730469 29.152344 66.335938 28.558594 C 68.121094 26.792969 71.304688 27.121094 71.660156 27.164062 C 72.210938 27.226562 72.601562 27.726562 72.535156 28.273438 C 72.46875 28.824219 71.972656 29.214844 71.425781 29.148438 C 70.714844 29.066406 68.671875 29.058594 67.734375 29.984375 C 67.3125 30.40625 67.148438 31.007812 67.234375 31.820312 C 67.414062 33.53125 67.144531 34.777344 66.40625 35.625 C 65.425781 36.753906 63.941406 36.800781 62.855469 36.835938 C 62.609375 36.839844 62.371094 36.847656 62.160156 36.871094 C 61.707031 36.917969 61.0625 37.15625 60.738281 37.664062 C 60.445312 38.136719 60.449219 38.808594 60.757812 39.660156 C 61.402344 41.453125 61.304688 42.9375 60.464844 44.074219 C 59.15625 45.84375 56.136719 46.589844 51.226562 46.359375 C 50.96875 46.347656 50.734375 46.238281 50.566406 46.070312 Z M 50.566406 46.070312 "/>
<path style=" stroke:none;fill-rule:nonzero;fill:rgb(53.333336%,68.235296%,27.058825%);fill-opacity:1;" d="M 45.675781 44.710938 C 45.445312 44.480469 45.332031 44.140625 45.40625 43.796875 C 45.417969 43.742188 46.527344 38.3125 44.25 35.046875 C 43.328125 33.726562 41.992188 32.945312 40.167969 32.679688 C 39.621094 32.597656 39.242188 32.089844 39.324219 31.542969 C 39.40625 30.996094 39.914062 30.617188 40.460938 30.699219 C 42.828125 31.046875 44.65625 32.125 45.894531 33.910156 C 48.664062 37.890625 47.414062 43.957031 47.359375 44.210938 C 47.246094 44.753906 46.714844 45.097656 46.175781 44.980469 C 45.980469 44.941406 45.808594 44.84375 45.675781 44.710938 Z M 45.675781 44.710938 "/>
<path style=" stroke:none;fill-rule:nonzero;fill:rgb(27.843139%,16.862746%,16.078432%);fill-opacity:1;" d="M 46.386719 45.253906 C 46.300781 45.253906 46.210938 45.246094 46.125 45.226562 C 45.886719 45.175781 45.671875 45.058594 45.5 44.886719 C 45.199219 44.585938 45.070312 44.160156 45.160156 43.746094 C 45.171875 43.691406 46.261719 38.371094 44.042969 35.191406 C 43.160156 33.925781 41.882812 33.183594 40.132812 32.925781 C 39.800781 32.878906 39.511719 32.703125 39.3125 32.433594 C 39.109375 32.167969 39.027344 31.835938 39.078125 31.507812 C 39.125 31.175781 39.300781 30.886719 39.566406 30.6875 C 39.835938 30.488281 40.167969 30.402344 40.496094 30.453125 C 42.9375 30.808594 44.820312 31.925781 46.101562 33.765625 C 48.933594 37.84375 47.660156 44.003906 47.605469 44.265625 C 47.539062 44.589844 47.34375 44.871094 47.066406 45.050781 C 46.859375 45.1875 46.625 45.253906 46.386719 45.253906 Z M 40.3125 30.9375 C 40.152344 30.9375 39.996094 30.988281 39.867188 31.085938 C 39.707031 31.207031 39.601562 31.382812 39.570312 31.578125 C 39.542969 31.777344 39.59375 31.976562 39.714844 32.136719 C 39.832031 32.296875 40.007812 32.402344 40.203125 32.429688 C 42.101562 32.710938 43.488281 33.515625 44.453125 34.902344 C 46.8125 38.285156 45.660156 43.792969 45.648438 43.847656 C 45.597656 44.097656 45.671875 44.351562 45.855469 44.535156 C 45.957031 44.636719 46.085938 44.707031 46.226562 44.734375 C 46.425781 44.777344 46.625 44.738281 46.792969 44.632812 C 46.960938 44.523438 47.074219 44.355469 47.117188 44.160156 C 47.171875 43.90625 48.402344 37.953125 45.691406 34.054688 C 44.492188 32.328125 42.71875 31.285156 40.421875 30.945312 C 40.386719 30.941406 40.347656 30.9375 40.3125 30.9375 Z M 40.3125 30.9375 "/>
<path style=" stroke:none;fill-rule:nonzero;fill:rgb(0%,64.705884%,64.705884%);fill-opacity:1;" d="M 52.511719 51.3125 C 52.386719 51.1875 52.292969 51.023438 52.246094 50.835938 C 52.121094 50.296875 52.453125 49.761719 52.992188 49.632812 C 53.480469 49.519531 65.074219 46.839844 70.472656 50.515625 C 72.007812 51.558594 72.921875 53.011719 73.183594 54.824219 C 73.261719 55.371094 72.882812 55.878906 72.335938 55.957031 C 71.789062 56.035156 71.28125 55.65625 71.203125 55.113281 C 71.023438 53.859375 70.414062 52.894531 69.347656 52.167969 C 64.675781 48.988281 53.5625 51.554688 53.449219 51.582031 C 53.101562 51.660156 52.75 51.550781 52.511719 51.3125 Z M 52.511719 51.3125 "/>
<path style=" stroke:none;fill-rule:nonzero;fill:rgb(27.843139%,16.862746%,16.078432%);fill-opacity:1;" d="M 72.191406 56.21875 C 71.921875 56.21875 71.664062 56.132812 71.445312 55.96875 C 71.179688 55.769531 71.007812 55.476562 70.957031 55.144531 C 70.785156 53.964844 70.214844 53.058594 69.207031 52.375 C 64.636719 49.261719 53.617188 51.796875 53.507812 51.824219 C 53.085938 51.925781 52.644531 51.796875 52.335938 51.488281 C 52.171875 51.324219 52.058594 51.117188 52.003906 50.890625 C 51.847656 50.222656 52.261719 49.546875 52.933594 49.390625 C 53.429688 49.273438 65.136719 46.578125 70.613281 50.304688 C 72.210938 51.394531 73.160156 52.902344 73.433594 54.785156 C 73.480469 55.117188 73.398438 55.445312 73.195312 55.714844 C 72.996094 55.980469 72.703125 56.15625 72.375 56.203125 C 72.3125 56.210938 72.253906 56.21875 72.191406 56.21875 Z M 62.140625 50.332031 C 64.882812 50.332031 67.664062 50.71875 69.488281 51.960938 C 70.617188 52.726562 71.261719 53.746094 71.453125 55.074219 C 71.480469 55.273438 71.585938 55.449219 71.746094 55.566406 C 71.90625 55.6875 72.105469 55.734375 72.304688 55.707031 C 72.503906 55.679688 72.675781 55.574219 72.796875 55.414062 C 72.917969 55.253906 72.96875 55.058594 72.9375 54.859375 C 72.6875 53.117188 71.808594 51.722656 70.332031 50.71875 C 65.039062 47.113281 53.539062 49.761719 53.050781 49.875 C 52.648438 49.972656 52.398438 50.375 52.492188 50.777344 C 52.523438 50.914062 52.59375 51.039062 52.691406 51.136719 C 52.878906 51.320312 53.136719 51.394531 53.394531 51.335938 C 53.464844 51.320312 57.75 50.332031 62.140625 50.332031 Z M 62.140625 50.332031 "/>
<path style=" stroke:none;fill-rule:nonzero;fill:rgb(53.333336%,68.235296%,27.058825%);fill-opacity:1;" d="M 52.074219 71.664062 C 51.296875 70.882812 50.644531 69.566406 50.132812 67.726562 C 49.984375 67.195312 50.296875 66.644531 50.828125 66.496094 C 51.359375 66.347656 51.910156 66.65625 52.058594 67.191406 C 52.78125 69.789062 53.617188 70.503906 53.957031 70.515625 C 54.3125 70.53125 55.085938 69.902344 55.757812 68.109375 C 56.644531 65.738281 57.941406 65.222656 58.875 65.210938 C 60.320312 65.1875 61.457031 66.355469 61.800781 67.195312 C 61.863281 67.347656 61.945312 67.609375 62.039062 67.933594 C 62.695312 70.195312 63.144531 70.585938 63.355469 70.621094 C 63.363281 70.621094 63.941406 70.6875 65.171875 68.847656 C 66.503906 66.859375 67.929688 65.9375 69.402344 66.105469 C 71.859375 66.382812 73.160156 69.621094 73.300781 69.988281 C 73.5 70.503906 73.238281 71.078125 72.726562 71.277344 C 72.210938 71.476562 71.632812 71.21875 71.433594 70.703125 C 71.121094 69.898438 70.164062 68.199219 69.175781 68.09375 C 68.523438 68.019531 67.691406 68.683594 66.835938 69.960938 C 65.515625 71.925781 64.277344 72.789062 63.050781 72.597656 C 61.226562 72.3125 60.53125 69.921875 60.117188 68.488281 C 60.050781 68.257812 59.996094 68.066406 59.953125 67.957031 C 59.84375 67.6875 59.339844 67.203125 58.910156 67.210938 C 58.480469 67.214844 58.003906 67.8125 57.632812 68.808594 C 56.710938 71.265625 55.375 72.578125 53.871094 72.511719 C 53.210938 72.484375 52.613281 72.203125 52.074219 71.664062 Z M 52.074219 71.664062 "/>
<path style=" stroke:none;fill-rule:nonzero;fill:rgb(18.431373%,29.803923%,39.607844%);fill-opacity:1;" d="M 28.765625 46.894531 C 28.722656 46.851562 28.683594 46.804688 28.644531 46.753906 C 28.335938 46.296875 28.449219 45.675781 28.90625 45.363281 C 32.332031 43.015625 32.285156 42.015625 32.269531 41.910156 C 32.257812 41.816406 32.117188 41.488281 30.945312 41.132812 C 29.878906 40.808594 28.632812 40.039062 28.339844 38.855469 C 28.222656 38.390625 28.167969 37.46875 29.117188 36.523438 C 29.328125 36.308594 29.554688 36.105469 29.773438 35.914062 C 30.066406 35.652344 30.558594 35.214844 30.589844 35.039062 C 30.589844 35.039062 30.535156 34.664062 29.269531 33.820312 C 28.042969 33.003906 27.761719 31.996094 27.738281 31.296875 C 27.667969 28.90625 30.542969 26.664062 30.871094 26.414062 C 31.3125 26.082031 31.9375 26.171875 32.269531 26.609375 C 32.605469 27.046875 32.519531 27.675781 32.078125 28.007812 C 31.300781 28.601562 29.707031 30.164062 29.738281 31.238281 C 29.746094 31.453125 29.820312 31.78125 30.378906 32.152344 C 31.84375 33.128906 32.523438 33.976562 32.585938 34.90625 C 32.664062 36.019531 31.835938 36.757812 31.101562 37.40625 C 30.914062 37.574219 30.71875 37.75 30.53125 37.9375 C 30.390625 38.074219 30.253906 38.261719 30.277344 38.367188 C 30.328125 38.578125 30.796875 38.996094 31.53125 39.21875 C 32.140625 39.402344 33.996094 39.972656 34.246094 41.605469 C 34.488281 43.160156 33.148438 44.878906 30.035156 47.011719 C 29.632812 47.289062 29.097656 47.230469 28.765625 46.894531 Z M 28.765625 46.894531 "/>
<path style=" stroke:none;fill-rule:nonzero;fill:rgb(27.843139%,16.862746%,16.078432%);fill-opacity:1;" d="M 28.019531 69.621094 C 27.972656 69.621094 27.925781 69.609375 27.882812 69.582031 C 27.765625 69.507812 27.734375 69.351562 27.808594 69.234375 L 34.886719 58.296875 C 34.960938 58.179688 35.117188 58.148438 35.234375 58.222656 C 35.347656 58.296875 35.382812 58.453125 35.308594 58.566406 L 28.226562 69.507812 C 28.179688 69.582031 28.101562 69.621094 28.019531 69.621094 Z M 28.019531 69.621094 "/>
<path style=" stroke:none;fill-rule:nonzero;fill:rgb(27.843139%,16.862746%,16.078432%);fill-opacity:1;" d="M 36.519531 56.480469 C 36.472656 56.480469 36.425781 56.46875 36.386719 56.441406 C 36.269531 56.363281 36.234375 56.210938 36.3125 56.09375 L 39.300781 51.472656 C 39.375 51.355469 39.53125 51.324219 39.648438 51.398438 C 39.761719 51.472656 39.796875 51.628906 39.722656 51.746094 L 36.730469 56.367188 C 36.683594 56.4375 36.605469 56.480469 36.519531 56.480469 Z M 36.519531 56.480469 "/>
<path style=" stroke:none;fill-rule:nonzero;fill:rgb(27.843139%,16.862746%,16.078432%);fill-opacity:1;" d="M 40.9375 49.65625 C 40.890625 49.65625 40.84375 49.644531 40.800781 49.617188 C 40.6875 49.539062 40.652344 49.386719 40.726562 49.269531 L 42.878906 45.945312 C 42.953125 45.828125 43.109375 45.796875 43.222656 45.871094 C 43.339844 45.945312 43.371094 46.101562 43.296875 46.21875 L 41.148438 49.542969 C 41.101562 49.613281 41.019531 49.65625 40.9375 49.65625 Z M 40.9375 49.65625 "/>
<path style=" stroke:none;fill-rule:nonzero;fill:rgb(27.843139%,16.862746%,16.078432%);fill-opacity:1;" d="M 40.363281 41.054688 L 56.359375 57.050781 L 28.246094 69.210938 L 28.210938 69.144531 L 40.363281 41.054688 M 40.03125 39.304688 L 27.292969 68.75 C 26.980469 69.476562 27.542969 70.210938 28.246094 70.210938 C 28.382812 70.210938 28.523438 70.179688 28.664062 70.121094 L 58.109375 57.382812 Z M 40.03125 39.304688 "/>
<path style=" stroke:none;fill-rule:nonzero;fill:rgb(27.843139%,16.862746%,16.078432%);fill-opacity:1;" d="M 28.855469 68.871094 C 28.789062 68.871094 28.722656 68.84375 28.675781 68.792969 C 28.578125 68.691406 28.585938 68.53125 28.6875 68.4375 L 39.859375 57.960938 C 39.960938 57.867188 40.117188 57.871094 40.214844 57.972656 C 40.308594 58.070312 40.304688 58.230469 40.203125 58.324219 L 29.027344 68.804688 C 28.980469 68.847656 28.917969 68.871094 28.855469 68.871094 Z M 28.855469 68.871094 "/>
<path style=" stroke:none;fill-rule:nonzero;fill:rgb(27.843139%,16.862746%,16.078432%);fill-opacity:1;" d="M 42.085938 56.46875 C 42.019531 56.46875 41.949219 56.441406 41.902344 56.390625 C 41.808594 56.289062 41.8125 56.132812 41.914062 56.035156 L 47.113281 51.160156 C 47.214844 51.066406 47.371094 51.070312 47.46875 51.171875 C 47.5625 51.269531 47.558594 51.429688 47.457031 51.523438 L 42.253906 56.402344 C 42.207031 56.445312 42.144531 56.46875 42.085938 56.46875 Z M 42.085938 56.46875 "/>
<path style=" stroke:none;fill-rule:nonzero;fill:rgb(51.372552%,80.000001%,71.764708%);fill-opacity:1;" d="M 54 34.5 C 54 35.328125 53.328125 36 52.5 36 C 51.671875 36 51 35.328125 51 34.5 C 51 33.671875 51.671875 33 52.5 33 C 53.328125 33 54 33.671875 54 34.5 Z M 54 34.5 "/>
<path style=" stroke:none;fill-rule:nonzero;fill:rgb(27.843139%,16.862746%,16.078432%);fill-opacity:1;" d="M 52.5 36.25 C 51.535156 36.25 50.75 35.464844 50.75 34.5 C 50.75 33.535156 51.535156 32.75 52.5 32.75 C 53.464844 32.75 54.25 33.535156 54.25 34.5 C 54.25 35.464844 53.464844 36.25 52.5 36.25 Z M 52.5 33.25 C 51.8125 33.25 51.25 33.8125 51.25 34.5 C 51.25 35.1875 51.8125 35.75 52.5 35.75 C 53.1875 35.75 53.75 35.1875 53.75 34.5 C 53.75 33.8125 53.1875 33.25 52.5 33.25 Z M 52.5 33.25 "/>
<path style=" stroke:none;fill-rule:nonzero;fill:rgb(53.333336%,68.235296%,27.058825%);fill-opacity:1;" d="M 59 26 C 59 27.105469 58.105469 28 57 28 C 55.894531 28 55 27.105469 55 26 C 55 24.894531 55.894531 24 57 24 C 58.105469 24 59 24.894531 59 26 Z M 59 26 "/>
<path style=" stroke:none;fill-rule:nonzero;fill:rgb(27.843139%,16.862746%,16.078432%);fill-opacity:1;" d="M 57 28.25 C 55.761719 28.25 54.75 27.242188 54.75 26 C 54.75 24.757812 55.761719 23.75 57 23.75 C 58.238281 23.75 59.25 24.757812 59.25 26 C 59.25 27.242188 58.238281 28.25 57 28.25 Z M 57 24.25 C 56.035156 24.25 55.25 25.035156 55.25 26 C 55.25 26.964844 56.035156 27.75 57 27.75 C 57.964844 27.75 58.75 26.964844 58.75 26 C 58.75 25.035156 57.964844 24.25 57 24.25 Z M 57 24.25 "/>
<path style=" stroke:none;fill-rule:nonzero;fill:rgb(53.333336%,68.235296%,27.058825%);fill-opacity:1;" d="M 69 41.5 C 69 42.328125 68.328125 43 67.5 43 C 66.671875 43 66 42.328125 66 41.5 C 66 40.671875 66.671875 40 67.5 40 C 68.328125 40 69 40.671875 69 41.5 Z M 69 41.5 "/>
<path style=" stroke:none;fill-rule:nonzero;fill:rgb(27.843139%,16.862746%,16.078432%);fill-opacity:1;" d="M 67.5 43.25 C 66.535156 43.25 65.75 42.464844 65.75 41.5 C 65.75 40.535156 66.535156 39.75 67.5 39.75 C 68.464844 39.75 69.25 40.535156 69.25 41.5 C 69.25 42.464844 68.464844 43.25 67.5 43.25 Z M 67.5 40.25 C 66.8125 40.25 66.25 40.8125 66.25 41.5 C 66.25 42.1875 66.8125 42.75 67.5 42.75 C 68.1875 42.75 68.75 42.1875 68.75 41.5 C 68.75 40.8125 68.1875 40.25 67.5 40.25 Z M 67.5 40.25 "/>
<path style=" stroke:none;fill-rule:nonzero;fill:rgb(18.431373%,29.803923%,39.607844%);fill-opacity:1;" d="M 77 44 C 77 45.105469 76.105469 46 75 46 C 73.894531 46 73 45.105469 73 44 C 73 42.894531 73.894531 42 75 42 C 76.105469 42 77 42.894531 77 44 Z M 77 44 "/>
<path style=" stroke:none;fill-rule:nonzero;fill:rgb(27.843139%,16.862746%,16.078432%);fill-opacity:1;" d="M 75 46.25 C 73.761719 46.25 72.75 45.242188 72.75 44 C 72.75 42.757812 73.761719 41.75 75 41.75 C 76.238281 41.75 77.25 42.757812 77.25 44 C 77.25 45.242188 76.238281 46.25 75 46.25 Z M 75 42.25 C 74.035156 42.25 73.25 43.035156 73.25 44 C 73.25 44.964844 74.035156 45.75 75 45.75 C 75.964844 45.75 76.75 44.964844 76.75 44 C 76.75 43.035156 75.964844 42.25 75 42.25 Z M 75 42.25 "/>
<path style=" stroke:none;fill-rule:nonzero;fill:rgb(98.431373%,80.392158%,34.901962%);fill-opacity:1;" d="M 66 57 C 66 58.105469 65.105469 59 64 59 C 62.894531 59 62 58.105469 62 57 C 62 55.894531 62.894531 55 64 55 C 65.105469 55 66 55.894531 66 57 Z M 66 57 "/>
<path style=" stroke:none;fill-rule:nonzero;fill:rgb(27.843139%,16.862746%,16.078432%);fill-opacity:1;" d="M 64 59.25 C 62.761719 59.25 61.75 58.242188 61.75 57 C 61.75 55.757812 62.761719 54.75 64 54.75 C 65.238281 54.75 66.25 55.757812 66.25 57 C 66.25 58.242188 65.238281 59.25 64 59.25 Z M 64 55.25 C 63.035156 55.25 62.25 56.035156 62.25 57 C 62.25 57.964844 63.035156 58.75 64 58.75 C 64.964844 58.75 65.75 57.964844 65.75 57 C 65.75 56.035156 64.964844 55.25 64 55.25 Z M 64 55.25 "/>
<path style=" stroke:none;fill-rule:nonzero;fill:rgb(47.058824%,62.7451%,81.176472%);fill-opacity:1;" d="M 74 61 C 74 62.105469 73.105469 63 72 63 C 70.894531 63 70 62.105469 70 61 C 70 59.894531 70.894531 59 72 59 C 73.105469 59 74 59.894531 74 61 Z M 74 61 "/>
<path style=" stroke:none;fill-rule:nonzero;fill:rgb(27.843139%,16.862746%,16.078432%);fill-opacity:1;" d="M 72 63.25 C 70.761719 63.25 69.75 62.242188 69.75 61 C 69.75 59.757812 70.761719 58.75 72 58.75 C 73.238281 58.75 74.25 59.757812 74.25 61 C 74.25 62.242188 73.238281 63.25 72 63.25 Z M 72 59.25 C 71.035156 59.25 70.25 60.035156 70.25 61 C 70.25 61.964844 71.035156 62.75 72 62.75 C 72.964844 62.75 73.75 61.964844 73.75 61 C 73.75 60.035156 72.964844 59.25 72 59.25 Z M 72 59.25 "/>
<path style=" stroke:none;fill-rule:nonzero;fill:rgb(47.058824%,62.7451%,81.176472%);fill-opacity:1;" d="M 50 23 C 50 24.105469 49.105469 25 48 25 C 46.894531 25 46 24.105469 46 23 C 46 21.894531 46.894531 21 48 21 C 49.105469 21 50 21.894531 50 23 Z M 50 23 "/>
<path style=" stroke:none;fill-rule:nonzero;fill:rgb(27.843139%,16.862746%,16.078432%);fill-opacity:1;" d="M 48 25.25 C 46.761719 25.25 45.75 24.242188 45.75 23 C 45.75 21.757812 46.761719 20.75 48 20.75 C 49.238281 20.75 50.25 21.757812 50.25 23 C 50.25 24.242188 49.238281 25.25 48 25.25 Z M 48 21.25 C 47.035156 21.25 46.25 22.035156 46.25 23 C 46.25 23.964844 47.035156 24.75 48 24.75 C 48.964844 24.75 49.75 23.964844 49.75 23 C 49.75 22.035156 48.964844 21.25 48 21.25 Z M 48 21.25 "/>
<path style=" stroke:none;fill-rule:nonzero;fill:rgb(98.431373%,80.392158%,34.901962%);fill-opacity:1;" d="M 27.5 54 C 27.5 55.378906 26.378906 56.5 25 56.5 C 23.621094 56.5 22.5 55.378906 22.5 54 C 22.5 52.621094 23.621094 51.5 25 51.5 C 26.378906 51.5 27.5 52.621094 27.5 54 Z M 27.5 54 "/>
<path style=" stroke:none;fill-rule:nonzero;fill:rgb(27.843139%,16.862746%,16.078432%);fill-opacity:1;" d="M 25 56.75 C 23.484375 56.75 22.25 55.515625 22.25 54 C 22.25 52.484375 23.484375 51.25 25 51.25 C 26.515625 51.25 27.75 52.484375 27.75 54 C 27.75 55.515625 26.515625 56.75 25 56.75 Z M 25 51.75 C 23.761719 51.75 22.75 52.757812 22.75 54 C 22.75 55.242188 23.761719 56.25 25 56.25 C 26.238281 56.25 27.25 55.242188 27.25 54 C 27.25 52.757812 26.238281 51.75 25 51.75 Z M 25 51.75 "/>
<path style=" stroke:none;fill-rule:nonzero;fill:rgb(27.843139%,16.862746%,16.078432%);fill-opacity:1;" d="M 63.761719 35.027344 C 63.636719 35.027344 63.527344 34.933594 63.511719 34.804688 C 63.496094 34.667969 63.59375 34.542969 63.730469 34.527344 C 64.226562 34.46875 64.539062 34.347656 64.710938 34.144531 C 65.003906 33.8125 65.105469 33.070312 64.996094 32.058594 C 64.980469 31.921875 65.082031 31.800781 65.21875 31.785156 C 65.359375 31.769531 65.480469 31.871094 65.492188 32.007812 C 65.617188 33.191406 65.484375 34.019531 65.089844 34.472656 C 64.746094 34.867188 64.183594 34.976562 63.789062 35.023438 C 63.78125 35.023438 63.769531 35.027344 63.761719 35.027344 Z M 63.761719 35.027344 "/>
<path style=" stroke:none;fill-rule:nonzero;fill:rgb(27.843139%,16.862746%,16.078432%);fill-opacity:1;" d="M 52.871094 46.652344 C 52.34375 46.652344 51.789062 46.636719 51.214844 46.609375 C 50.902344 46.597656 50.609375 46.464844 50.390625 46.246094 C 50.140625 45.996094 50.007812 45.652344 50.023438 45.304688 C 50.039062 44.96875 50.183594 44.660156 50.429688 44.4375 C 50.679688 44.210938 51 44.097656 51.332031 44.113281 C 56.628906 44.359375 58.195312 43.359375 58.652344 42.738281 C 59.023438 42.234375 59.019531 41.476562 58.640625 40.421875 C 57.949219 38.507812 58.367188 37.214844 58.835938 36.46875 C 59.582031 35.273438 60.921875 34.734375 61.925781 34.632812 C 62.0625 34.613281 62.1875 34.714844 62.199219 34.855469 C 62.214844 34.992188 62.113281 35.113281 61.976562 35.128906 C 61.089844 35.222656 59.910156 35.691406 59.257812 36.734375 C 58.847656 37.386719 58.488281 38.527344 59.109375 40.253906 C 59.550781 41.476562 59.53125 42.386719 59.054688 43.035156 C 58.136719 44.277344 55.53125 44.808594 51.304688 44.609375 C 50.886719 44.582031 50.539062 44.910156 50.523438 45.324219 C 50.511719 45.535156 50.589844 45.742188 50.742188 45.890625 C 50.875 46.023438 51.050781 46.101562 51.234375 46.109375 C 56.058594 46.335938 59.007812 45.621094 60.261719 43.925781 C 60.34375 43.8125 60.5 43.789062 60.609375 43.871094 C 60.722656 43.953125 60.746094 44.109375 60.664062 44.222656 C 59.464844 45.851562 56.90625 46.652344 52.871094 46.652344 Z M 52.871094 46.652344 "/>
<path style=" stroke:none;fill-rule:nonzero;fill:rgb(27.843139%,16.862746%,16.078432%);fill-opacity:1;" d="M 61.167969 42.363281 C 61.164062 42.363281 61.15625 42.363281 61.152344 42.363281 C 61.011719 42.355469 60.910156 42.234375 60.917969 42.097656 C 60.964844 41.398438 60.832031 40.605469 60.523438 39.746094 C 60.1875 38.816406 60.191406 38.070312 60.527344 37.53125 C 60.898438 36.945312 61.625 36.675781 62.132812 36.621094 C 62.34375 36.597656 62.578125 36.59375 62.824219 36.585938 C 63.886719 36.550781 65.304688 36.507812 66.21875 35.460938 C 66.90625 34.667969 67.15625 33.488281 66.984375 31.847656 C 66.890625 30.953125 67.078125 30.285156 67.558594 29.808594 C 68.773438 28.605469 71.425781 28.898438 71.453125 28.902344 C 71.855469 28.945312 72.238281 28.65625 72.285156 28.246094 C 72.3125 28.046875 72.257812 27.851562 72.132812 27.691406 C 72.007812 27.535156 71.832031 27.433594 71.632812 27.410156 C 71.289062 27.371094 68.214844 27.054688 66.511719 28.738281 C 66.121094 29.121094 65.835938 29.585938 65.660156 30.117188 C 65.617188 30.246094 65.480469 30.320312 65.347656 30.277344 C 65.214844 30.234375 65.144531 30.09375 65.1875 29.960938 C 65.386719 29.355469 65.710938 28.820312 66.160156 28.382812 C 68.03125 26.535156 71.320312 26.871094 71.695312 26.914062 C 72.023438 26.953125 72.320312 27.121094 72.527344 27.382812 C 72.730469 27.648438 72.824219 27.976562 72.785156 28.308594 C 72.703125 28.988281 72.082031 29.480469 71.398438 29.398438 C 70.765625 29.324219 68.777344 29.308594 67.914062 30.164062 C 67.546875 30.527344 67.40625 31.0625 67.484375 31.796875 C 67.671875 33.582031 67.382812 34.886719 66.597656 35.789062 C 65.539062 37 63.992188 37.050781 62.867188 37.085938 C 62.605469 37.09375 62.386719 37.097656 62.1875 37.121094 C 61.757812 37.164062 61.207031 37.394531 60.953125 37.800781 C 60.699219 38.203125 60.714844 38.800781 60.992188 39.578125 C 61.324219 40.503906 61.46875 41.363281 61.417969 42.132812 C 61.40625 42.261719 61.300781 42.363281 61.167969 42.363281 Z M 61.167969 42.363281 "/>
<path style=" stroke:none;fill-rule:nonzero;fill:rgb(27.843139%,16.862746%,16.078432%);fill-opacity:1;" d="M 30.589844 35.289062 C 30.476562 35.289062 30.375 35.214844 30.347656 35.101562 C 30.335938 35.070312 30.179688 34.726562 29.128906 34.027344 C 27.816406 33.152344 27.511719 32.0625 27.488281 31.304688 C 27.484375 31.167969 27.59375 31.050781 27.730469 31.046875 C 27.734375 31.046875 27.738281 31.046875 27.738281 31.046875 C 27.875 31.046875 27.984375 31.15625 27.988281 31.289062 C 28.007812 31.933594 28.269531 32.855469 29.40625 33.613281 C 30.601562 34.40625 30.800781 34.839844 30.832031 34.988281 C 30.859375 35.125 30.773438 35.257812 30.640625 35.285156 C 30.621094 35.289062 30.605469 35.289062 30.589844 35.289062 Z M 30.589844 35.289062 "/>
<path style=" stroke:none;fill-rule:nonzero;fill:rgb(27.843139%,16.862746%,16.078432%);fill-opacity:1;" d="M 29.472656 47.4375 C 29.148438 47.4375 28.828125 47.3125 28.585938 47.070312 C 28.53125 47.019531 28.484375 46.960938 28.441406 46.894531 C 28.050781 46.324219 28.195312 45.546875 28.761719 45.15625 C 32.050781 42.90625 32.023438 41.964844 32.023438 41.945312 C 32.019531 41.945312 31.902344 41.683594 30.875 41.371094 C 29.742188 41.027344 28.417969 40.203125 28.097656 38.914062 C 27.96875 38.402344 27.90625 37.382812 28.941406 36.347656 C 29.160156 36.128906 29.386719 35.925781 29.609375 35.726562 C 29.714844 35.636719 29.871094 35.648438 29.964844 35.75 C 30.054688 35.855469 30.042969 36.011719 29.941406 36.101562 C 29.726562 36.292969 29.503906 36.488281 29.296875 36.699219 C 28.433594 37.5625 28.480469 38.382812 28.582031 38.796875 C 28.851562 39.878906 30.019531 40.589844 31.023438 40.894531 C 31.960938 41.179688 32.460938 41.511719 32.519531 41.875 C 32.5625 42.152344 32.441406 43.242188 29.046875 45.570312 C 28.707031 45.804688 28.617188 46.273438 28.851562 46.613281 C 28.878906 46.652344 28.910156 46.6875 28.941406 46.71875 C 29.195312 46.976562 29.597656 47.011719 29.894531 46.808594 C 31.605469 45.636719 32.75 44.613281 33.398438 43.675781 C 33.476562 43.5625 33.632812 43.53125 33.746094 43.613281 C 33.859375 43.691406 33.886719 43.847656 33.808594 43.960938 C 33.125 44.949219 31.9375 46.015625 30.179688 47.21875 C 29.964844 47.363281 29.714844 47.4375 29.472656 47.4375 Z M 29.472656 47.4375 "/>
<path style=" stroke:none;fill-rule:nonzero;fill:rgb(27.843139%,16.862746%,16.078432%);fill-opacity:1;" d="M 34.246094 41.855469 C 34.125 41.855469 34.019531 41.769531 34 41.644531 C 33.773438 40.164062 32.027344 39.632812 31.457031 39.460938 C 30.734375 39.238281 30.125 38.796875 30.035156 38.429688 C 29.988281 38.242188 30.09375 38.015625 30.351562 37.761719 C 30.542969 37.570312 30.742188 37.390625 30.9375 37.222656 C 31.65625 36.578125 32.402344 35.917969 32.335938 34.925781 C 32.273438 34.078125 31.628906 33.289062 30.238281 32.363281 C 29.746094 32.035156 29.503906 31.671875 29.488281 31.246094 C 29.449219 29.984375 31.28125 28.300781 31.925781 27.8125 C 32.085938 27.691406 32.1875 27.515625 32.214844 27.316406 C 32.242188 27.117188 32.191406 26.921875 32.070312 26.761719 C 31.820312 26.429688 31.347656 26.367188 31.019531 26.613281 C 30.875 26.726562 29.574219 27.726562 28.726562 29.046875 C 28.65625 29.160156 28.5 29.195312 28.382812 29.121094 C 28.265625 29.046875 28.234375 28.890625 28.308594 28.773438 C 29.183594 27.410156 30.46875 26.402344 30.71875 26.214844 C 31.265625 25.800781 32.050781 25.910156 32.46875 26.457031 C 32.667969 26.722656 32.753906 27.050781 32.710938 27.382812 C 32.664062 27.714844 32.492188 28.007812 32.226562 28.207031 C 31.308594 28.90625 29.960938 30.351562 29.988281 31.230469 C 29.992188 31.332031 30 31.601562 30.515625 31.945312 C 32.046875 32.96875 32.761719 33.875 32.832031 34.890625 C 32.917969 36.125 32.003906 36.941406 31.265625 37.59375 C 31.082031 37.757812 30.886719 37.929688 30.703125 38.113281 C 30.582031 38.234375 30.527344 38.328125 30.519531 38.355469 C 30.554688 38.414062 30.929688 38.777344 31.597656 38.980469 C 32.246094 39.175781 34.214844 39.777344 34.492188 41.570312 C 34.511719 41.703125 34.421875 41.832031 34.28125 41.855469 C 34.273438 41.855469 34.261719 41.855469 34.246094 41.855469 Z M 34.246094 41.855469 "/>
<path style=" stroke:none;fill-rule:nonzero;fill:rgb(27.843139%,16.862746%,16.078432%);fill-opacity:1;" d="M 63.050781 72.847656 C 63.035156 72.847656 63.023438 72.847656 63.011719 72.84375 C 61.03125 72.535156 60.308594 70.050781 59.878906 68.5625 L 59.847656 68.453125 C 59.796875 68.28125 59.757812 68.140625 59.722656 68.054688 C 59.640625 67.855469 59.21875 67.460938 58.917969 67.460938 C 58.914062 67.460938 58.914062 67.460938 58.910156 67.460938 C 58.65625 67.464844 58.234375 67.910156 57.863281 68.898438 C 56.902344 71.464844 55.464844 72.839844 53.859375 72.765625 C 53.140625 72.734375 52.480469 72.421875 51.898438 71.84375 C 51.089844 71.03125 50.414062 69.671875 49.890625 67.796875 C 49.800781 67.472656 49.84375 67.136719 50.007812 66.84375 C 50.171875 66.554688 50.4375 66.34375 50.757812 66.253906 C 51.414062 66.070312 52.113281 66.460938 52.300781 67.125 C 53.019531 69.703125 53.796875 70.261719 53.964844 70.269531 C 54.175781 70.273438 54.867188 69.761719 55.523438 68.023438 C 55.570312 67.894531 55.710938 67.828125 55.84375 67.875 C 55.972656 67.925781 56.039062 68.070312 55.992188 68.199219 C 55.3125 70.007812 54.464844 70.789062 53.945312 70.769531 C 53.40625 70.742188 52.527344 69.808594 51.816406 67.257812 C 51.707031 66.859375 51.292969 66.625 50.890625 66.738281 C 50.699219 66.789062 50.539062 66.914062 50.441406 67.089844 C 50.34375 67.265625 50.316406 67.46875 50.371094 67.660156 C 50.871094 69.453125 51.503906 70.742188 52.253906 71.488281 C 52.75 71.984375 53.28125 72.238281 53.878906 72.265625 C 55.277344 72.332031 56.515625 71.070312 57.394531 68.726562 C 57.820312 67.597656 58.355469 66.96875 58.902344 66.960938 C 58.90625 66.960938 58.914062 66.960938 58.917969 66.960938 C 59.472656 66.960938 60.050781 67.542969 60.183594 67.863281 C 60.226562 67.960938 60.269531 68.121094 60.328125 68.316406 L 60.359375 68.421875 C 60.757812 69.796875 61.421875 72.09375 63.085938 72.351562 C 63.222656 72.371094 63.316406 72.5 63.296875 72.636719 C 63.277344 72.761719 63.171875 72.847656 63.050781 72.847656 Z M 63.050781 72.847656 "/>
<path style=" stroke:none;fill-rule:nonzero;fill:rgb(27.843139%,16.862746%,16.078432%);fill-opacity:1;" d="M 64.726562 72.460938 C 64.640625 72.460938 64.558594 72.417969 64.511719 72.339844 C 64.441406 72.222656 64.476562 72.070312 64.59375 71.996094 C 65.242188 71.597656 65.925781 70.863281 66.628906 69.820312 C 67.550781 68.441406 68.445312 67.757812 69.203125 67.84375 C 70.394531 67.976562 71.40625 69.9375 71.667969 70.613281 C 71.816406 70.996094 72.25 71.191406 72.636719 71.042969 C 73.023438 70.894531 73.214844 70.464844 73.070312 70.078125 C 72.933594 69.722656 71.691406 66.613281 69.375 66.351562 C 68.460938 66.25 67.566406 66.601562 66.699219 67.402344 C 66.597656 67.496094 66.4375 67.488281 66.347656 67.386719 C 66.253906 67.285156 66.257812 67.128906 66.359375 67.035156 C 67.339844 66.132812 68.375 65.734375 69.433594 65.855469 C 72.042969 66.152344 73.390625 69.519531 73.535156 69.902344 C 73.78125 70.542969 73.457031 71.265625 72.816406 71.511719 C 72.167969 71.757812 71.449219 71.433594 71.199219 70.792969 C 70.886719 69.980469 69.964844 68.429688 69.148438 68.339844 C 68.609375 68.28125 67.832031 68.917969 67.042969 70.097656 C 66.292969 71.21875 65.578125 71.976562 64.855469 72.421875 C 64.8125 72.445312 64.769531 72.460938 64.726562 72.460938 Z M 64.726562 72.460938 "/>
<path style=" stroke:none;fill-rule:nonzero;fill:rgb(27.843139%,16.862746%,16.078432%);fill-opacity:1;" d="M 63.371094 70.871094 C 63.347656 70.871094 63.328125 70.871094 63.3125 70.867188 C 63.003906 70.816406 62.511719 70.46875 61.796875 68.003906 C 61.714844 67.722656 61.632812 67.441406 61.570312 67.289062 C 61.25 66.515625 60.191406 65.421875 58.878906 65.460938 C 58.109375 65.472656 57.433594 65.84375 56.867188 66.5625 C 56.78125 66.671875 56.625 66.691406 56.515625 66.605469 C 56.40625 66.519531 56.386719 66.363281 56.472656 66.253906 C 57.300781 65.203125 58.234375 64.96875 58.871094 64.960938 C 58.886719 64.960938 58.902344 64.960938 58.917969 64.960938 C 60.457031 64.960938 61.660156 66.203125 62.03125 67.101562 C 62.097656 67.261719 62.175781 67.523438 62.277344 67.863281 C 62.953125 70.195312 63.363281 70.363281 63.394531 70.375 C 63.390625 70.367188 63.914062 70.273438 64.960938 68.707031 C 65.039062 68.59375 65.195312 68.5625 65.308594 68.636719 C 65.425781 68.714844 65.453125 68.871094 65.378906 68.984375 C 64.246094 70.675781 63.605469 70.871094 63.371094 70.871094 Z M 63.371094 70.871094 "/>
<path style=" stroke:none;fill-rule:nonzero;fill:rgb(99.215686%,98.823529%,93.725491%);fill-opacity:1;" d="M 95.054688 80.054688 C 95.054688 88.339844 88.339844 95.054688 80.054688 95.054688 C 71.769531 95.054688 65.054688 88.339844 65.054688 80.054688 C 65.054688 71.769531 71.769531 65.054688 80.054688 65.054688 C 88.339844 65.054688 95.054688 71.769531 95.054688 80.054688 Z M 95.054688 80.054688 "/>
<path style=" stroke:none;fill-rule:nonzero;fill:rgb(27.843139%,16.862746%,16.078432%);fill-opacity:1;" d="M 80.054688 65.957031 C 87.832031 65.957031 94.15625 72.28125 94.15625 80.054688 C 94.15625 87.832031 87.832031 94.15625 80.054688 94.15625 C 72.28125 94.15625 65.957031 87.832031 65.957031 80.054688 C 65.957031 72.28125 72.28125 65.957031 80.054688 65.957031 M 80.054688 64.554688 C 71.496094 64.554688 64.554688 71.496094 64.554688 80.054688 C 64.554688 88.617188 71.496094 95.554688 80.054688 95.554688 C 88.617188 95.554688 95.554688 88.617188 95.554688 80.054688 C 95.554688 71.496094 88.617188 64.554688 80.054688 64.554688 Z M 80.054688 64.554688 "/>
<path style=" stroke:none;fill-rule:nonzero;fill:rgb(96.862745%,42.745098%,30.19608%);fill-opacity:1;" d="M 92.304688 80.054688 C 92.304688 86.820312 86.820312 92.304688 80.054688 92.304688 C 73.289062 92.304688 67.804688 86.820312 67.804688 80.054688 C 67.804688 73.289062 73.289062 67.804688 80.054688 67.804688 C 86.820312 67.804688 92.304688 73.289062 92.304688 80.054688 Z M 92.304688 80.054688 "/>
<path style=" stroke:none;fill-rule:nonzero;fill:rgb(94.509804%,53.333336%,40.784314%);fill-opacity:1;" d="M 80.054688 67.804688 C 73.300781 67.804688 67.804688 73.300781 67.804688 80.054688 C 67.804688 80.207031 67.824219 80.355469 67.828125 80.507812 C 69.003906 74.828125 74.027344 70.554688 80.054688 70.554688 C 86.085938 70.554688 91.109375 74.832031 92.28125 80.511719 C 92.289062 80.359375 92.304688 80.210938 92.304688 80.054688 C 92.304688 73.300781 86.808594 67.804688 80.054688 67.804688 Z M 80.054688 67.804688 "/>
<path style=" stroke:none;fill-rule:nonzero;fill:rgb(27.843139%,16.862746%,16.078432%);fill-opacity:1;" d="M 80.054688 68.054688 C 86.671875 68.054688 92.054688 73.4375 92.054688 80.054688 C 92.054688 86.671875 86.671875 92.054688 80.054688 92.054688 C 73.4375 92.054688 68.054688 86.671875 68.054688 80.054688 C 68.054688 73.4375 73.4375 68.054688 80.054688 68.054688 M 80.054688 67.554688 C 73.164062 67.554688 67.554688 73.164062 67.554688 80.054688 C 67.554688 86.949219 73.164062 92.554688 80.054688 92.554688 C 86.949219 92.554688 92.554688 86.949219 92.554688 80.054688 C 92.554688 73.164062 86.949219 67.554688 80.054688 67.554688 Z M 80.054688 67.554688 "/>
<path style=" stroke:none;fill-rule:nonzero;fill:rgb(27.843139%,16.862746%,16.078432%);fill-opacity:1;" d="M 75.953125 82.777344 C 75.953125 82.65625 75.980469 82.550781 76.035156 82.460938 L 80.085938 74.449219 C 80.230469 74.1875 80.4375 74.054688 80.710938 74.054688 C 80.863281 74.054688 81.015625 74.109375 81.164062 74.210938 C 81.308594 74.316406 81.382812 74.445312 81.382812 74.597656 C 81.382812 74.675781 81.363281 74.75 81.316406 74.828125 L 77.722656 81.984375 L 80.5625 81.984375 L 80.5625 79.253906 C 80.5625 79.105469 80.628906 78.988281 80.765625 78.90625 C 80.90625 78.824219 81.066406 78.785156 81.25 78.785156 C 81.4375 78.785156 81.597656 78.824219 81.734375 78.90625 C 81.871094 78.988281 81.941406 79.101562 81.941406 79.253906 L 81.941406 81.984375 L 82.8125 81.984375 C 82.964844 81.984375 83.085938 82.050781 83.171875 82.1875 C 83.257812 82.320312 83.300781 82.476562 83.300781 82.65625 C 83.300781 82.824219 83.253906 82.980469 83.15625 83.121094 C 83.054688 83.257812 82.941406 83.328125 82.808594 83.328125 L 81.941406 83.328125 L 81.941406 85.566406 C 81.941406 85.71875 81.871094 85.839844 81.734375 85.925781 C 81.597656 86.011719 81.4375 86.054688 81.25 86.054688 C 81.066406 86.054688 80.902344 86.011719 80.765625 85.925781 C 80.628906 85.839844 80.5625 85.71875 80.5625 85.566406 L 80.5625 83.328125 L 76.457031 83.328125 C 76.304688 83.328125 76.179688 83.28125 76.085938 83.179688 C 75.996094 83.078125 75.953125 82.945312 75.953125 82.777344 Z M 75.953125 82.777344 "/>
</g>
</svg>
