<?xml version="1.0" encoding="UTF-8"?>
<svg xmlns="http://www.w3.org/2000/svg" xmlns:xlink="http://www.w3.org/1999/xlink" viewBox="0 0 100 100" width="100px" height="100px">
<g id="surface274173">
<path style=" stroke:none;fill-rule:nonzero;fill:rgb(94.509804%,73.725492%,9.803922%);fill-opacity:1;" d="M 77 12 C 76.449219 12 76 12.449219 76 13 C 76 13.550781 76.449219 14 77 14 C 77.550781 14 78 13.550781 78 13 C 78 12.449219 77.550781 12 77 12 Z M 77 12 "/>
<path style=" stroke:none;fill-rule:nonzero;fill:rgb(90.196079%,92.941177%,71.764708%);fill-opacity:1;" d="M 50 13 C 29.566406 13 13 29.566406 13 50 C 13 70.433594 29.566406 87 50 87 C 70.433594 87 87 70.433594 87 50 C 87 29.566406 70.433594 13 50 13 Z M 50 13 "/>
<path style=" stroke:none;fill-rule:nonzero;fill:rgb(94.509804%,73.725492%,9.803922%);fill-opacity:1;" d="M 83 11 C 80.789062 11 79 12.789062 79 15 C 79 17.210938 80.789062 19 83 19 C 85.210938 19 87 17.210938 87 15 C 87 12.789062 85.210938 11 83 11 Z M 83 11 "/>
<path style=" stroke:none;fill-rule:nonzero;fill:rgb(53.333336%,68.235296%,27.058825%);fill-opacity:1;" d="M 87 22 C 85.894531 22 85 22.894531 85 24 C 85 25.105469 85.894531 26 87 26 C 88.105469 26 89 25.105469 89 24 C 89 22.894531 88.105469 22 87 22 Z M 87 22 "/>
<path style=" stroke:none;fill-rule:nonzero;fill:rgb(98.431373%,80.392158%,34.901962%);fill-opacity:1;" d="M 81 74 C 79.894531 74 79 74.894531 79 76 C 79 77.105469 79.894531 78 81 78 C 82.105469 78 83 77.105469 83 76 C 83 74.894531 82.105469 74 81 74 Z M 15 59 C 12.789062 59 11 60.789062 11 63 C 11 65.210938 12.789062 67 15 67 C 17.210938 67 19 65.210938 19 63 C 19 60.789062 17.210938 59 15 59 Z M 15 59 "/>
<path style=" stroke:none;fill-rule:nonzero;fill:rgb(53.333336%,68.235296%,27.058825%);fill-opacity:1;" d="M 25 85 C 23.894531 85 23 85.894531 23 87 C 23 88.105469 23.894531 89 25 89 C 26.105469 89 27 88.105469 27 87 C 27 85.894531 26.105469 85 25 85 Z M 25 85 "/>
<path style=" stroke:none;fill-rule:nonzero;fill:rgb(100%,100%,100%);fill-opacity:1;" d="M 18.5 49 C 17.121094 49 16 50.121094 16 51.5 C 16 52.878906 17.121094 54 18.5 54 C 19.878906 54 21 52.878906 21 51.5 C 21 50.121094 19.878906 49 18.5 49 Z M 79.5 32 C 78.671875 32 78 32.671875 78 33.5 C 78 34.328125 78.671875 35 79.5 35 C 80.328125 35 81 34.328125 81 33.5 C 81 32.671875 80.328125 32 79.5 32 Z M 79.5 32 "/>
<path style=" stroke:none;fill-rule:nonzero;fill:rgb(99.607843%,99.215686%,93.725491%);fill-opacity:1;" d="M 70.203125 35.574219 L 70.203125 29.378906 C 70.203125 27.933594 69.03125 26.75 67.597656 26.75 L 32.269531 26.75 C 30.839844 26.75 29.664062 27.933594 29.664062 29.378906 L 29.664062 73.183594 L 36.570312 66.28125 L 43.003906 73.183594 L 50.015625 66.28125 L 57.023438 73.183594 L 63.457031 66.28125 L 70.199219 73.183594 L 70.199219 45.203125 "/>
<path style=" stroke:none;fill-rule:nonzero;fill:rgb(27.843139%,16.862746%,16.078432%);fill-opacity:1;" d="M 29.667969 73.882812 C 29.578125 73.882812 29.484375 73.867188 29.398438 73.828125 C 29.136719 73.722656 28.96875 73.46875 28.96875 73.183594 L 28.96875 29.378906 C 28.96875 27.542969 30.449219 26.050781 32.273438 26.050781 L 67.597656 26.050781 C 69.421875 26.050781 70.902344 27.542969 70.902344 29.378906 L 70.902344 35.574219 C 70.902344 35.964844 70.589844 36.277344 70.203125 36.277344 C 69.816406 36.277344 69.503906 35.964844 69.503906 35.574219 L 69.503906 29.378906 C 69.503906 28.316406 68.648438 27.449219 67.601562 27.449219 L 32.269531 27.449219 C 31.222656 27.449219 30.367188 28.316406 30.367188 29.378906 L 30.367188 71.492188 L 36.074219 65.785156 C 36.207031 65.652344 36.390625 65.5625 36.582031 65.582031 C 36.769531 65.585938 36.949219 65.664062 37.082031 65.804688 L 43.023438 72.179688 L 49.523438 65.785156 C 49.792969 65.515625 50.230469 65.515625 50.503906 65.785156 L 57.003906 72.179688 L 62.945312 65.804688 C 63.074219 65.664062 63.257812 65.585938 63.449219 65.582031 C 63.636719 65.550781 63.824219 65.65625 63.957031 65.792969 L 69.5 71.464844 L 69.5 45.203125 C 69.5 44.816406 69.8125 44.503906 70.199219 44.503906 C 70.585938 44.503906 70.898438 44.816406 70.898438 45.203125 L 70.898438 73.183594 C 70.898438 73.46875 70.726562 73.722656 70.464844 73.832031 C 70.199219 73.933594 69.898438 73.875 69.699219 73.671875 L 63.46875 67.296875 L 57.535156 73.660156 C 57.40625 73.796875 57.226562 73.878906 57.035156 73.882812 C 56.835938 73.894531 56.664062 73.816406 56.53125 73.683594 L 50.011719 67.265625 L 43.492188 73.683594 C 43.355469 73.8125 43.1875 73.886719 42.984375 73.882812 C 42.796875 73.878906 42.617188 73.796875 42.488281 73.660156 L 36.550781 67.289062 L 30.160156 73.679688 C 30.027344 73.8125 29.847656 73.882812 29.667969 73.882812 Z M 29.667969 73.882812 "/>
<path style=" stroke:none;fill-rule:nonzero;fill:rgb(27.843139%,16.862746%,16.078432%);fill-opacity:1;" d="M 61.789062 54.351562 C 61.800781 54.351562 61.828125 54.363281 61.863281 54.390625 L 61.847656 54.378906 C 62.027344 54.503906 62.1875 54.601562 62.328125 54.671875 C 62.472656 54.746094 63.027344 54.828125 63.027344 54.828125 L 63.027344 51.980469 L 62.859375 51.890625 C 62.65625 51.777344 62.460938 51.660156 62.273438 51.535156 C 62.089844 51.410156 61.921875 51.273438 61.773438 51.128906 C 61.625 50.976562 61.5 50.820312 61.398438 50.652344 C 61.296875 50.484375 61.226562 50.300781 61.1875 50.101562 C 61.160156 50.003906 61.148438 49.910156 61.144531 49.824219 C 61.144531 49.738281 61.140625 49.644531 61.140625 49.546875 C 61.140625 49.253906 61.1875 49 61.285156 48.78125 C 61.382812 48.566406 61.511719 48.378906 61.679688 48.230469 C 61.847656 48.078125 62.046875 47.957031 62.273438 47.863281 C 62.503906 47.777344 62.757812 47.714844 63.027344 47.683594 L 63.027344 47.421875 C 63.027344 47.300781 63.054688 47.195312 63.113281 47.105469 C 63.167969 47.019531 63.269531 46.976562 63.417969 46.976562 L 63.378906 46.976562 C 63.707031 46.976562 63.886719 47.136719 63.921875 47.449219 L 63.910156 47.699219 C 64.085938 47.730469 64.269531 47.78125 64.453125 47.84375 C 64.640625 47.910156 64.851562 47.992188 65.085938 48.089844 L 65.058594 48.074219 C 65.164062 48.109375 65.246094 48.15625 65.308594 48.210938 C 65.371094 48.269531 65.40625 48.359375 65.417969 48.480469 L 65.417969 48.539062 C 65.417969 48.582031 65.40625 48.636719 65.386719 48.703125 C 65.363281 48.773438 65.328125 48.839844 65.285156 48.898438 C 65.238281 48.960938 65.191406 49.015625 65.132812 49.0625 C 65.074219 49.109375 65.011719 49.132812 64.941406 49.132812 C 64.886719 49.132812 64.835938 49.128906 64.785156 49.117188 C 64.738281 49.109375 64.683594 49.085938 64.621094 49.039062 L 64.621094 49.003906 L 64.328125 48.949219 C 64.148438 48.855469 63.949219 48.78125 63.824219 48.726562 L 63.824219 51.261719 L 63.769531 51.28125 C 64.269531 51.535156 64.660156 51.816406 64.929688 52.128906 C 65.203125 52.4375 65.382812 52.761719 65.472656 53.097656 C 65.507812 53.238281 65.535156 53.367188 65.550781 53.488281 C 65.566406 53.605469 65.574219 53.726562 65.574219 53.851562 C 65.574219 54.136719 65.527344 54.390625 65.433594 54.621094 C 65.339844 54.851562 65.214844 55.050781 65.050781 55.222656 C 64.890625 55.394531 64.695312 55.53125 64.472656 55.640625 C 64.246094 55.75 63.996094 55.824219 63.824219 55.859375 L 63.824219 56.53125 C 63.730469 56.652344 63.707031 56.761719 63.65625 56.847656 C 63.609375 56.933594 63.351562 56.546875 63.351562 56.546875 L 63.296875 56.546875 C 63.296875 56.546875 63.015625 56.933594 62.921875 56.851562 C 62.828125 56.765625 62.78125 56.644531 63.027344 56.484375 L 63.027344 55.859375 C 62.449219 55.824219 62.160156 55.746094 61.917969 55.636719 C 61.675781 55.523438 61.429688 55.386719 61.175781 55.21875 C 61.105469 55.164062 61.058594 55.109375 61.035156 55.058594 C 61.007812 55.011719 60.980469 54.941406 61.429688 54.855469 L 61.429688 54.800781 C 60.949219 54.742188 60.96875 54.679688 61 54.609375 C 61.035156 54.535156 61.078125 54.46875 61.128906 54.402344 C 61.175781 54.339844 61.230469 54.28125 61.285156 54.234375 C 61.339844 54.191406 61.394531 54.164062 61.441406 54.164062 C 61.511719 54.164062 61.570312 54.1875 61.625 54.226562 C 61.679688 54.265625 61.730469 54.308594 61.777344 54.152344 L 61.789062 54.152344 C 61.800781 54.359375 61.808594 54.359375 61.816406 54.359375 Z M 62.511719 50.398438 C 62.65625 50.535156 62.828125 50.65625 63.027344 50.761719 L 63.027344 48.726562 C 62.792969 48.777344 62.597656 48.871094 62.4375 49.015625 C 62.28125 49.15625 62.199219 49.347656 62.199219 49.589844 C 62.199219 49.628906 62.203125 49.667969 62.207031 49.710938 C 62.210938 49.753906 62.21875 49.808594 62.230469 49.867188 C 62.269531 50.085938 62.367188 50.265625 62.511719 50.398438 Z M 64.269531 52.851562 C 64.148438 52.699219 63.996094 52.566406 63.824219 52.453125 L 63.824219 54.769531 C 64.042969 54.683594 64.222656 54.550781 64.367188 54.371094 C 64.515625 54.191406 64.589844 53.980469 64.589844 53.738281 C 64.589844 53.671875 64.582031 53.609375 64.570312 53.550781 C 64.558594 53.496094 64.546875 53.4375 64.53125 53.375 C 64.480469 53.175781 64.394531 53.003906 64.269531 52.851562 Z M 70.082031 42.699219 C 69.695312 42.699219 69.382812 42.386719 69.382812 42 L 69.382812 38.332031 C 69.382812 37.945312 69.695312 37.632812 70.082031 37.632812 C 70.46875 37.632812 70.78125 37.945312 70.78125 38.332031 L 70.78125 42 C 70.785156 42.386719 70.46875 42.699219 70.082031 42.699219 Z M 65.5 35 L 35.5 35 C 35.222656 35 35 34.777344 35 34.5 C 35 34.222656 35.222656 34 35.5 34 L 65.5 34 C 65.777344 34 66 34.222656 66 34.5 C 66 34.777344 65.777344 35 65.5 35 Z M 65.5 35 "/>
<path style=" stroke:none;fill-rule:nonzero;fill:rgb(27.843139%,16.862746%,16.078432%);fill-opacity:1;" d="M 47.5 39 L 35.5 39 C 35.222656 39 35 38.777344 35 38.5 C 35 38.222656 35.222656 38 35.5 38 L 47.5 38 C 47.777344 38 48 38.222656 48 38.5 C 48 38.777344 47.777344 39 47.5 39 Z M 47.5 39 "/>
<path style=" stroke:none;fill-rule:nonzero;fill:rgb(27.843139%,16.862746%,16.078432%);fill-opacity:1;" d="M 55.5 48 L 38.5 48 C 38.222656 48 38 47.777344 38 47.5 C 38 47.222656 38.222656 47 38.5 47 L 55.5 47 C 55.777344 47 56 47.222656 56 47.5 C 56 47.777344 55.777344 48 55.5 48 Z M 55.5 48 "/>
<path style=" stroke:none;fill-rule:nonzero;fill:rgb(27.843139%,16.862746%,16.078432%);fill-opacity:1;" d="M 55.5 51 L 38.5 51 C 38.222656 51 38 50.777344 38 50.5 C 38 50.222656 38.222656 50 38.5 50 L 55.5 50 C 55.777344 50 56 50.222656 56 50.5 C 56 50.777344 55.777344 51 55.5 51 Z M 55.5 51 "/>
<path style=" stroke:none;fill-rule:nonzero;fill:rgb(27.843139%,16.862746%,16.078432%);fill-opacity:1;" d="M 55.5 54 L 38.5 54 C 38.222656 54 38 53.777344 38 53.5 C 38 53.222656 38.222656 53 38.5 53 L 55.5 53 C 55.777344 53 56 53.222656 56 53.5 C 56 53.777344 55.777344 54 55.5 54 Z M 55.5 54 "/>
<path style=" stroke:none;fill-rule:nonzero;fill:rgb(27.843139%,16.862746%,16.078432%);fill-opacity:1;" d="M 55.5 57 L 38.5 57 C 38.222656 57 38 56.777344 38 56.5 C 38 56.222656 38.222656 56 38.5 56 L 55.5 56 C 55.777344 56 56 56.222656 56 56.5 C 56 56.777344 55.777344 57 55.5 57 Z M 55.5 57 "/>
<path style=" stroke:none;fill-rule:nonzero;fill:rgb(27.843139%,16.862746%,16.078432%);fill-opacity:1;" d="M 35.5 47 C 35.222656 47 35 47.222656 35 47.5 C 35 47.777344 35.222656 48 35.5 48 C 35.777344 48 36 47.777344 36 47.5 C 36 47.222656 35.777344 47 35.5 47 Z M 35.5 47 "/>
<path style=" stroke:none;fill-rule:nonzero;fill:rgb(27.843139%,16.862746%,16.078432%);fill-opacity:1;" d="M 35.5 50 C 35.222656 50 35 50.222656 35 50.5 C 35 50.777344 35.222656 51 35.5 51 C 35.777344 51 36 50.777344 36 50.5 C 36 50.222656 35.777344 50 35.5 50 Z M 35.5 50 "/>
<path style=" stroke:none;fill-rule:nonzero;fill:rgb(27.843139%,16.862746%,16.078432%);fill-opacity:1;" d="M 35.5 53 C 35.222656 53 35 53.222656 35 53.5 C 35 53.777344 35.222656 54 35.5 54 C 35.777344 54 36 53.777344 36 53.5 C 36 53.222656 35.777344 53 35.5 53 Z M 35.5 53 "/>
<path style=" stroke:none;fill-rule:nonzero;fill:rgb(27.843139%,16.862746%,16.078432%);fill-opacity:1;" d="M 35.5 56 C 35.222656 56 35 56.222656 35 56.5 C 35 56.777344 35.222656 57 35.5 57 C 35.777344 57 36 56.777344 36 56.5 C 36 56.222656 35.777344 56 35.5 56 Z M 35.5 56 "/>
<path style=" stroke:none;fill-rule:nonzero;fill:rgb(99.215686%,98.823529%,93.725491%);fill-opacity:1;" d="M 95.054688 80.054688 C 95.054688 88.339844 88.339844 95.054688 80.054688 95.054688 C 71.769531 95.054688 65.054688 88.339844 65.054688 80.054688 C 65.054688 71.769531 71.769531 65.054688 80.054688 65.054688 C 88.339844 65.054688 95.054688 71.769531 95.054688 80.054688 Z M 95.054688 80.054688 "/>
<path style=" stroke:none;fill-rule:nonzero;fill:rgb(27.843139%,16.862746%,16.078432%);fill-opacity:1;" d="M 80.054688 65.957031 C 87.832031 65.957031 94.15625 72.28125 94.15625 80.054688 C 94.15625 87.832031 87.832031 94.15625 80.054688 94.15625 C 72.28125 94.15625 65.957031 87.832031 65.957031 80.054688 C 65.957031 72.28125 72.28125 65.957031 80.054688 65.957031 M 80.054688 64.554688 C 71.496094 64.554688 64.554688 71.496094 64.554688 80.054688 C 64.554688 88.617188 71.496094 95.554688 80.054688 95.554688 C 88.617188 95.554688 95.554688 88.617188 95.554688 80.054688 C 95.554688 71.496094 88.617188 64.554688 80.054688 64.554688 Z M 80.054688 64.554688 "/>
<path style=" stroke:none;fill-rule:nonzero;fill:rgb(96.862745%,42.745098%,30.19608%);fill-opacity:1;" d="M 92.304688 80.054688 C 92.304688 86.820312 86.820312 92.304688 80.054688 92.304688 C 73.289062 92.304688 67.804688 86.820312 67.804688 80.054688 C 67.804688 73.289062 73.289062 67.804688 80.054688 67.804688 C 86.820312 67.804688 92.304688 73.289062 92.304688 80.054688 Z M 92.304688 80.054688 "/>
<path style=" stroke:none;fill-rule:nonzero;fill:rgb(94.509804%,53.333336%,40.784314%);fill-opacity:1;" d="M 80.054688 67.804688 C 73.300781 67.804688 67.804688 73.300781 67.804688 80.054688 C 67.804688 80.207031 67.824219 80.355469 67.828125 80.507812 C 69.003906 74.828125 74.027344 70.554688 80.054688 70.554688 C 86.085938 70.554688 91.109375 74.832031 92.28125 80.511719 C 92.289062 80.359375 92.304688 80.210938 92.304688 80.054688 C 92.304688 73.300781 86.808594 67.804688 80.054688 67.804688 Z M 80.054688 67.804688 "/>
<path style=" stroke:none;fill-rule:nonzero;fill:rgb(27.843139%,16.862746%,16.078432%);fill-opacity:1;" d="M 80.054688 68.054688 C 86.671875 68.054688 92.054688 73.4375 92.054688 80.054688 C 92.054688 86.671875 86.671875 92.054688 80.054688 92.054688 C 73.4375 92.054688 68.054688 86.671875 68.054688 80.054688 C 68.054688 73.4375 73.4375 68.054688 80.054688 68.054688 M 80.054688 67.554688 C 73.164062 67.554688 67.554688 73.164062 67.554688 80.054688 C 67.554688 86.949219 73.164062 92.554688 80.054688 92.554688 C 86.949219 92.554688 92.554688 86.949219 92.554688 80.054688 C 92.554688 73.164062 86.949219 67.554688 80.054688 67.554688 Z M 80.054688 67.554688 "/>
<path style=" stroke:none;fill-rule:nonzero;fill:rgb(27.843139%,16.862746%,16.078432%);fill-opacity:1;" d="M 78.011719 76.628906 C 78.011719 76.402344 78.117188 76.210938 78.324219 76.054688 L 79.917969 74.269531 C 80.070312 74.128906 80.21875 74.054688 80.371094 74.054688 C 80.53125 74.054688 80.679688 74.101562 80.8125 74.1875 C 80.945312 74.277344 81.011719 74.394531 81.011719 74.546875 L 81.011719 85.5625 C 81.011719 85.71875 80.941406 85.835938 80.796875 85.925781 C 80.652344 86.011719 80.480469 86.054688 80.285156 86.054688 C 80.085938 86.054688 79.917969 86.011719 79.773438 85.925781 C 79.628906 85.835938 79.554688 85.71875 79.554688 85.5625 L 79.554688 76.121094 L 78.914062 77.023438 C 78.796875 77.144531 78.675781 77.203125 78.550781 77.203125 C 78.402344 77.203125 78.273438 77.144531 78.167969 77.03125 C 78.066406 76.917969 78.011719 76.78125 78.011719 76.628906 Z M 78.011719 76.628906 "/>
</g>
</svg>
