<?xml version="1.0" encoding="UTF-8"?>
<svg xmlns="http://www.w3.org/2000/svg" xmlns:xlink="http://www.w3.org/1999/xlink" viewBox="0 0 100 100" width="100px" height="100px">
<g id="surface266630">
<path style=" stroke:none;fill-rule:nonzero;fill:rgb(94.509804%,73.725492%,9.803922%);fill-opacity:1;" d="M 77 12 C 76.449219 12 76 12.449219 76 13 C 76 13.550781 76.449219 14 77 14 C 77.550781 14 78 13.550781 78 13 C 78 12.449219 77.550781 12 77 12 Z M 77 12 "/>
<path style=" stroke:none;fill-rule:nonzero;fill:rgb(90.196079%,92.941177%,71.764708%);fill-opacity:1;" d="M 50 13 C 29.566406 13 13 29.566406 13 50 C 13 70.433594 29.566406 87 50 87 C 70.433594 87 87 70.433594 87 50 C 87 29.566406 70.433594 13 50 13 Z M 50 13 "/>
<path style=" stroke:none;fill-rule:nonzero;fill:rgb(94.509804%,73.725492%,9.803922%);fill-opacity:1;" d="M 83 11 C 80.789062 11 79 12.789062 79 15 C 79 17.210938 80.789062 19 83 19 C 85.210938 19 87 17.210938 87 15 C 87 12.789062 85.210938 11 83 11 Z M 83 11 "/>
<path style=" stroke:none;fill-rule:nonzero;fill:rgb(53.333336%,68.235296%,27.058825%);fill-opacity:1;" d="M 87 22 C 85.894531 22 85 22.894531 85 24 C 85 25.105469 85.894531 26 87 26 C 88.105469 26 89 25.105469 89 24 C 89 22.894531 88.105469 22 87 22 Z M 87 22 "/>
<path style=" stroke:none;fill-rule:nonzero;fill:rgb(98.431373%,80.392158%,34.901962%);fill-opacity:1;" d="M 81 74 C 79.894531 74 79 74.894531 79 76 C 79 77.105469 79.894531 78 81 78 C 82.105469 78 83 77.105469 83 76 C 83 74.894531 82.105469 74 81 74 Z M 15 59 C 12.789062 59 11 60.789062 11 63 C 11 65.210938 12.789062 67 15 67 C 17.210938 67 19 65.210938 19 63 C 19 60.789062 17.210938 59 15 59 Z M 15 59 "/>
<path style=" stroke:none;fill-rule:nonzero;fill:rgb(53.333336%,68.235296%,27.058825%);fill-opacity:1;" d="M 25 85 C 23.894531 85 23 85.894531 23 87 C 23 88.105469 23.894531 89 25 89 C 26.105469 89 27 88.105469 27 87 C 27 85.894531 26.105469 85 25 85 Z M 25 85 "/>
<path style=" stroke:none;fill-rule:nonzero;fill:rgb(100%,100%,100%);fill-opacity:1;" d="M 18.5 49 C 17.121094 49 16 50.121094 16 51.5 C 16 52.878906 17.121094 54 18.5 54 C 19.878906 54 21 52.878906 21 51.5 C 21 50.121094 19.878906 49 18.5 49 Z M 79.5 32 C 78.671875 32 78 32.671875 78 33.5 C 78 34.328125 78.671875 35 79.5 35 C 80.328125 35 81 34.328125 81 33.5 C 81 32.671875 80.328125 32 79.5 32 Z M 79.5 32 "/>
<path style=" stroke:none;fill-rule:nonzero;fill:rgb(97.647059%,90.196079%,36.078432%);fill-opacity:1;" d="M 29.847656 66.300781 C 27.007812 66.300781 24.699219 63.992188 24.699219 61.152344 L 24.699219 37.847656 C 24.699219 35.007812 27.007812 32.699219 29.847656 32.699219 L 71.152344 32.699219 C 73.992188 32.699219 76.300781 35.011719 76.300781 37.847656 L 76.300781 61.152344 C 76.300781 63.992188 73.988281 66.300781 71.152344 66.300781 Z M 29.847656 66.300781 "/>
<path style=" stroke:none;fill-rule:nonzero;fill:rgb(27.843139%,16.862746%,16.078432%);fill-opacity:1;" d="M 71.152344 33.398438 C 73.605469 33.398438 75.601562 35.394531 75.601562 37.847656 L 75.601562 61.152344 C 75.601562 63.605469 73.605469 65.601562 71.152344 65.601562 L 29.847656 65.601562 C 27.394531 65.601562 25.398438 63.605469 25.398438 61.152344 L 25.398438 37.847656 C 25.398438 35.394531 27.394531 33.398438 29.847656 33.398438 L 71.152344 33.398438 M 71.152344 32 L 29.847656 32 C 26.617188 32 24 34.617188 24 37.847656 L 24 61.152344 C 24 64.382812 26.617188 67 29.847656 67 L 71.152344 67 C 74.382812 67 77 64.382812 77 61.152344 L 77 37.847656 C 77 34.617188 74.382812 32 71.152344 32 Z M 71.152344 32 "/>
<path style=" stroke:none;fill-rule:nonzero;fill:rgb(73.333335%,47.843137%,32.941177%);fill-opacity:1;" d="M 25.332031 38.625 L 75.582031 38.625 L 75.582031 44.625 L 25.332031 44.625 Z M 25.332031 38.625 "/>
<path style=" stroke:none;fill-rule:nonzero;fill:rgb(99.607843%,99.215686%,93.725491%);fill-opacity:1;" d="M 29.5 47.5 L 54.5 47.5 L 54.5 51.5 L 29.5 51.5 Z M 29.5 47.5 "/>
<path style=" stroke:none;fill-rule:nonzero;fill:rgb(27.843139%,16.862746%,16.078432%);fill-opacity:1;" d="M 54.5 52 L 29.5 52 C 29.222656 52 29 51.777344 29 51.5 L 29 47.5 C 29 47.222656 29.222656 47 29.5 47 L 54.5 47 C 54.777344 47 55 47.222656 55 47.5 L 55 51.5 C 55 51.777344 54.777344 52 54.5 52 Z M 30 51 L 54 51 L 54 48 L 30 48 Z M 30 51 "/>
<path style=" stroke:none;fill-rule:nonzero;fill:rgb(99.607843%,99.215686%,93.725491%);fill-opacity:1;" d="M 58.5 47.5 L 66.5 47.5 L 66.5 51.5 L 58.5 51.5 Z M 58.5 47.5 "/>
<path style=" stroke:none;fill-rule:nonzero;fill:rgb(27.843139%,16.862746%,16.078432%);fill-opacity:1;" d="M 66.5 52 L 58.5 52 C 58.222656 52 58 51.777344 58 51.5 L 58 47.5 C 58 47.222656 58.222656 47 58.5 47 L 66.5 47 C 66.777344 47 67 47.222656 67 47.5 L 67 51.5 C 67 51.777344 66.777344 52 66.5 52 Z M 59 51 L 66 51 L 66 48 L 59 48 Z M 59 51 "/>
<path style=" stroke:none;fill-rule:nonzero;fill:rgb(80.784315%,80.000001%,74.509805%);fill-opacity:1;" d="M 36.332031 61.5 L 31.664062 61.5 C 30.46875 61.5 29.5 60.53125 29.5 59.332031 L 29.5 56.664062 C 29.5 55.46875 30.46875 54.5 31.664062 54.5 L 36.332031 54.5 C 37.53125 54.5 38.5 55.46875 38.5 56.664062 L 38.5 59.332031 C 38.5 60.53125 37.53125 61.5 36.332031 61.5 Z M 36.332031 61.5 "/>
<path style=" stroke:none;fill-rule:nonzero;fill:rgb(27.843139%,16.862746%,16.078432%);fill-opacity:1;" d="M 36.332031 62 L 31.664062 62 C 30.195312 62 29 60.804688 29 59.332031 L 29 56.667969 C 29 55.195312 30.195312 54 31.667969 54 L 36.335938 54 C 37.804688 54 39 55.195312 39 56.667969 L 39 59.332031 C 39 60.804688 37.804688 62 36.332031 62 Z M 31.667969 55 C 30.746094 55 30 55.746094 30 56.667969 L 30 59.332031 C 30 60.253906 30.746094 61 31.667969 61 L 36.335938 61 C 37.253906 61 38 60.253906 38 59.332031 L 38 56.667969 C 38 55.746094 37.253906 55 36.332031 55 Z M 31.667969 55 "/>
<path style=" stroke:none;fill-rule:nonzero;fill:rgb(27.843139%,16.862746%,16.078432%);fill-opacity:1;" d="M 58.5 56 L 44.5 56 C 44.222656 56 44 55.777344 44 55.5 C 44 55.222656 44.222656 55 44.5 55 L 58.5 55 C 58.777344 55 59 55.222656 59 55.5 C 59 55.777344 58.777344 56 58.5 56 Z M 58.5 56 "/>
<path style=" stroke:none;fill-rule:nonzero;fill:rgb(27.843139%,16.862746%,16.078432%);fill-opacity:1;" d="M 65.5 59 L 44.5 59 C 44.222656 59 44 58.777344 44 58.5 C 44 58.222656 44.222656 58 44.5 58 L 65.5 58 C 65.777344 58 66 58.222656 66 58.5 C 66 58.777344 65.777344 59 65.5 59 Z M 65.5 59 "/>
<path style=" stroke:none;fill-rule:nonzero;fill:rgb(27.843139%,16.862746%,16.078432%);fill-opacity:1;" d="M 53.5 62 L 44.5 62 C 44.222656 62 44 61.777344 44 61.5 C 44 61.222656 44.222656 61 44.5 61 L 53.5 61 C 53.777344 61 54 61.222656 54 61.5 C 54 61.777344 53.777344 62 53.5 62 Z M 53.5 62 "/>
<path style=" stroke:none;fill-rule:nonzero;fill:rgb(27.843139%,16.862746%,16.078432%);fill-opacity:1;" d="M 62.5 62 L 56.5 62 C 56.222656 62 56 61.777344 56 61.5 C 56 61.222656 56.222656 61 56.5 61 L 62.5 61 C 62.777344 61 63 61.222656 63 61.5 C 63 61.777344 62.777344 62 62.5 62 Z M 62.5 62 "/>
<path style=" stroke:none;fill-rule:nonzero;fill:rgb(27.843139%,16.862746%,16.078432%);fill-opacity:1;" d="M 69.5 56 L 61.5 56 C 61.222656 56 61 55.777344 61 55.5 C 61 55.222656 61.222656 55 61.5 55 L 69.5 55 C 69.777344 55 70 55.222656 70 55.5 C 70 55.777344 69.777344 56 69.5 56 Z M 69.5 56 "/>
<path style=" stroke:none;fill-rule:nonzero;fill:rgb(27.843139%,16.862746%,16.078432%);fill-opacity:1;" d="M 34.5 39 L 25.5 39 C 25.222656 39 25 38.777344 25 38.5 C 25 38.222656 25.222656 38 25.5 38 L 34.5 38 C 34.777344 38 35 38.222656 35 38.5 C 35 38.777344 34.777344 39 34.5 39 Z M 34.5 39 "/>
<path style=" stroke:none;fill-rule:nonzero;fill:rgb(27.843139%,16.862746%,16.078432%);fill-opacity:1;" d="M 43.5 45 L 25.5 45 C 25.222656 45 25 44.777344 25 44.5 C 25 44.222656 25.222656 44 25.5 44 L 43.5 44 C 43.777344 44 44 44.222656 44 44.5 C 44 44.777344 43.777344 45 43.5 45 Z M 43.5 45 "/>
<path style=" stroke:none;fill-rule:nonzero;fill:rgb(27.843139%,16.862746%,16.078432%);fill-opacity:1;" d="M 75.5 45 L 46.5 45 C 46.222656 45 46 44.777344 46 44.5 C 46 44.222656 46.222656 44 46.5 44 L 75.5 44 C 75.777344 44 76 44.222656 76 44.5 C 76 44.777344 75.777344 45 75.5 45 Z M 75.5 45 "/>
<path style=" stroke:none;fill-rule:nonzero;fill:rgb(27.843139%,16.862746%,16.078432%);fill-opacity:1;" d="M 43.5 39 L 38.5 39 C 38.222656 39 38 38.777344 38 38.5 C 38 38.222656 38.222656 38 38.5 38 L 43.5 38 C 43.777344 38 44 38.222656 44 38.5 C 44 38.777344 43.777344 39 43.5 39 Z M 43.5 39 "/>
<path style=" stroke:none;fill-rule:nonzero;fill:rgb(27.843139%,16.862746%,16.078432%);fill-opacity:1;" d="M 75.5 39 L 47.5 39 C 47.222656 39 47 38.777344 47 38.5 C 47 38.222656 47.222656 38 47.5 38 L 75.5 38 C 75.777344 38 76 38.222656 76 38.5 C 76 38.777344 75.777344 39 75.5 39 Z M 75.5 39 "/>
<path style=" stroke:none;fill-rule:nonzero;fill:rgb(99.215686%,98.823529%,93.725491%);fill-opacity:1;" d="M 95.054688 80.054688 C 95.054688 88.339844 88.339844 95.054688 80.054688 95.054688 C 71.769531 95.054688 65.054688 88.339844 65.054688 80.054688 C 65.054688 71.769531 71.769531 65.054688 80.054688 65.054688 C 88.339844 65.054688 95.054688 71.769531 95.054688 80.054688 Z M 95.054688 80.054688 "/>
<path style=" stroke:none;fill-rule:nonzero;fill:rgb(27.843139%,16.862746%,16.078432%);fill-opacity:1;" d="M 80.054688 65.957031 C 87.832031 65.957031 94.15625 72.28125 94.15625 80.054688 C 94.15625 87.832031 87.832031 94.15625 80.054688 94.15625 C 72.28125 94.15625 65.957031 87.832031 65.957031 80.054688 C 65.957031 72.28125 72.28125 65.957031 80.054688 65.957031 M 80.054688 64.554688 C 71.496094 64.554688 64.554688 71.496094 64.554688 80.054688 C 64.554688 88.617188 71.496094 95.554688 80.054688 95.554688 C 88.617188 95.554688 95.554688 88.617188 95.554688 80.054688 C 95.554688 71.496094 88.617188 64.554688 80.054688 64.554688 Z M 80.054688 64.554688 "/>
<path style=" stroke:none;fill-rule:nonzero;fill:rgb(96.862745%,42.745098%,30.19608%);fill-opacity:1;" d="M 92.304688 80.054688 C 92.304688 86.820312 86.820312 92.304688 80.054688 92.304688 C 73.289062 92.304688 67.804688 86.820312 67.804688 80.054688 C 67.804688 73.289062 73.289062 67.804688 80.054688 67.804688 C 86.820312 67.804688 92.304688 73.289062 92.304688 80.054688 Z M 92.304688 80.054688 "/>
<path style=" stroke:none;fill-rule:nonzero;fill:rgb(94.509804%,53.333336%,40.784314%);fill-opacity:1;" d="M 80.054688 67.804688 C 73.300781 67.804688 67.804688 73.300781 67.804688 80.054688 C 67.804688 80.207031 67.824219 80.355469 67.828125 80.507812 C 69.003906 74.828125 74.027344 70.554688 80.054688 70.554688 C 86.085938 70.554688 91.109375 74.832031 92.28125 80.511719 C 92.289062 80.359375 92.304688 80.210938 92.304688 80.054688 C 92.304688 73.300781 86.808594 67.804688 80.054688 67.804688 Z M 80.054688 67.804688 "/>
<path style=" stroke:none;fill-rule:nonzero;fill:rgb(27.843139%,16.862746%,16.078432%);fill-opacity:1;" d="M 80.054688 68.054688 C 86.671875 68.054688 92.054688 73.4375 92.054688 80.054688 C 92.054688 86.671875 86.671875 92.054688 80.054688 92.054688 C 73.4375 92.054688 68.054688 86.671875 68.054688 80.054688 C 68.054688 73.4375 73.4375 68.054688 80.054688 68.054688 M 80.054688 67.554688 C 73.164062 67.554688 67.554688 73.164062 67.554688 80.054688 C 67.554688 86.949219 73.164062 92.554688 80.054688 92.554688 C 86.949219 92.554688 92.554688 86.949219 92.554688 80.054688 C 92.554688 73.164062 86.949219 67.554688 80.054688 67.554688 Z M 80.054688 67.554688 "/>
<path style=" stroke:none;fill-rule:nonzero;fill:rgb(27.843139%,16.862746%,16.078432%);fill-opacity:1;" d="M 76.554688 83.289062 C 76.554688 83.039062 76.601562 82.871094 76.695312 82.78125 C 76.785156 82.695312 76.949219 82.652344 77.191406 82.652344 C 77.449219 82.652344 77.628906 82.695312 77.734375 82.78125 C 77.835938 82.871094 77.886719 83.003906 77.886719 83.191406 C 77.886719 83.601562 78.0625 83.976562 78.414062 84.3125 C 78.765625 84.648438 79.300781 84.816406 80.015625 84.816406 C 81.464844 84.816406 82.191406 84.070312 82.191406 82.570312 L 82.191406 82.261719 C 82.191406 80.9375 81.464844 80.273438 80.015625 80.273438 C 79.703125 80.273438 79.542969 80.085938 79.542969 79.707031 C 79.542969 79.324219 79.703125 79.136719 80.015625 79.136719 C 80.640625 79.136719 81.113281 78.996094 81.429688 78.714844 C 81.742188 78.433594 81.898438 77.925781 81.898438 77.191406 C 81.898438 75.925781 81.292969 75.292969 80.082031 75.292969 C 79.386719 75.292969 78.898438 75.449219 78.609375 75.753906 C 78.324219 76.0625 78.179688 76.425781 78.179688 76.84375 C 78.179688 77.246094 77.964844 77.441406 77.53125 77.441406 C 77.238281 77.441406 77.046875 77.394531 76.953125 77.296875 C 76.863281 77.199219 76.816406 77.015625 76.816406 76.742188 C 76.816406 76.472656 76.867188 76.191406 76.972656 75.902344 C 77.074219 75.617188 77.238281 75.328125 77.464844 75.039062 C 77.695312 74.753906 78.039062 74.515625 78.496094 74.332031 C 78.957031 74.148438 79.496094 74.054688 80.113281 74.054688 C 82.179688 74.054688 83.214844 75.019531 83.214844 76.945312 C 83.214844 77.628906 83.09375 78.207031 82.859375 78.683594 C 82.621094 79.160156 82.300781 79.488281 81.898438 79.671875 C 83.003906 80.117188 83.554688 80.980469 83.554688 82.261719 L 83.554688 82.570312 C 83.554688 83.765625 83.230469 84.644531 82.582031 85.210938 C 81.929688 85.773438 81.078125 86.054688 80.015625 86.054688 C 78.898438 86.054688 78.042969 85.773438 77.449219 85.203125 C 76.855469 84.632812 76.554688 83.992188 76.554688 83.289062 Z M 76.554688 83.289062 "/>
</g>
</svg>
