<?xml version="1.0" encoding="UTF-8"?>
<svg xmlns="http://www.w3.org/2000/svg" xmlns:xlink="http://www.w3.org/1999/xlink" viewBox="0 0 100 100" width="100px" height="100px">
<g id="surface412295">
<path style=" stroke:none;fill-rule:nonzero;fill:rgb(53.333336%,68.235296%,27.058825%);fill-opacity:1;" d="M 13 27 C 11.894531 27 11 27.894531 11 29 C 11 30.105469 11.894531 31 13 31 C 14.105469 31 15 30.105469 15 29 C 15 27.894531 14.105469 27 13 27 Z M 13 27 "/>
<path style=" stroke:none;fill-rule:nonzero;fill:rgb(94.509804%,73.725492%,9.803922%);fill-opacity:1;" d="M 77 12 C 76.449219 12 76 12.449219 76 13 C 76 13.550781 76.449219 14 77 14 C 77.550781 14 78 13.550781 78 13 C 78 12.449219 77.550781 12 77 12 Z M 77 12 "/>
<path style=" stroke:none;fill-rule:nonzero;fill:rgb(90.196079%,92.941177%,71.764708%);fill-opacity:1;" d="M 50 13 C 29.566406 13 13 29.566406 13 50 C 13 70.433594 29.566406 87 50 87 C 70.433594 87 87 70.433594 87 50 C 87 29.566406 70.433594 13 50 13 Z M 50 13 "/>
<path style=" stroke:none;fill-rule:nonzero;fill:rgb(94.509804%,73.725492%,9.803922%);fill-opacity:1;" d="M 83 11 C 80.789062 11 79 12.789062 79 15 C 79 17.210938 80.789062 19 83 19 C 85.210938 19 87 17.210938 87 15 C 87 12.789062 85.210938 11 83 11 Z M 83 11 "/>
<path style=" stroke:none;fill-rule:nonzero;fill:rgb(53.333336%,68.235296%,27.058825%);fill-opacity:1;" d="M 87 22 C 85.894531 22 85 22.894531 85 24 C 85 25.105469 85.894531 26 87 26 C 88.105469 26 89 25.105469 89 24 C 89 22.894531 88.105469 22 87 22 Z M 87 22 "/>
<path style=" stroke:none;fill-rule:nonzero;fill:rgb(98.431373%,80.392158%,34.901962%);fill-opacity:1;" d="M 81 74 C 79.894531 74 79 74.894531 79 76 C 79 77.105469 79.894531 78 81 78 C 82.105469 78 83 77.105469 83 76 C 83 74.894531 82.105469 74 81 74 Z M 15 59 C 12.789062 59 11 60.789062 11 63 C 11 65.210938 12.789062 67 15 67 C 17.210938 67 19 65.210938 19 63 C 19 60.789062 17.210938 59 15 59 Z M 15 59 "/>
<path style=" stroke:none;fill-rule:nonzero;fill:rgb(53.333336%,68.235296%,27.058825%);fill-opacity:1;" d="M 25 85 C 23.894531 85 23 85.894531 23 87 C 23 88.105469 23.894531 89 25 89 C 26.105469 89 27 88.105469 27 87 C 27 85.894531 26.105469 85 25 85 Z M 25 85 "/>
<path style=" stroke:none;fill-rule:nonzero;fill:rgb(100%,100%,100%);fill-opacity:1;" d="M 18.5 51 C 17.121094 51 16 52.121094 16 53.5 C 16 54.878906 17.121094 56 18.5 56 C 19.878906 56 21 54.878906 21 53.5 C 21 52.121094 19.878906 51 18.5 51 Z M 18.5 51 "/>
<path style=" stroke:none;fill-rule:nonzero;fill:rgb(94.509804%,73.725492%,9.803922%);fill-opacity:1;" d="M 21 66 C 20.449219 66 20 66.449219 20 67 C 20 67.550781 20.449219 68 21 68 C 21.550781 68 22 67.550781 22 67 C 22 66.449219 21.550781 66 21 66 Z M 21 66 "/>
<path style=" stroke:none;fill-rule:nonzero;fill:rgb(100%,100%,100%);fill-opacity:1;" d="M 80 33 C 79.449219 33 79 33.449219 79 34 C 79 34.550781 79.449219 35 80 35 C 80.550781 35 81 34.550781 81 34 C 81 33.449219 80.550781 33 80 33 Z M 80 33 "/>
<path style=" stroke:none;fill-rule:nonzero;fill:rgb(73.333335%,47.843137%,32.941177%);fill-opacity:1;" d="M 50 23 C 43.285156 23 36.5 26.5 33.304688 31.832031 C 34.074219 32.597656 36.082031 33.011719 37.109375 33.011719 C 38.011719 33.011719 38.917969 32.710938 39.664062 32.089844 C 42.839844 29.453125 45.863281 28 50 28 C 54.113281 28 57.121094 29.4375 60.289062 32.050781 C 61.894531 33.375 65.210938 33.222656 66.648438 31.78125 C 62.5 26.5 56.6875 23 50 23 Z M 50 23 "/>
<path style=" stroke:none;fill-rule:nonzero;fill:rgb(27.843139%,16.862746%,16.078432%);fill-opacity:1;" d="M 37.109375 33.515625 C 36.125 33.515625 33.894531 33.125 32.953125 32.1875 C 32.789062 32.027344 32.757812 31.773438 32.875 31.578125 C 36.128906 26.148438 43.007812 22.5 50 22.5 C 56.445312 22.5 62.496094 25.6875 67.042969 31.472656 C 67.199219 31.671875 67.183594 31.957031 67.003906 32.136719 C 65.378906 33.757812 61.761719 33.914062 59.96875 32.4375 C 56.582031 29.640625 53.691406 28.5 50 28.5 C 46.285156 28.5 43.382812 29.652344 39.984375 32.476562 C 39.179688 33.144531 38.15625 33.515625 37.109375 33.515625 Z M 33.96875 31.71875 C 34.761719 32.210938 36.257812 32.515625 37.109375 32.515625 C 37.925781 32.515625 38.71875 32.226562 39.34375 31.703125 C 42.894531 28.757812 46.078125 27.5 50 27.5 C 53.894531 27.5 57.066406 28.746094 60.605469 31.664062 C 61.886719 32.722656 64.550781 32.699219 65.953125 31.714844 C 61.640625 26.410156 55.988281 23.5 50 23.5 C 43.511719 23.5 37.132812 26.785156 33.96875 31.71875 Z M 33.96875 31.71875 "/>
<path style=" stroke:none;fill-rule:nonzero;fill:rgb(27.843139%,16.862746%,16.078432%);fill-opacity:1;" d="M 69.75 47.449219 C 69.71875 47.449219 69.683594 47.449219 69.652344 47.441406 C 69.269531 47.386719 69.003906 47.035156 69.058594 46.652344 C 69.21875 45.519531 69.285156 42.390625 69.25 41.273438 C 68.941406 31.253906 60.664062 23.699219 50 23.699219 C 39.589844 23.699219 31.324219 31.050781 30.769531 40.792969 C 30.699219 42.03125 30.753906 44.332031 30.941406 45.652344 C 30.996094 46.03125 30.730469 46.386719 30.347656 46.441406 C 29.96875 46.484375 29.609375 46.230469 29.558594 45.847656 C 29.351562 44.425781 29.296875 42.046875 29.371094 40.714844 C 29.96875 30.21875 38.835938 22.300781 50 22.300781 C 61.441406 22.300781 70.316406 30.4375 70.648438 41.230469 C 70.683594 42.375 70.621094 45.609375 70.441406 46.847656 C 70.394531 47.199219 70.09375 47.449219 69.75 47.449219 Z M 69.75 47.449219 "/>
<path style=" stroke:none;fill-rule:nonzero;fill:rgb(73.333335%,47.843137%,32.941177%);fill-opacity:1;" d="M 64.25 66.300781 C 62.84375 66.300781 61.699219 65.15625 61.699219 63.75 L 61.699219 47.75 C 61.699219 46.34375 62.84375 45.199219 64.25 45.199219 C 65.65625 45.199219 66.800781 46.34375 66.800781 47.75 L 66.800781 63.75 C 66.800781 65.15625 65.65625 66.300781 64.25 66.300781 Z M 64.25 66.300781 "/>
<path style=" stroke:none;fill-rule:nonzero;fill:rgb(27.843139%,16.862746%,16.078432%);fill-opacity:1;" d="M 64.25 45.898438 C 65.269531 45.898438 66.101562 46.730469 66.101562 47.75 L 66.101562 63.75 C 66.101562 64.769531 65.269531 65.601562 64.25 65.601562 C 63.230469 65.601562 62.398438 64.769531 62.398438 63.75 L 62.398438 47.75 C 62.398438 46.730469 63.230469 45.898438 64.25 45.898438 M 64.25 44.5 C 62.464844 44.5 61 45.960938 61 47.75 L 61 63.75 C 61 65.539062 62.464844 67 64.25 67 C 66.035156 67 67.5 65.539062 67.5 63.75 L 67.5 47.75 C 67.5 45.960938 66.035156 44.5 64.25 44.5 Z M 64.25 44.5 "/>
<path style=" stroke:none;fill-rule:nonzero;fill:rgb(73.333335%,47.843137%,32.941177%);fill-opacity:1;" d="M 49 76.300781 C 47.730469 76.300781 46.699219 75.269531 46.699219 74 C 46.699219 72.730469 47.730469 71.699219 49 71.699219 L 51 71.699219 C 52.269531 71.699219 53.300781 72.730469 53.300781 74 C 53.300781 75.269531 52.269531 76.300781 51 76.300781 Z M 49 76.300781 "/>
<path style=" stroke:none;fill-rule:nonzero;fill:rgb(27.843139%,16.862746%,16.078432%);fill-opacity:1;" d="M 51 72.398438 C 51.882812 72.398438 52.601562 73.117188 52.601562 74 C 52.601562 74.882812 51.882812 75.601562 51 75.601562 L 49 75.601562 C 48.117188 75.601562 47.398438 74.882812 47.398438 74 C 47.398438 73.117188 48.117188 72.398438 49 72.398438 L 51 72.398438 M 51 71 L 49 71 C 47.351562 71 46 72.351562 46 74 C 46 75.648438 47.351562 77 49 77 L 51 77 C 52.648438 77 54 75.648438 54 74 C 54 72.351562 52.648438 71 51 71 Z M 51 71 "/>
<path style=" stroke:none;fill-rule:nonzero;fill:rgb(22.352941%,76.078433%,84.705883%);fill-opacity:1;" d="M 66.699219 65.300781 L 66.699219 46.699219 L 68.515625 46.699219 C 72.257812 46.699219 75.300781 49.742188 75.300781 53.484375 L 75.300781 58.515625 C 75.300781 62.257812 72.257812 65.300781 68.515625 65.300781 Z M 66.699219 65.300781 "/>
<path style=" stroke:none;fill-rule:nonzero;fill:rgb(27.843139%,16.862746%,16.078432%);fill-opacity:1;" d="M 68.515625 47.398438 C 71.871094 47.398438 74.601562 50.128906 74.601562 53.484375 L 74.601562 58.515625 C 74.601562 61.871094 71.871094 64.597656 68.515625 64.597656 L 67.398438 64.597656 L 67.398438 47.398438 L 68.515625 47.398438 M 68.515625 46 L 66 46 L 66 66 L 68.515625 66 C 72.648438 66 76 62.648438 76 58.515625 L 76 53.484375 C 76 49.351562 72.648438 46 68.515625 46 Z M 68.515625 46 "/>
<path style=" stroke:none;fill-rule:nonzero;fill:rgb(27.843139%,16.862746%,16.078432%);fill-opacity:1;" d="M 68.679688 63.125 C 68.542969 63.125 68.429688 63.011719 68.429688 62.875 C 68.429688 62.738281 68.542969 62.625 68.679688 62.625 C 70.847656 62.625 72.609375 60.863281 72.609375 58.695312 L 72.609375 55.109375 C 72.609375 54.96875 72.722656 54.859375 72.859375 54.859375 C 72.996094 54.859375 73.109375 54.96875 73.109375 55.109375 L 73.109375 58.695312 C 73.109375 61.140625 71.121094 63.125 68.679688 63.125 Z M 68.679688 63.125 "/>
<path style=" stroke:none;fill-rule:nonzero;fill:rgb(27.843139%,16.862746%,16.078432%);fill-opacity:1;" d="M 70.746094 50.046875 C 70.707031 50.046875 70.664062 50.035156 70.625 50.011719 C 70.035156 49.679688 69.363281 49.5 68.683594 49.5 C 68.542969 49.5 68.433594 49.386719 68.433594 49.25 C 68.433594 49.113281 68.542969 49 68.679688 49 C 69.449219 49 70.207031 49.199219 70.871094 49.578125 C 70.992188 49.648438 71.03125 49.800781 70.964844 49.921875 C 70.917969 50 70.835938 50.046875 70.746094 50.046875 Z M 70.746094 50.046875 "/>
<path style=" stroke:none;fill-rule:nonzero;fill:rgb(73.333335%,47.843137%,32.941177%);fill-opacity:1;" d="M 35.75 66.300781 C 34.34375 66.300781 33.199219 65.15625 33.199219 63.75 L 33.199219 47.75 C 33.199219 46.34375 34.34375 45.199219 35.75 45.199219 C 37.15625 45.199219 38.300781 46.34375 38.300781 47.75 L 38.300781 63.75 C 38.300781 65.15625 37.15625 66.300781 35.75 66.300781 Z M 35.75 66.300781 "/>
<path style=" stroke:none;fill-rule:nonzero;fill:rgb(27.843139%,16.862746%,16.078432%);fill-opacity:1;" d="M 35.75 45.898438 C 36.769531 45.898438 37.601562 46.730469 37.601562 47.75 L 37.601562 63.75 C 37.601562 64.769531 36.769531 65.601562 35.75 65.601562 C 34.730469 65.601562 33.898438 64.769531 33.898438 63.75 L 33.898438 47.75 C 33.898438 46.730469 34.730469 45.898438 35.75 45.898438 M 35.75 44.5 C 33.964844 44.5 32.5 45.960938 32.5 47.75 L 32.5 63.75 C 32.5 65.539062 33.964844 67 35.75 67 C 37.535156 67 39 65.539062 39 63.75 L 39 47.75 C 39 45.960938 37.535156 44.5 35.75 44.5 Z M 35.75 44.5 "/>
<path style=" stroke:none;fill-rule:nonzero;fill:rgb(22.352941%,76.078433%,84.705883%);fill-opacity:1;" d="M 31.484375 64.800781 C 27.742188 64.800781 24.699219 61.757812 24.699219 58.015625 L 24.699219 52.984375 C 24.699219 49.242188 27.742188 46.199219 31.484375 46.199219 L 33.300781 46.199219 L 33.300781 64.800781 Z M 31.484375 64.800781 "/>
<path style=" stroke:none;fill-rule:nonzero;fill:rgb(27.843139%,16.862746%,16.078432%);fill-opacity:1;" d="M 32.601562 46.898438 L 32.601562 64.101562 L 31.484375 64.101562 C 28.128906 64.101562 25.398438 61.371094 25.398438 58.015625 L 25.398438 52.984375 C 25.398438 49.628906 28.128906 46.902344 31.484375 46.902344 L 32.601562 46.902344 M 34 45.5 L 31.484375 45.5 C 27.351562 45.5 24 48.851562 24 52.984375 L 24 58.015625 C 24 62.148438 27.351562 65.5 31.484375 65.5 L 34 65.5 Z M 34 45.5 "/>
<path style=" stroke:none;fill-rule:nonzero;fill:rgb(27.843139%,16.862746%,16.078432%);fill-opacity:1;" d="M 64 74.5 L 53.5 74.5 C 53.222656 74.5 53 74.277344 53 74 C 53 73.722656 53.222656 73.5 53.5 73.5 L 63.5 73.5 L 63.5 66.5 C 63.5 66.222656 63.722656 66 64 66 C 64.277344 66 64.5 66.222656 64.5 66.5 L 64.5 74 C 64.5 74.277344 64.277344 74.5 64 74.5 Z M 64 74.5 "/>
<path style=" stroke:none;fill-rule:nonzero;fill:rgb(27.843139%,16.862746%,16.078432%);fill-opacity:1;" d="M 27.222656 58.445312 C 27.085938 58.445312 26.972656 58.335938 26.972656 58.195312 L 26.972656 54.609375 C 26.972656 54.46875 27.085938 54.359375 27.222656 54.359375 C 27.359375 54.359375 27.472656 54.46875 27.472656 54.609375 L 27.472656 58.195312 C 27.472656 58.335938 27.359375 58.445312 27.222656 58.445312 Z M 27.222656 58.445312 "/>
<path style=" stroke:none;fill-rule:nonzero;fill:rgb(27.843139%,16.862746%,16.078432%);fill-opacity:1;" d="M 27.222656 53.179688 C 27.085938 53.179688 26.972656 53.066406 26.972656 52.929688 C 26.972656 51.96875 27.277344 51.054688 27.847656 50.285156 C 27.929688 50.175781 28.089844 50.152344 28.199219 50.234375 C 28.308594 50.316406 28.332031 50.472656 28.25 50.585938 C 27.742188 51.265625 27.472656 52.074219 27.472656 52.929688 C 27.472656 53.066406 27.359375 53.179688 27.222656 53.179688 Z M 27.222656 53.179688 "/>
<path style=" stroke:none;fill-rule:nonzero;fill:rgb(27.843139%,16.862746%,16.078432%);fill-opacity:1;" d="M 29.335938 49.546875 C 29.25 49.546875 29.164062 49.5 29.117188 49.421875 C 29.050781 49.300781 29.09375 49.148438 29.210938 49.078125 C 29.875 48.699219 30.632812 48.5 31.402344 48.5 C 31.539062 48.5 31.652344 48.613281 31.652344 48.75 C 31.652344 48.886719 31.539062 49 31.402344 49 C 30.71875 49 30.046875 49.179688 29.460938 49.511719 C 29.421875 49.535156 29.378906 49.546875 29.335938 49.546875 Z M 29.335938 49.546875 "/>
<path style=" stroke:none;fill-rule:nonzero;fill:rgb(27.843139%,16.862746%,16.078432%);fill-opacity:1;" d="M 62.457031 30.332031 C 62.402344 30.332031 62.347656 30.3125 62.300781 30.277344 C 60.003906 28.394531 57.4375 27.085938 54.664062 26.378906 C 54.53125 26.347656 54.449219 26.210938 54.484375 26.074219 C 54.515625 25.941406 54.652344 25.863281 54.785156 25.894531 C 57.628906 26.617188 60.265625 27.960938 62.617188 29.886719 C 62.722656 29.976562 62.738281 30.132812 62.652344 30.238281 C 62.601562 30.300781 62.53125 30.332031 62.457031 30.332031 Z M 62.457031 30.332031 "/>
<path style=" stroke:none;fill-rule:nonzero;fill:rgb(27.843139%,16.862746%,16.078432%);fill-opacity:1;" d="M 52.769531 25.9375 C 52.757812 25.9375 52.742188 25.9375 52.730469 25.933594 C 51.257812 25.691406 50.027344 25.746094 50.011719 25.75 C 49.867188 25.757812 49.757812 25.648438 49.75 25.511719 C 49.742188 25.375 49.847656 25.257812 49.988281 25.25 C 50.039062 25.246094 51.285156 25.191406 52.8125 25.441406 C 52.945312 25.460938 53.039062 25.589844 53.015625 25.726562 C 52.996094 25.851562 52.890625 25.9375 52.769531 25.9375 Z M 52.769531 25.9375 "/>
<path style=" stroke:none;fill-rule:nonzero;fill:rgb(27.843139%,16.862746%,16.078432%);fill-opacity:1;" d="M 72.859375 53.679688 C 72.722656 53.679688 72.609375 53.566406 72.609375 53.429688 C 72.609375 52.574219 72.339844 51.765625 71.835938 51.085938 C 71.75 50.972656 71.773438 50.816406 71.886719 50.734375 C 71.996094 50.648438 72.152344 50.671875 72.234375 50.785156 C 72.808594 51.554688 73.109375 52.46875 73.109375 53.429688 C 73.109375 53.566406 72.996094 53.679688 72.859375 53.679688 Z M 72.859375 53.679688 "/>
</g>
</svg>
