<?xml version="1.0" encoding="UTF-8"?>
<svg xmlns="http://www.w3.org/2000/svg" xmlns:xlink="http://www.w3.org/1999/xlink" viewBox="0 0 100 100" width="100px" height="100px">
<g id="surface385414">
<path style=" stroke:none;fill-rule:nonzero;fill:rgb(94.509804%,73.725492%,9.803922%);fill-opacity:1;" d="M 77 12 C 76.449219 12 76 12.449219 76 13 C 76 13.550781 76.449219 14 77 14 C 77.550781 14 78 13.550781 78 13 C 78 12.449219 77.550781 12 77 12 Z M 77 12 "/>
<path style=" stroke:none;fill-rule:nonzero;fill:rgb(90.196079%,92.941177%,71.764708%);fill-opacity:1;" d="M 50 13 C 29.566406 13 13 29.566406 13 50 C 13 70.433594 29.566406 87 50 87 C 70.433594 87 87 70.433594 87 50 C 87 29.566406 70.433594 13 50 13 Z M 50 13 "/>
<path style=" stroke:none;fill-rule:nonzero;fill:rgb(94.509804%,73.725492%,9.803922%);fill-opacity:1;" d="M 83 11 C 80.789062 11 79 12.789062 79 15 C 79 17.210938 80.789062 19 83 19 C 85.210938 19 87 17.210938 87 15 C 87 12.789062 85.210938 11 83 11 Z M 83 11 "/>
<path style=" stroke:none;fill-rule:nonzero;fill:rgb(53.333336%,68.235296%,27.058825%);fill-opacity:1;" d="M 87 22 C 85.894531 22 85 22.894531 85 24 C 85 25.105469 85.894531 26 87 26 C 88.105469 26 89 25.105469 89 24 C 89 22.894531 88.105469 22 87 22 Z M 87 22 "/>
<path style=" stroke:none;fill-rule:nonzero;fill:rgb(98.431373%,80.392158%,34.901962%);fill-opacity:1;" d="M 81 74 C 79.894531 74 79 74.894531 79 76 C 79 77.105469 79.894531 78 81 78 C 82.105469 78 83 77.105469 83 76 C 83 74.894531 82.105469 74 81 74 Z M 15 59 C 12.789062 59 11 60.789062 11 63 C 11 65.210938 12.789062 67 15 67 C 17.210938 67 19 65.210938 19 63 C 19 60.789062 17.210938 59 15 59 Z M 15 59 "/>
<path style=" stroke:none;fill-rule:nonzero;fill:rgb(53.333336%,68.235296%,27.058825%);fill-opacity:1;" d="M 25 85 C 23.894531 85 23 85.894531 23 87 C 23 88.105469 23.894531 89 25 89 C 26.105469 89 27 88.105469 27 87 C 27 85.894531 26.105469 85 25 85 Z M 25 85 "/>
<path style=" stroke:none;fill-rule:nonzero;fill:rgb(100%,100%,100%);fill-opacity:1;" d="M 18.5 49 C 17.121094 49 16 50.121094 16 51.5 C 16 52.878906 17.121094 54 18.5 54 C 19.878906 54 21 52.878906 21 51.5 C 21 50.121094 19.878906 49 18.5 49 Z M 79.5 32 C 78.671875 32 78 32.671875 78 33.5 C 78 34.328125 78.671875 35 79.5 35 C 80.328125 35 81 34.328125 81 33.5 C 81 32.671875 80.328125 32 79.5 32 Z M 79.5 32 "/>
<path style=" stroke:none;fill-rule:nonzero;fill:rgb(92.941177%,96.862745%,96.078432%);fill-opacity:1;" d="M 70.800781 31.074219 L 73.355469 31.035156 C 73.5 25.828125 67.226562 26.148438 67.226562 26.148438 L 36.324219 26.144531 C 33.953125 26.144531 31.996094 28.730469 31.996094 30.847656 L 31.996094 57.5625 L 25.851562 57.546875 C 25.847656 57.765625 25.855469 70.324219 25.871094 70.527344 C 26.273438 74.65625 31.660156 74.195312 31.660156 74.195312 L 67.617188 74.21875 C 69.558594 74.398438 70.800781 72.089844 70.800781 70.804688 C 70.800781 69.519531 70.800781 31.074219 70.800781 31.074219 "/>
<path style=" stroke:none;fill-rule:nonzero;fill:rgb(27.843139%,16.862746%,16.078432%);fill-opacity:1;" d="M 30.769531 72.433594 C 30.386719 72.433594 30.078125 72.121094 30.078125 71.730469 C 30.078125 71.339844 30.386719 71.023438 30.769531 71.023438 C 30.90625 71.023438 30.941406 70.984375 30.964844 70.960938 C 31.09375 70.816406 31.230469 70.414062 31.148438 69.300781 L 31.195312 30.566406 C 31.195312 28.101562 33.410156 25.125 36.15625 25.125 L 67.617188 25.128906 C 67.726562 25.121094 71.003906 24.980469 72.953125 26.929688 C 73.925781 27.898438 74.398438 29.191406 74.355469 30.773438 C 74.34375 31.15625 74.039062 31.460938 73.664062 31.460938 L 50.492188 31.5 C 50.109375 31.5 49.800781 31.1875 49.800781 30.796875 C 49.800781 30.40625 50.109375 30.089844 50.488281 30.089844 L 72.949219 30.050781 C 72.863281 29.1875 72.546875 28.488281 71.992188 27.933594 C 70.464844 26.410156 67.679688 26.535156 67.65625 26.535156 L 36.15625 26.535156 C 34.261719 26.535156 32.578125 28.789062 32.578125 30.566406 L 32.527344 69.25 C 32.597656 70.167969 32.585938 71.25 31.976562 71.921875 C 31.671875 72.257812 31.253906 72.433594 30.769531 72.433594 Z M 30.769531 72.433594 "/>
<path style=" stroke:none;fill-rule:nonzero;fill:rgb(27.843139%,16.862746%,16.078432%);fill-opacity:1;" d="M 68.226562 74.90625 C 68.136719 74.90625 68.042969 74.902344 67.949219 74.890625 L 32.601562 74.871094 C 30.59375 75.050781 26.578125 74.382812 26.214844 70.550781 C 26.1875 70.273438 26.183594 57.539062 26.1875 57.4375 C 26.195312 57.054688 26.503906 56.746094 26.878906 56.746094 L 31.5 56.765625 C 31.882812 56.765625 32.1875 57.082031 32.1875 57.472656 C 32.1875 57.859375 31.878906 58.175781 31.496094 58.175781 L 27.566406 58.160156 C 27.566406 60.785156 27.570312 70.023438 27.589844 70.441406 C 27.910156 73.832031 32.347656 73.480469 32.539062 73.464844 L 68.011719 73.484375 C 68.539062 73.539062 68.992188 73.363281 69.40625 72.980469 C 70.0625 72.367188 70.453125 71.371094 70.453125 70.761719 L 70.453125 30.792969 C 70.453125 30.402344 70.765625 30.089844 71.144531 30.089844 C 71.527344 30.089844 71.835938 30.402344 71.835938 30.792969 L 71.835938 70.761719 C 71.835938 71.859375 71.21875 73.199219 70.335938 74.019531 C 69.710938 74.601562 68.988281 74.90625 68.226562 74.90625 Z M 47.453125 31.496094 L 44.414062 31.496094 C 44.035156 31.496094 43.726562 31.183594 43.726562 30.792969 C 43.726562 30.402344 44.035156 30.089844 44.414062 30.089844 L 47.453125 30.089844 C 47.835938 30.089844 48.144531 30.402344 48.144531 30.792969 C 48.144531 31.183594 47.835938 31.496094 47.453125 31.496094 Z M 47.453125 31.496094 "/>
<path style=" stroke:none;fill-rule:nonzero;fill:rgb(65.882355%,85.882354%,85.882354%);fill-opacity:1;" d="M 47.085938 68.128906 L 47.085938 58 L 36.613281 58 L 36.613281 69.574219 L 44.621094 69.574219 M 36.789062 46.824219 L 36.789062 55 L 47.261719 55 L 47.261719 44.9375 L 38.636719 44.9375 "/>
<path style=" stroke:none;fill-rule:nonzero;fill:rgb(27.843139%,16.862746%,16.078432%);fill-opacity:1;" d="M 43.546875 48.0625 C 43.519531 48.0625 43.492188 48.050781 43.46875 48.035156 L 39.527344 45.035156 C 39.46875 44.992188 39.460938 44.914062 39.503906 44.859375 C 39.542969 44.804688 39.621094 44.796875 39.675781 44.835938 L 43.621094 47.835938 C 43.675781 47.878906 43.6875 47.957031 43.644531 48.011719 C 43.621094 48.046875 43.582031 48.0625 43.546875 48.0625 Z M 43.546875 48.0625 "/>
<path style=" stroke:none;fill-rule:nonzero;fill:rgb(27.843139%,16.862746%,16.078432%);fill-opacity:1;" d="M 43.546875 48.0625 C 43.519531 48.0625 43.492188 48.050781 43.46875 48.035156 L 39.527344 45.035156 C 39.46875 44.992188 39.460938 44.914062 39.503906 44.859375 C 39.542969 44.804688 39.621094 44.796875 39.675781 44.835938 L 43.621094 47.835938 C 43.675781 47.878906 43.6875 47.957031 43.644531 48.011719 C 43.621094 48.046875 43.582031 48.0625 43.546875 48.0625 Z M 41.097656 49.660156 C 41.070312 49.660156 41.042969 49.648438 41.023438 49.632812 L 37.078125 46.632812 C 37.019531 46.59375 37.011719 46.515625 37.054688 46.460938 C 37.09375 46.402344 37.171875 46.394531 37.226562 46.433594 L 41.171875 49.433594 C 41.230469 49.476562 41.238281 49.554688 41.195312 49.609375 C 41.171875 49.640625 41.136719 49.660156 41.097656 49.660156 Z M 42.023438 48.691406 C 41.996094 48.691406 41.972656 48.683594 41.949219 48.667969 L 38.003906 45.667969 C 37.949219 45.625 37.9375 45.546875 37.980469 45.492188 C 38.023438 45.4375 38.101562 45.429688 38.15625 45.46875 L 42.101562 48.46875 C 42.15625 48.511719 42.164062 48.589844 42.125 48.644531 C 42.097656 48.675781 42.0625 48.691406 42.023438 48.691406 Z M 40.734375 51.003906 C 40.707031 51.003906 40.679688 50.992188 40.65625 50.976562 L 36.714844 47.976562 C 36.65625 47.933594 36.648438 47.855469 36.691406 47.800781 C 36.730469 47.746094 36.8125 47.738281 36.863281 47.777344 L 40.808594 50.777344 C 40.863281 50.820312 40.875 50.898438 40.832031 50.953125 C 40.808594 50.984375 40.769531 51.003906 40.734375 51.003906 Z M 40.886719 52.894531 C 40.863281 52.894531 40.835938 52.886719 40.8125 52.867188 L 36.867188 49.867188 C 36.8125 49.828125 36.804688 49.75 36.84375 49.695312 C 36.886719 49.636719 36.964844 49.628906 37.019531 49.671875 L 40.964844 52.671875 C 41.019531 52.710938 41.03125 52.789062 40.988281 52.84375 C 40.964844 52.878906 40.925781 52.894531 40.886719 52.894531 Z M 45.839844 48.0625 C 45.8125 48.0625 45.785156 48.050781 45.765625 48.035156 L 41.820312 45.035156 C 41.765625 44.992188 41.753906 44.914062 41.796875 44.859375 C 41.839844 44.804688 41.917969 44.796875 41.972656 44.835938 L 45.914062 47.835938 C 45.972656 47.878906 45.980469 47.957031 45.941406 48.011719 C 45.914062 48.046875 45.878906 48.0625 45.839844 48.0625 Z M 40.835938 54.644531 C 40.808594 54.644531 40.78125 54.632812 40.757812 54.617188 L 36.816406 51.617188 C 36.757812 51.574219 36.75 51.496094 36.789062 51.441406 C 36.832031 51.386719 36.910156 51.378906 36.964844 51.417969 L 40.910156 54.417969 C 40.964844 54.460938 40.976562 54.539062 40.933594 54.59375 C 40.910156 54.628906 40.871094 54.644531 40.835938 54.644531 Z M 45.496094 63.421875 C 45.472656 63.421875 45.445312 63.414062 45.421875 63.398438 L 39.585938 58.957031 C 39.527344 58.914062 39.519531 58.835938 39.558594 58.78125 C 39.601562 58.726562 39.679688 58.71875 39.734375 58.757812 L 45.574219 63.199219 C 45.628906 63.242188 45.640625 63.320312 45.597656 63.375 C 45.574219 63.40625 45.535156 63.421875 45.496094 63.421875 Z M 41.15625 63.578125 C 41.128906 63.578125 41.101562 63.570312 41.078125 63.554688 L 36.691406 60.054688 C 36.636719 60.011719 36.628906 59.933594 36.671875 59.878906 C 36.714844 59.824219 36.789062 59.816406 36.847656 59.859375 L 41.234375 63.355469 C 41.285156 63.398438 41.296875 63.480469 41.253906 63.53125 C 41.226562 63.5625 41.191406 63.578125 41.15625 63.578125 Z M 43.605469 63.773438 C 43.582031 63.773438 43.554688 63.761719 43.53125 63.746094 L 37.359375 59.054688 C 37.304688 59.011719 37.296875 58.933594 37.335938 58.878906 C 37.378906 58.824219 37.457031 58.816406 37.511719 58.855469 L 43.683594 63.546875 C 43.738281 63.589844 43.75 63.667969 43.707031 63.722656 C 43.683594 63.757812 43.644531 63.773438 43.605469 63.773438 Z M 40.789062 64.921875 C 40.765625 64.921875 40.734375 64.914062 40.714844 64.894531 L 36.535156 61.585938 C 36.480469 61.542969 36.472656 61.464844 36.515625 61.410156 C 36.558594 61.359375 36.636719 61.347656 36.691406 61.390625 L 40.867188 64.699219 C 40.921875 64.742188 40.929688 64.820312 40.890625 64.875 C 40.863281 64.90625 40.828125 64.921875 40.789062 64.921875 Z M 40.945312 66.816406 C 40.921875 66.816406 40.894531 66.804688 40.871094 66.789062 L 36.539062 63.496094 C 36.484375 63.453125 36.472656 63.375 36.515625 63.320312 C 36.558594 63.265625 36.636719 63.257812 36.691406 63.296875 L 41.023438 66.589844 C 41.078125 66.632812 41.089844 66.710938 41.046875 66.765625 C 41.023438 66.796875 40.984375 66.816406 40.945312 66.816406 Z M 46.863281 62.714844 C 46.839844 62.714844 46.8125 62.707031 46.789062 62.691406 L 41.878906 58.957031 C 41.824219 58.914062 41.8125 58.835938 41.855469 58.78125 C 41.898438 58.722656 41.976562 58.71875 42.03125 58.757812 L 46.941406 62.492188 C 46.996094 62.53125 47.007812 62.609375 46.964844 62.664062 C 46.9375 62.699219 46.902344 62.714844 46.863281 62.714844 Z M 40.894531 68.5625 C 40.867188 68.5625 40.839844 68.554688 40.816406 68.539062 L 36.871094 65.539062 C 36.816406 65.496094 36.808594 65.417969 36.847656 65.363281 C 36.890625 65.308594 36.96875 65.300781 37.023438 65.339844 L 40.96875 68.339844 C 41.023438 68.382812 41.035156 68.460938 40.992188 68.515625 C 40.96875 68.546875 40.929688 68.5625 40.894531 68.5625 Z M 47.226562 61.203125 C 47.203125 61.203125 47.175781 61.191406 47.152344 61.175781 L 43.953125 58.742188 C 43.898438 58.703125 43.886719 58.625 43.929688 58.570312 C 43.972656 58.511719 44.050781 58.503906 44.105469 58.546875 L 47.304688 60.976562 C 47.359375 61.019531 47.371094 61.097656 47.328125 61.152344 C 47.304688 61.183594 47.265625 61.203125 47.226562 61.203125 Z M 47.226562 61.203125 "/>
<path style=" stroke:none;fill-rule:nonzero;fill:rgb(90.196079%,49.411765%,13.333334%);fill-opacity:1;" d="M 67.476562 63.039062 L 67.476562 31.410156 L 62.476562 31.410156 L 62.476562 76.84375 L 65.085938 74.847656 L 67.476562 76.84375 Z M 67.476562 63.039062 "/>
<path style=" stroke:none;fill-rule:nonzero;fill:rgb(27.843139%,16.862746%,16.078432%);fill-opacity:1;" d="M 67.476562 77.214844 C 67.382812 77.214844 67.285156 77.183594 67.214844 77.121094 L 65.074219 75.339844 L 62.730469 77.132812 C 62.609375 77.222656 62.441406 77.242188 62.308594 77.179688 C 62.167969 77.117188 62.082031 76.984375 62.082031 76.839844 L 62.082031 31.410156 C 62.082031 31.203125 62.257812 31.035156 62.480469 31.035156 L 67.476562 31.035156 C 67.699219 31.035156 67.875 31.203125 67.875 31.410156 L 67.875 76.84375 C 67.875 76.988281 67.785156 77.121094 67.640625 77.183594 C 67.585938 77.207031 67.53125 77.214844 67.476562 77.214844 Z M 62.875 31.785156 L 62.875 76.054688 L 64.835938 74.558594 C 64.988281 74.441406 65.203125 74.445312 65.351562 74.566406 L 67.078125 76.007812 L 67.078125 31.785156 Z M 62.875 31.785156 "/>
<path style=" stroke:none;fill-rule:nonzero;fill:rgb(94.509804%,73.725492%,9.803922%);fill-opacity:1;" d="M 64.753906 61.679688 C 62.335938 61.679688 60.378906 63.640625 60.378906 66.054688 C 60.378906 68.46875 62.335938 70.425781 64.753906 70.425781 C 67.167969 70.425781 69.125 68.46875 69.125 66.054688 C 69.125 63.640625 67.167969 61.679688 64.753906 61.679688 Z M 64.753906 61.679688 "/>
<path style=" stroke:none;fill-rule:nonzero;fill:rgb(27.843139%,16.862746%,16.078432%);fill-opacity:1;" d="M 64.753906 70.800781 C 62.136719 70.800781 60.003906 68.671875 60.003906 66.054688 C 60.003906 63.4375 62.136719 61.304688 64.753906 61.304688 C 67.371094 61.304688 69.5 63.4375 69.5 66.054688 C 69.5 68.671875 67.371094 70.800781 64.753906 70.800781 Z M 64.753906 62.054688 C 62.550781 62.054688 60.753906 63.851562 60.753906 66.054688 C 60.753906 68.257812 62.550781 70.050781 64.753906 70.050781 C 66.957031 70.050781 68.75 68.257812 68.75 66.054688 C 68.75 63.851562 66.957031 62.054688 64.753906 62.054688 Z M 64.753906 62.054688 "/>
<path style=" stroke:none;fill-rule:nonzero;fill:rgb(27.843139%,16.862746%,16.078432%);fill-opacity:1;" d="M 67.761719 67.257812 C 67.746094 67.257812 67.734375 67.253906 67.71875 67.25 C 67.65625 67.226562 67.621094 67.152344 67.644531 67.089844 C 67.761719 66.757812 67.824219 66.410156 67.824219 66.054688 C 67.824219 64.363281 66.445312 62.984375 64.753906 62.984375 C 64.683594 62.984375 64.628906 62.929688 64.628906 62.859375 C 64.628906 62.789062 64.683594 62.734375 64.753906 62.734375 C 66.585938 62.734375 68.074219 64.222656 68.074219 66.054688 C 68.074219 66.441406 68.007812 66.816406 67.878906 67.175781 C 67.863281 67.226562 67.8125 67.257812 67.761719 67.257812 Z M 62.796875 68.707031 C 62.773438 68.707031 62.742188 68.699219 62.722656 68.679688 C 61.902344 68.046875 61.433594 67.089844 61.433594 66.054688 C 61.433594 64.957031 61.976562 63.929688 62.882812 63.3125 C 62.9375 63.273438 63.015625 63.289062 63.054688 63.34375 C 63.09375 63.398438 63.078125 63.480469 63.023438 63.519531 C 62.183594 64.089844 61.683594 65.039062 61.683594 66.054688 C 61.683594 67.011719 62.117188 67.898438 62.875 68.484375 C 62.929688 68.527344 62.9375 68.605469 62.894531 68.660156 C 62.871094 68.691406 62.835938 68.707031 62.796875 68.707031 Z M 63.335938 69.042969 C 63.316406 69.042969 63.296875 69.039062 63.277344 69.027344 C 63.191406 68.988281 63.109375 68.941406 63.027344 68.890625 C 62.96875 68.855469 62.949219 68.777344 62.984375 68.71875 C 63.019531 68.660156 63.097656 68.640625 63.15625 68.679688 C 63.234375 68.722656 63.3125 68.765625 63.390625 68.804688 C 63.449219 68.835938 63.476562 68.910156 63.445312 68.972656 C 63.425781 69.015625 63.378906 69.042969 63.335938 69.042969 Z M 64.753906 69.375 C 64.417969 69.375 64.085938 69.324219 63.765625 69.226562 C 63.703125 69.203125 63.664062 69.136719 63.683594 69.070312 C 63.707031 69.003906 63.769531 68.964844 63.839844 68.988281 C 64.136719 69.078125 64.445312 69.125 64.753906 69.125 C 64.820312 69.125 64.878906 69.183594 64.878906 69.25 C 64.878906 69.320312 64.824219 69.375 64.753906 69.375 Z M 64.753906 69.375 "/>
<path style=" stroke:none;fill-rule:nonzero;fill:rgb(94.509804%,73.725492%,9.803922%);fill-opacity:1;" d="M 25.515625 33.339844 L 26.402344 35.140625 L 28.394531 35.429688 L 26.953125 36.835938 L 27.292969 38.816406 L 25.515625 37.878906 L 23.734375 38.816406 L 24.074219 36.835938 L 22.636719 35.429688 L 24.625 35.140625 Z M 25.515625 33.339844 "/>
<path style=" stroke:none;fill-rule:nonzero;fill:rgb(27.843139%,16.862746%,16.078432%);fill-opacity:1;" d="M 23.734375 39.164062 C 23.664062 39.164062 23.589844 39.144531 23.53125 39.097656 C 23.421875 39.019531 23.367188 38.886719 23.390625 38.757812 L 23.699219 36.957031 L 22.390625 35.683594 C 22.296875 35.589844 22.261719 35.449219 22.304688 35.324219 C 22.34375 35.195312 22.453125 35.105469 22.585938 35.085938 L 24.390625 34.820312 L 25.199219 33.183594 C 25.316406 32.945312 25.710938 32.945312 25.828125 33.183594 L 26.636719 34.820312 L 28.445312 35.085938 C 28.578125 35.105469 28.6875 35.195312 28.726562 35.324219 C 28.769531 35.449219 28.734375 35.589844 28.636719 35.683594 L 27.328125 36.957031 L 27.640625 38.757812 C 27.660156 38.886719 27.609375 39.019531 27.5 39.097656 C 27.390625 39.175781 27.25 39.1875 27.132812 39.125 L 25.515625 38.273438 L 23.898438 39.125 C 23.847656 39.152344 23.789062 39.164062 23.734375 39.164062 Z M 25.515625 37.53125 C 25.570312 37.53125 25.625 37.542969 25.675781 37.570312 L 26.828125 38.175781 L 26.609375 36.894531 C 26.589844 36.777344 26.625 36.664062 26.710938 36.582031 L 27.640625 35.675781 L 26.351562 35.488281 C 26.238281 35.46875 26.140625 35.398438 26.089844 35.296875 L 25.515625 34.128906 L 24.9375 35.296875 C 24.886719 35.398438 24.789062 35.472656 24.675781 35.488281 L 23.386719 35.675781 L 24.320312 36.582031 C 24.402344 36.664062 24.441406 36.777344 24.421875 36.894531 L 24.199219 38.175781 L 25.351562 37.570312 C 25.402344 37.542969 25.457031 37.53125 25.515625 37.53125 Z M 25.515625 37.53125 "/>
<path style=" stroke:none;fill-rule:nonzero;fill:rgb(94.509804%,73.725492%,9.803922%);fill-opacity:1;" d="M 77.496094 61.492188 L 78.386719 63.296875 L 80.375 63.585938 L 78.9375 64.988281 L 79.277344 66.96875 L 77.496094 66.03125 L 75.71875 66.96875 L 76.058594 64.988281 L 74.617188 63.585938 L 76.609375 63.296875 Z M 77.496094 61.492188 "/>
<path style=" stroke:none;fill-rule:nonzero;fill:rgb(27.843139%,16.862746%,16.078432%);fill-opacity:1;" d="M 75.71875 67.316406 C 75.644531 67.316406 75.574219 67.296875 75.511719 67.253906 C 75.40625 67.175781 75.351562 67.039062 75.371094 66.910156 L 75.683594 65.109375 L 74.375 63.835938 C 74.277344 63.742188 74.242188 63.605469 74.285156 63.476562 C 74.324219 63.351562 74.433594 63.257812 74.566406 63.238281 L 76.375 62.976562 L 77.183594 61.339844 C 77.300781 61.101562 77.695312 61.101562 77.8125 61.339844 L 78.621094 62.976562 L 80.425781 63.238281 C 80.558594 63.257812 80.667969 63.351562 80.710938 63.476562 C 80.75 63.605469 80.714844 63.742188 80.621094 63.835938 L 79.3125 65.109375 L 79.621094 66.910156 C 79.644531 67.039062 79.589844 67.175781 79.480469 67.253906 C 79.371094 67.328125 79.230469 67.339844 79.113281 67.277344 L 77.496094 66.429688 L 75.882812 67.277344 C 75.828125 67.304688 75.773438 67.316406 75.71875 67.316406 Z M 75.371094 63.828125 L 76.304688 64.734375 C 76.386719 64.816406 76.421875 64.933594 76.402344 65.046875 L 76.183594 66.328125 L 77.335938 65.722656 C 77.4375 65.667969 77.558594 65.667969 77.660156 65.722656 L 78.8125 66.328125 L 78.59375 65.046875 C 78.570312 64.933594 78.609375 64.816406 78.691406 64.734375 L 79.625 63.828125 L 78.335938 63.640625 C 78.222656 63.625 78.125 63.554688 78.074219 63.449219 L 77.496094 62.285156 L 76.921875 63.449219 C 76.871094 63.554688 76.773438 63.625 76.660156 63.640625 Z M 75.371094 63.828125 "/>
<path style=" stroke:none;fill-rule:nonzero;fill:rgb(27.843139%,16.862746%,16.078432%);fill-opacity:1;" d="M 47.5 56 L 36.5 56 C 36.222656 56 36 55.777344 36 55.5 L 36 47 C 36 46.722656 36.222656 46.5 36.5 46.5 C 36.777344 46.5 37 46.722656 37 47 L 37 55 L 47 55 L 47 45 L 38.9375 45 C 38.660156 45 38.4375 44.777344 38.4375 44.5 C 38.4375 44.222656 38.660156 44 38.9375 44 L 47.5 44 C 47.777344 44 48 44.222656 48 44.5 L 48 55.5 C 48 55.777344 47.777344 56 47.5 56 Z M 47.5 56 "/>
<path style=" stroke:none;fill-rule:nonzero;fill:rgb(27.843139%,16.862746%,16.078432%);fill-opacity:1;" d="M 45.0625 70 L 36.5 70 C 36.222656 70 36 69.777344 36 69.5 L 36 58.5 C 36 58.222656 36.222656 58 36.5 58 L 47.5 58 C 47.777344 58 48 58.222656 48 58.5 L 48 67 C 48 67.277344 47.777344 67.5 47.5 67.5 C 47.222656 67.5 47 67.277344 47 67 L 47 59 L 37 59 L 37 69 L 45.0625 69 C 45.339844 69 45.5625 69.222656 45.5625 69.5 C 45.5625 69.777344 45.339844 70 45.0625 70 Z M 45.0625 70 "/>
<path style=" stroke:none;fill-rule:nonzero;fill:rgb(27.843139%,16.862746%,16.078432%);fill-opacity:1;" d="M 58.5 46 L 50.5 46 C 50.222656 46 50 45.777344 50 45.5 C 50 45.222656 50.222656 45 50.5 45 L 58.5 45 C 58.777344 45 59 45.222656 59 45.5 C 59 45.777344 58.777344 46 58.5 46 Z M 58.5 46 "/>
<path style=" stroke:none;fill-rule:nonzero;fill:rgb(27.843139%,16.862746%,16.078432%);fill-opacity:1;" d="M 58.5 41 L 45.5 41 C 45.222656 41 45 40.777344 45 40.5 C 45 40.222656 45.222656 40 45.5 40 L 58.5 40 C 58.777344 40 59 40.222656 59 40.5 C 59 40.777344 58.777344 41 58.5 41 Z M 58.5 41 "/>
<path style=" stroke:none;fill-rule:nonzero;fill:rgb(27.843139%,16.862746%,16.078432%);fill-opacity:1;" d="M 43 41 L 36.5 41 C 36.222656 41 36 40.777344 36 40.5 C 36 40.222656 36.222656 40 36.5 40 L 43 40 C 43.277344 40 43.5 40.222656 43.5 40.5 C 43.5 40.777344 43.277344 41 43 41 Z M 43 41 "/>
<path style=" stroke:none;fill-rule:nonzero;fill:rgb(27.843139%,16.862746%,16.078432%);fill-opacity:1;" d="M 40.5 37 L 36.5 37 C 36.222656 37 36 36.777344 36 36.5 C 36 36.222656 36.222656 36 36.5 36 L 40.5 36 C 40.777344 36 41 36.222656 41 36.5 C 41 36.777344 40.777344 37 40.5 37 Z M 40.5 37 "/>
<path style=" stroke:none;fill-rule:nonzero;fill:rgb(27.843139%,16.862746%,16.078432%);fill-opacity:1;" d="M 46.5 37 L 42.5 37 C 42.222656 37 42 36.777344 42 36.5 C 42 36.222656 42.222656 36 42.5 36 L 46.5 36 C 46.777344 36 47 36.222656 47 36.5 C 47 36.777344 46.777344 37 46.5 37 Z M 46.5 37 "/>
<path style=" stroke:none;fill-rule:nonzero;fill:rgb(27.843139%,16.862746%,16.078432%);fill-opacity:1;" d="M 52.5 37 L 48.5 37 C 48.222656 37 48 36.777344 48 36.5 C 48 36.222656 48.222656 36 48.5 36 L 52.5 36 C 52.777344 36 53 36.222656 53 36.5 C 53 36.777344 52.777344 37 52.5 37 Z M 52.5 37 "/>
<path style=" stroke:none;fill-rule:nonzero;fill:rgb(27.843139%,16.862746%,16.078432%);fill-opacity:1;" d="M 58.5 37 L 54.5 37 C 54.222656 37 54 36.777344 54 36.5 C 54 36.222656 54.222656 36 54.5 36 L 58.5 36 C 58.777344 36 59 36.222656 59 36.5 C 59 36.777344 58.777344 37 58.5 37 Z M 58.5 37 "/>
<path style=" stroke:none;fill-rule:nonzero;fill:rgb(27.843139%,16.862746%,16.078432%);fill-opacity:1;" d="M 58.5 50 L 50.5 50 C 50.222656 50 50 49.777344 50 49.5 C 50 49.222656 50.222656 49 50.5 49 L 58.5 49 C 58.777344 49 59 49.222656 59 49.5 C 59 49.777344 58.777344 50 58.5 50 Z M 58.5 50 "/>
<path style=" stroke:none;fill-rule:nonzero;fill:rgb(27.843139%,16.862746%,16.078432%);fill-opacity:1;" d="M 58.5 54 L 50.5 54 C 50.222656 54 50 53.777344 50 53.5 C 50 53.222656 50.222656 53 50.5 53 L 58.5 53 C 58.777344 53 59 53.222656 59 53.5 C 59 53.777344 58.777344 54 58.5 54 Z M 58.5 54 "/>
<path style=" stroke:none;fill-rule:nonzero;fill:rgb(27.843139%,16.862746%,16.078432%);fill-opacity:1;" d="M 58.5 60 L 50.5 60 C 50.222656 60 50 59.777344 50 59.5 C 50 59.222656 50.222656 59 50.5 59 L 58.5 59 C 58.777344 59 59 59.222656 59 59.5 C 59 59.777344 58.777344 60 58.5 60 Z M 58.5 60 "/>
<path style=" stroke:none;fill-rule:nonzero;fill:rgb(27.843139%,16.862746%,16.078432%);fill-opacity:1;" d="M 58.5 64 L 50.5 64 C 50.222656 64 50 63.777344 50 63.5 C 50 63.222656 50.222656 63 50.5 63 L 58.5 63 C 58.777344 63 59 63.222656 59 63.5 C 59 63.777344 58.777344 64 58.5 64 Z M 58.5 64 "/>
<path style=" stroke:none;fill-rule:nonzero;fill:rgb(27.843139%,16.862746%,16.078432%);fill-opacity:1;" d="M 58.5 68 L 50.5 68 C 50.222656 68 50 67.777344 50 67.5 C 50 67.222656 50.222656 67 50.5 67 L 58.5 67 C 58.777344 67 59 67.222656 59 67.5 C 59 67.777344 58.777344 68 58.5 68 Z M 58.5 68 "/>
</g>
</svg>
